<?xml version="1.0" encoding="UTF-8"?>
<svg id="Layer_2" data-name="Layer 2" xmlns="http://www.w3.org/2000/svg" viewBox="0 0 935 620">
  <g id="desk-006">
    <polygon points="727.5 20.67 737.95 23.52 731.91 45.45 721.2 42.6 727.5 20.67" fill="#a7a9ac" opacity=".3"/>
  </g>
  <g id="desk-001">
    <polygon points="738.81 23.6 749.17 26.37 743.22 48.21 732.77 45.45 738.81 23.6" fill="#a7a9ac" opacity=".3"/>
  </g>
  <g id="desk-002">
    <polygon points="732.86 45.79 743.22 48.55 737.26 70.4 726.81 67.63 732.86 45.79" fill="#a7a9ac" opacity=".3"/>
  </g>
  <g id="desk-003">
    <polygon points="726.99 68.24 737.35 71 731.39 92.84 720.94 90.08 726.99 68.24" fill="#a7a9ac" opacity=".3"/>
  </g>
  <g id="desk-004">
    <polygon points="715.68 65.25 726.04 68.01 720.08 89.86 709.63 87.09 715.68 65.25" fill="#a7a9ac" opacity=".3"/>
  </g>
  <g id="desk-005">
    <polygon points="721.89 43.2 732.25 45.96 726.29 67.81 715.85 65.04 721.89 43.2" fill="#a7a9ac" opacity=".3"/>
  </g>
  <g id="desk-012">
    <polygon points="784.44 69.47 792.09 77.13 775.95 93.16 768.08 85.37 784.44 69.47" fill="#a7a9ac" opacity=".3"/>
  </g>
  <g id="desk-007">
    <polygon points="792.8 77.63 800.42 85.17 784.4 101.17 776.7 93.59 792.8 77.63" fill="#a7a9ac" opacity=".3"/>
  </g>
  <g id="desk-008">
    <polygon points="776.61 93.93 784.23 101.47 768.21 117.47 760.52 109.89 776.61 93.93" fill="#a7a9ac" opacity=".3"/>
  </g>
  <g id="desk-009">
    <polygon points="760.37 110.5 767.99 118.04 751.97 134.04 744.27 126.46 760.37 110.5" fill="#a7a9ac" opacity=".3"/>
  </g>
  <g id="desk-010">
    <polygon points="752.03 102.29 759.65 109.83 743.64 125.84 735.94 118.25 752.03 102.29" fill="#a7a9ac" opacity=".3"/>
  </g>
  <g id="desk-011">
    <polygon points="768.38 86.24 776 93.78 759.98 109.78 752.29 102.2 768.38 86.24" fill="#a7a9ac" opacity=".3"/>
  </g>
  <g id="desk-018">
    <polygon points="827.08 109.61 834.74 117.27 818.6 133.3 810.72 125.52 827.08 109.61" fill="#a7a9ac" opacity=".3"/>
  </g>
  <g id="desk-013">
    <polygon points="835.44 117.78 843.06 125.32 827.05 141.32 819.35 133.73 835.44 117.78" fill="#a7a9ac" opacity=".3"/>
  </g>
  <g id="desk014">
    <polygon points="819.25 134.08 826.88 141.62 810.86 157.62 803.16 150.03 819.25 134.08" fill="#a7a9ac" opacity=".3"/>
  </g>
  <g id="desk015">
    <polygon points="803.01 150.64 810.63 158.19 794.62 174.19 786.92 166.6 803.01 150.64" fill="#a7a9ac" opacity=".3"/>
  </g>
  <g id="desk-016">
    <polygon points="794.68 142.44 802.3 149.98 786.28 165.98 778.59 158.39 794.68 142.44" fill="#a7a9ac" opacity=".3"/>
  </g>
  <g id="desk-017">
    <polygon points="811.02 126.38 818.64 133.93 802.63 149.93 794.93 142.34 811.02 126.38" fill="#a7a9ac" opacity=".3"/>
  </g>
  <g id="desk-024">
    <polygon points="867.36 150.69 875.02 158.34 858.91 174.39 851.02 166.61 867.36 150.69" fill="#a7a9ac" opacity=".3"/>
  </g>
  <g id="desk019">
    <polygon points="875.73 158.84 883.36 166.37 867.36 182.39 859.66 174.82 875.73 158.84" fill="#a7a9ac" opacity=".3"/>
  </g>
  <g id="desk-020">
    <polygon points="859.56 175.16 867.19 182.69 851.19 198.71 843.49 191.14 859.56 175.16" fill="#a7a9ac" opacity=".3"/>
  </g>
  <g id="desk-021">
    <polygon points="843.34 191.75 850.97 199.28 834.97 215.3 827.27 207.72 843.34 191.75" fill="#a7a9ac" opacity=".3"/>
  </g>
  <g id="desk-022">
    <polygon points="835 183.55 842.63 191.08 826.63 207.1 818.92 199.53 835 183.55" fill="#a7a9ac" opacity=".3"/>
  </g>
  <g id="desk-023">
    <polygon points="851.32 167.48 858.95 175.01 842.95 191.03 835.25 183.45 851.32 167.48" fill="#a7a9ac" opacity=".3"/>
  </g>
  <g id="desk-033">
    <polygon points="912.27 239.25 912.21 250.08 889.46 249.9 889.46 238.82 912.27 239.25" fill="#a7a9ac" opacity=".3"/>
  </g>
  <g id="desk-026">
    <polygon points="912.35 250.94 912.35 261.66 889.71 261.54 889.69 250.73 912.35 250.94" fill="#a7a9ac" opacity=".3"/>
  </g>
  <g id="desk-027">
    <polygon points="889.38 250.9 889.38 261.63 866.74 261.5 866.71 250.7 889.38 250.9" fill="#a7a9ac" opacity=".3"/>
  </g>
  <g id="desk-028">
    <polygon points="866.18 251.02 866.18 261.74 843.54 261.62 843.51 250.82 866.18 251.02" fill="#a7a9ac" opacity=".3"/>
  </g>
  <g id="desk-031">
    <polygon points="866.14 239.32 866.15 250.05 843.51 249.92 843.48 239.12 866.14 239.32" fill="#a7a9ac" opacity=".3"/>
  </g>
  <g id="desk-029">
    <polygon points="842.35 251.19 842.35 261.92 819.71 261.79 819.69 250.99 842.35 251.19" fill="#a7a9ac" opacity=".3"/>
  </g>
  <g id="desk-030">
    <polygon points="842.32 239.5 842.32 250.22 819.68 250.1 819.65 239.29 842.32 239.5" fill="#a7a9ac" opacity=".3"/>
  </g>
  <g id="desk-032">
    <polygon points="889.05 239.64 889.05 250.37 866.41 250.24 866.39 239.44 889.05 239.64" fill="#a7a9ac" opacity=".3"/>
  </g>
  <g id="desk-048">
    <polygon points="845.89 382.24 838.23 389.88 822.21 373.74 830 365.87 845.89 382.24" fill="#a7a9ac" opacity=".3"/>
  </g>
  <g id="desk-041">
    <polygon points="837.64 390.42 830.09 398.03 814.1 382.01 821.69 374.32 837.64 390.42" fill="#a7a9ac" opacity=".3"/>
  </g>
  <g id="desk-042">
    <polygon points="821.17 374.39 813.63 382.01 797.64 365.98 805.23 358.29 821.17 374.39" fill="#a7a9ac" opacity=".3"/>
  </g>
  <g id="desk-043">
    <polygon points="805.31 357.97 797.76 365.58 781.77 349.56 789.36 341.87 805.31 357.97" fill="#a7a9ac" opacity=".3"/>
  </g>
  <g id="desk-046">
    <polygon points="813.26 349.59 805.71 357.2 789.72 341.18 797.31 333.49 813.26 349.59" fill="#a7a9ac" opacity=".3"/>
  </g>
  <g id="desk-044">
    <polygon points="788.95 341.49 781.41 349.1 765.42 333.08 773.01 325.39 788.95 341.49" fill="#a7a9ac" opacity=".3"/>
  </g>
  <g id="desk-045">
    <polygon points="797.17 333.16 789.62 340.77 773.63 324.75 781.22 317.06 797.17 333.16" fill="#a7a9ac" opacity=".3"/>
  </g>
  <g id="desk-047">
    <polygon points="829.3 366.17 821.76 373.78 805.77 357.76 813.36 350.06 829.3 366.17" fill="#a7a9ac" opacity=".3"/>
  </g>
  <g id="desk-040">
    <polygon points="878.21 350.19 870.67 357.8 854.68 341.78 862.27 334.09 878.21 350.19" fill="#a7a9ac" opacity=".3"/>
  </g>
  <g id="desk-036">
    <polygon points="860.89 334.16 853.34 341.78 837.35 325.75 844.94 318.06 860.89 334.16" fill="#a7a9ac" opacity=".3"/>
  </g>
  <g id="desk-037">
    <polygon points="845.02 317.74 837.47 325.35 821.48 309.33 829.07 301.64 845.02 317.74" fill="#a7a9ac" opacity=".3"/>
  </g>
  <g id="desk-038">
    <polygon points="852.97 309.36 845.43 316.97 829.43 300.95 837.02 293.26 852.97 309.36" fill="#a7a9ac" opacity=".3"/>
  </g>
  <g id="desk-039">
    <polygon points="869.02 325.94 861.47 333.55 845.48 317.53 853.07 309.83 869.02 325.94" fill="#a7a9ac" opacity=".3"/>
  </g>
  <g id="desk-056">
    <polygon points="803.33 426 795.67 433.65 779.64 417.51 787.44 409.64 803.33 426" fill="#a7a9ac" opacity=".3"/>
  </g>
  <g id="desk-049">
    <polygon points="795.08 434.19 787.53 441.8 771.54 425.78 779.13 418.09 795.08 434.19" fill="#a7a9ac" opacity=".3"/>
  </g>
  <g id="desk-050">
    <polygon points="778.61 418.16 771.07 425.78 755.08 409.75 762.67 402.06 778.61 418.16" fill="#a7a9ac" opacity=".3"/>
  </g>
  <g id="desk-051">
    <polygon points="762.75 401.74 755.2 409.35 739.21 393.33 746.8 385.64 762.75 401.74" fill="#a7a9ac" opacity=".3"/>
  </g>
  <g id="desk-054">
    <polygon points="770.7 393.36 763.15 400.97 747.16 384.95 754.75 377.26 770.7 393.36" fill="#a7a9ac" opacity=".3"/>
  </g>
  <g id="desk-052">
    <polygon points="746.39 385.26 738.85 392.87 722.86 376.85 730.45 369.16 746.39 385.26" fill="#a7a9ac" opacity=".3"/>
  </g>
  <g id="desk-053">
    <polygon points="754.61 376.41 747.06 384.03 731.07 368 738.66 360.31 754.61 376.41" fill="#a7a9ac" opacity=".3"/>
  </g>
  <g id="desk-055">
    <polygon points="786.74 409.94 779.2 417.55 763.2 401.53 770.79 393.83 786.74 409.94" fill="#a7a9ac" opacity=".3"/>
  </g>
  <g id="desk-064">
    <polygon points="760.43 468.31 752.76 475.95 736.74 459.81 744.53 451.94 760.43 468.31" fill="#a7a9ac" opacity=".3"/>
  </g>
  <g id="desk-057">
    <polygon points="752.17 476.49 744.62 484.1 728.63 468.08 736.22 460.39 752.17 476.49" fill="#a7a9ac" opacity=".3"/>
  </g>
  <g id="desk-058">
    <polygon points="735.71 460.46 728.16 468.08 712.17 452.05 719.76 444.36 735.71 460.46" fill="#a7a9ac" opacity=".3"/>
  </g>
  <g id="desk-059">
    <polygon points="719.84 444.04 712.29 451.66 696.3 435.63 703.89 427.94 719.84 444.04" fill="#a7a9ac" opacity=".3"/>
  </g>
  <g id="desk-062">
    <polygon points="727.79 435.66 720.25 443.28 704.25 427.25 711.84 419.56 727.79 435.66" fill="#a7a9ac" opacity=".3"/>
  </g>
  <g id="desk-060">
    <polygon points="703.49 427.56 695.94 435.18 679.95 419.15 687.54 411.46 703.49 427.56" fill="#a7a9ac" opacity=".3"/>
  </g>
  <g id="desk-061">
    <polygon points="711.7 419.23 704.15 426.85 688.16 410.82 695.75 403.13 711.7 419.23" fill="#a7a9ac" opacity=".3"/>
  </g>
  <g id="desk-063">
    <polygon points="743.84 452.24 736.29 459.85 720.3 443.83 727.89 436.14 743.84 452.24" fill="#a7a9ac" opacity=".3"/>
  </g>
  <g id="desk-065">
    <polygon points="716.66 512.85 708.99 520.5 692.97 504.36 700.76 496.49 716.66 512.85" fill="#a7a9ac" opacity=".3"/>
  </g>
  <g id="desk-066">
    <polygon points="692.02 504.06 684.48 511.68 668.49 495.65 676.08 487.96 692.02 504.06" fill="#a7a9ac" opacity=".3"/>
  </g>
  <g id="desk-067">
    <polygon points="676.16 487.64 668.61 495.25 652.62 479.23 660.21 471.54 676.16 487.64" fill="#a7a9ac" opacity=".3"/>
  </g>
  <g id="desk-070">
    <polygon points="684.11 479.26 676.56 486.87 660.57 470.85 668.16 463.16 684.11 479.26" fill="#a7a9ac" opacity=".3"/>
  </g>
  <g id="desk-068">
    <polygon points="659.8 471.16 652.26 478.77 636.27 462.75 643.86 455.06 659.8 471.16" fill="#a7a9ac" opacity=".3"/>
  </g>
  <g id="desk-069">
    <polygon points="668.02 462.83 660.47 470.44 644.48 454.42 652.07 446.73 668.02 462.83" fill="#a7a9ac" opacity=".3"/>
  </g>
  <g id="desk-073">
    <polygon points="658.34 565.64 648.68 570.29 638.97 549.84 648.7 545.13 658.34 565.64" fill="#a7a9ac" opacity=".3"/>
  </g>
  <g id="desk-076">
    <polygon points="668.64 560.4 658.98 565.06 649.27 544.61 658.99 539.9 668.64 560.4" fill="#a7a9ac" opacity=".3"/>
  </g>
  <g id="desk-074">
    <polygon points="648.44 544.64 638.78 549.3 629.07 528.84 638.8 524.13 648.44 544.64" fill="#a7a9ac" opacity=".3"/>
  </g>
  <g id="desk-075">
    <polygon points="658.97 539.54 649.31 544.19 639.6 523.74 649.32 519.03 658.97 539.54" fill="#a7a9ac" opacity=".3"/>
  </g>
  <g id="desk-077">
    <polygon points="587.68 588.97 576.96 589.1 576.81 566.46 587.61 566.31 587.68 588.97" fill="#a7a9ac" opacity=".3"/>
  </g>
  <g id="desk-068-2" data-name="desk-068">
    <polygon points="599.23 588.58 588.51 588.71 588.36 566.07 599.16 565.92 599.23 588.58" fill="#a7a9ac" opacity=".3"/>
  </g>
  <g id="desk-078">
    <polygon points="587.59 565.76 576.87 565.89 576.72 543.25 587.52 543.09 587.59 565.76" fill="#a7a9ac" opacity=".3"/>
  </g>
  <g id="desk-083">
    <polygon points="599.29 565.58 588.57 565.71 588.42 543.08 599.22 542.92 599.29 565.58" fill="#a7a9ac" opacity=".3"/>
  </g>
  <g id="desk-079">
    <polygon points="587.34 542.7 576.62 542.83 576.47 520.19 587.27 520.04 587.34 542.7" fill="#a7a9ac" opacity=".3"/>
  </g>
  <g id="desk-082">
    <polygon points="598.88 542.31 588.16 542.44 588.01 519.8 598.82 519.64 598.88 542.31" fill="#a7a9ac" opacity=".3"/>
  </g>
  <g id="desk-080">
    <polygon points="587.25 519.48 576.53 519.61 576.37 496.98 587.18 496.82 587.25 519.48" fill="#a7a9ac" opacity=".3"/>
  </g>
  <g id="desk-081">
    <polygon points="598.94 519.31 588.22 519.44 588.07 496.8 598.87 496.65 598.94 519.31" fill="#a7a9ac" opacity=".3"/>
  </g>
  <g id="desk-085">
    <polygon points="528.37 588.8 517.65 588.93 517.5 566.29 528.31 566.14 528.37 588.8" fill="#a7a9ac" opacity=".3"/>
  </g>
  <g id="desk-092">
    <polygon points="539.92 588.41 529.2 588.54 529.05 565.9 539.85 565.75 539.92 588.41" fill="#a7a9ac" opacity=".3"/>
  </g>
  <g id="desk-086">
    <polygon points="528.28 565.58 517.56 565.72 517.41 543.08 528.21 542.92 528.28 565.58" fill="#a7a9ac" opacity=".3"/>
  </g>
  <g id="desk-091">
    <polygon points="539.98 565.41 529.26 565.54 529.11 542.9 539.91 542.75 539.98 565.41" fill="#a7a9ac" opacity=".3"/>
  </g>
  <g id="desk-087">
    <polygon points="528.03 542.53 517.31 542.66 517.16 520.02 527.96 519.86 528.03 542.53" fill="#a7a9ac" opacity=".3"/>
  </g>
  <g id="desk-090">
    <polygon points="539.58 542.13 528.85 542.27 528.7 519.63 539.51 519.47 539.58 542.13" fill="#a7a9ac" opacity=".3"/>
  </g>
  <g id="desk-088">
    <polygon points="527.94 519.31 517.22 519.44 517.07 496.8 527.87 496.65 527.94 519.31" fill="#a7a9ac" opacity=".3"/>
  </g>
  <g id="desk-089">
    <polygon points="539.63 519.14 528.91 519.27 528.76 496.63 539.56 496.47 539.63 519.14" fill="#a7a9ac" opacity=".3"/>
  </g>
  <g id="desk-093">
    <polygon points="469.76 588.28 459.03 588.41 458.88 565.77 469.69 565.62 469.76 588.28" fill="#a7a9ac" opacity=".3"/>
  </g>
  <g id="desk-100">
    <polygon points="481.3 587.89 470.58 588.02 470.43 565.38 481.23 565.23 481.3 587.89" fill="#a7a9ac" opacity=".3"/>
  </g>
  <g id="desk-094">
    <polygon points="469.66 565.06 458.94 565.2 458.79 542.56 469.6 542.4 469.66 565.06" fill="#a7a9ac" opacity=".3"/>
  </g>
  <g id="desk-099">
    <polygon points="481.36 564.89 470.64 565.02 470.49 542.38 481.29 542.23 481.36 564.89" fill="#a7a9ac" opacity=".3"/>
  </g>
  <g id="desk-095">
    <polygon points="469.41 542.01 458.69 542.14 458.54 519.5 469.34 519.35 469.41 542.01" fill="#a7a9ac" opacity=".3"/>
  </g>
  <g id="desk-098">
    <polygon points="480.96 541.62 470.24 541.75 470.08 519.11 480.89 518.95 480.96 541.62" fill="#a7a9ac" opacity=".3"/>
  </g>
  <g id="desk-096">
    <polygon points="469.32 518.79 458.6 518.92 458.45 496.29 469.25 496.13 469.32 518.79" fill="#a7a9ac" opacity=".3"/>
  </g>
  <g id="desk-097">
    <polygon points="481.01 518.62 470.29 518.75 470.14 496.11 480.95 495.96 481.01 518.62" fill="#a7a9ac" opacity=".3"/>
  </g>
  <polygon points="409.87 587.75 399.15 587.63 399.51 565 410.32 565.09 409.87 587.75" fill="#a7a9ac" opacity=".3"/>
  <polygon points="421.42 587.62 410.7 587.51 411.07 564.87 421.87 564.96 421.42 587.62" fill="#a7a9ac" opacity=".3"/>
  <polygon points="410.31 564.53 399.59 564.42 399.96 541.78 410.76 541.88 410.31 564.53" fill="#a7a9ac" opacity=".3"/>
  <polygon points="422.01 564.63 411.28 564.52 411.65 541.88 422.46 541.97 422.01 564.63" fill="#a7a9ac" opacity=".3"/>
  <polygon points="410.58 541.48 399.86 541.36 400.23 518.73 411.04 518.82 410.58 541.48" fill="#a7a9ac" opacity=".3"/>
  <polygon points="422.14 541.35 411.42 541.24 411.78 518.6 422.59 518.69 422.14 541.35" fill="#a7a9ac" opacity=".3"/>
  <polygon points="411.03 518.26 400.31 518.15 400.67 495.51 411.48 495.61 411.03 518.26" fill="#a7a9ac" opacity=".3"/>
  <polygon points="422.72 518.36 412 518.25 412.37 495.61 423.18 495.7 422.72 518.36" fill="#a7a9ac" opacity=".3"/>
  <polygon points="350.79 587.85 340.07 587.89 340.11 565.25 350.91 565.18 350.79 587.85" fill="#a7a9ac" opacity=".3"/>
  <polygon points="362.34 587.55 351.61 587.59 351.66 564.95 362.46 564.89 362.34 587.55" fill="#a7a9ac" opacity=".3"/>
  <polygon points="350.9 564.63 340.18 564.67 340.22 542.03 351.02 541.97 350.9 564.63" fill="#a7a9ac" opacity=".3"/>
  <polygon points="362.59 564.56 351.87 564.6 351.92 541.96 362.72 541.9 362.59 564.56" fill="#a7a9ac" opacity=".3"/>
  <polygon points="350.84 541.57 340.12 541.61 340.16 518.97 350.97 518.91 350.84 541.57" fill="#a7a9ac" opacity=".3"/>
  <polygon points="362.39 541.28 351.67 541.32 351.71 518.68 362.52 518.62 362.39 541.28" fill="#a7a9ac" opacity=".3"/>
  <polygon points="350.95 518.36 340.23 518.39 340.27 495.76 351.08 495.69 350.95 518.36" fill="#a7a9ac" opacity=".3"/>
  <polygon points="362.65 518.28 351.93 518.32 351.97 495.68 362.78 495.62 362.65 518.28" fill="#a7a9ac" opacity=".3"/>
  <polygon points="234.88 515.94 227.29 508.37 243.38 492.44 251.04 500.06 234.88 515.94" fill="#a7a9ac" opacity=".3"/>
  <polygon points="243.23 523.93 235.64 516.35 251.73 500.42 259.39 508.04 243.23 523.93" fill="#a7a9ac" opacity=".3"/>
  <polygon points="251.42 499.66 243.84 492.08 259.92 476.15 267.58 483.77 251.42 499.66" fill="#a7a9ac" opacity=".3"/>
  <polygon points="259.72 507.9 252.13 500.32 268.22 484.39 275.88 492.01 259.72 507.9" fill="#a7a9ac" opacity=".3"/>
  <polygon points="267.74 483.36 260.15 475.78 276.24 459.85 283.9 467.47 267.74 483.36" fill="#a7a9ac" opacity=".3"/>
  <polygon points="276.09 491.35 268.5 483.77 284.59 467.84 292.25 475.46 276.09 491.35" fill="#a7a9ac" opacity=".3"/>
  <polygon points="284.28 467.07 276.69 459.5 292.78 443.57 300.44 451.19 284.28 467.07" fill="#a7a9ac" opacity=".3"/>
  <polygon points="292.58 475.32 284.99 467.74 301.08 451.81 308.74 459.43 292.58 475.32" fill="#a7a9ac" opacity=".3"/>
  <polygon points="194.99 475.37 187.41 467.79 203.5 451.86 211.16 459.48 194.99 475.37" fill="#a7a9ac" opacity=".3"/>
  <polygon points="203.34 483.35 195.76 475.78 211.84 459.85 219.51 467.47 203.34 483.35" fill="#a7a9ac" opacity=".3"/>
  <polygon points="211.54 459.08 203.95 451.5 220.04 435.57 227.7 443.19 211.54 459.08" fill="#a7a9ac" opacity=".3"/>
  <polygon points="219.83 467.32 212.25 459.75 228.34 443.82 236 451.44 219.83 467.32" fill="#a7a9ac" opacity=".3"/>
  <polygon points="227.85 442.78 220.27 435.21 236.35 419.28 244.01 426.9 227.85 442.78" fill="#a7a9ac" opacity=".3"/>
  <polygon points="236.2 450.77 228.61 443.19 244.7 427.26 252.36 434.88 236.2 450.77" fill="#a7a9ac" opacity=".3"/>
  <polygon points="244.4 426.5 236.81 418.92 252.9 402.99 260.56 410.61 244.4 426.5" fill="#a7a9ac" opacity=".3"/>
  <polygon points="252.69 434.74 245.11 427.16 261.19 411.24 268.86 418.85 252.69 434.74" fill="#a7a9ac" opacity=".3"/>
  <polygon points="154.94 435.74 147.35 428.17 163.44 412.24 171.1 419.86 154.94 435.74" fill="#a7a9ac" opacity=".3"/>
  <polygon points="163.29 443.73 155.7 436.15 171.79 420.22 179.45 427.84 163.29 443.73" fill="#a7a9ac" opacity=".3"/>
  <polygon points="171.48 419.45 163.89 411.88 179.98 395.95 187.64 403.57 171.48 419.45" fill="#a7a9ac" opacity=".3"/>
  <polygon points="179.78 427.7 172.19 420.12 188.28 404.19 195.94 411.81 179.78 427.7" fill="#a7a9ac" opacity=".3"/>
  <polygon points="187.8 403.16 180.21 395.58 196.3 379.65 203.96 387.27 187.8 403.16" fill="#a7a9ac" opacity=".3"/>
  <polygon points="196.14 411.14 188.56 403.57 204.64 387.64 212.31 395.26 196.14 411.14" fill="#a7a9ac" opacity=".3"/>
  <polygon points="204.34 386.87 196.75 379.29 212.84 363.37 220.5 370.98 204.34 386.87" fill="#a7a9ac" opacity=".3"/>
  <polygon points="212.64 395.11 205.05 387.54 221.14 371.61 228.8 379.23 212.64 395.11" fill="#a7a9ac" opacity=".3"/>
  <polygon points="113.69 394.67 106.06 387.14 122.05 371.12 129.76 378.69 113.69 394.67" fill="#a7a9ac" opacity=".3"/>
  <polygon points="122.09 402.61 114.46 395.08 130.45 379.05 138.15 386.63 122.09 402.61" fill="#a7a9ac" opacity=".3"/>
  <polygon points="130.14 378.29 122.5 370.76 138.5 354.73 146.2 362.3 130.14 378.29" fill="#a7a9ac" opacity=".3"/>
  <polygon points="138.48 386.48 130.85 378.95 146.84 362.93 154.55 370.5 138.48 386.48" fill="#a7a9ac" opacity=".3"/>
  <polygon points="146.35 361.89 138.72 354.36 154.71 338.34 162.42 345.91 146.35 361.89" fill="#a7a9ac" opacity=".3"/>
  <polygon points="154.75 369.83 147.12 362.3 163.11 346.27 170.82 353.85 154.75 369.83" fill="#a7a9ac" opacity=".3"/>
  <polygon points="162.8 345.51 155.17 337.98 171.16 321.95 178.87 329.53 162.8 345.51" fill="#a7a9ac" opacity=".3"/>
  <polygon points="171.15 353.7 163.51 346.17 179.51 330.15 187.21 337.72 171.15 353.7" fill="#a7a9ac" opacity=".3"/>
  <polygon points="68.89 349.61 61.25 342.08 77.25 326.05 84.95 333.63 68.89 349.61" fill="#a7a9ac" opacity=".3"/>
  <polygon points="77.28 357.54 69.65 350.01 85.64 333.99 93.35 341.56 77.28 357.54" fill="#a7a9ac" opacity=".3"/>
  <polygon points="85.33 333.22 77.7 325.69 93.69 309.67 101.4 317.24 85.33 333.22" fill="#a7a9ac" opacity=".3"/>
  <polygon points="93.68 341.42 86.05 333.89 102.04 317.86 109.74 325.43 93.68 341.42" fill="#a7a9ac" opacity=".3"/>
  <polygon points="101.55 316.83 93.92 309.3 109.91 293.27 117.61 300.85 101.55 316.83" fill="#a7a9ac" opacity=".3"/>
  <polygon points="109.94 324.77 102.31 317.23 118.3 301.21 126.01 308.78 109.94 324.77" fill="#a7a9ac" opacity=".3"/>
  <polygon points="25.02 249.82 24.98 239.1 47.62 239.14 47.69 249.95 25.02 249.82" fill="#a7a9ac" opacity=".3"/>
  <polygon points="25.32 261.37 25.28 250.65 47.91 250.69 47.98 261.5 25.32 261.37" fill="#a7a9ac" opacity=".3"/>
  <polygon points="48.24 249.93 48.2 239.21 70.84 239.25 70.9 250.05 48.24 249.93" fill="#a7a9ac" opacity=".3"/>
  <polygon points="48.31 261.63 48.27 250.9 70.91 250.95 70.98 261.75 48.31 261.63" fill="#a7a9ac" opacity=".3"/>
  <polygon points="71.3 249.87 71.26 239.15 93.9 239.19 93.96 249.99 71.3 249.87" fill="#a7a9ac" opacity=".3"/>
  <polygon points="71.59 261.42 71.55 250.7 94.19 250.74 94.25 261.54 71.59 261.42" fill="#a7a9ac" opacity=".3"/>
  <polygon points="66.92 155.76 74.39 148.07 90.55 163.93 83.04 171.7 66.92 155.76" fill="#a7a9ac" opacity=".3"/>
  <polygon points="59.06 164.22 66.52 156.53 82.68 172.39 75.17 180.16 59.06 164.22" fill="#a7a9ac" opacity=".3"/>
  <polygon points="83.44 172.07 90.91 164.38 107.07 180.24 99.55 188.01 83.44 172.07" fill="#a7a9ac" opacity=".3"/>
  <polygon points="75.32 180.48 82.78 172.79 98.94 188.65 91.43 196.42 75.32 180.48" fill="#a7a9ac" opacity=".3"/>
  <polygon points="99.97 188.15 107.43 180.46 123.59 196.32 116.08 204.09 99.97 188.15" fill="#a7a9ac" opacity=".3"/>
  <polygon points="92.1 196.61 99.57 188.92 115.72 204.78 108.21 212.55 92.1 196.61" fill="#a7a9ac" opacity=".3"/>
  <polygon points="110 113.37 117.47 105.68 133.62 121.54 126.11 129.31 110 113.37" fill="#a7a9ac" opacity=".3"/>
  <polygon points="102.14 121.83 109.6 114.14 125.76 130 118.25 137.77 102.14 121.83" fill="#a7a9ac" opacity=".3"/>
  <polygon points="126.52 129.68 133.99 121.99 150.14 137.85 142.63 145.62 126.52 129.68" fill="#a7a9ac" opacity=".3"/>
  <polygon points="118.4 138.09 125.86 130.4 142.02 146.26 134.51 154.03 118.4 138.09" fill="#a7a9ac" opacity=".3"/>
  <polygon points="143.05 145.77 150.51 138.07 166.67 153.93 159.16 161.7 143.05 145.77" fill="#a7a9ac" opacity=".3"/>
  <polygon points="135.18 154.23 142.65 146.53 158.8 162.39 151.29 170.16 135.18 154.23" fill="#a7a9ac" opacity=".3"/>
  <polygon points="151.53 72.45 159 64.76 175.15 80.62 167.64 88.39 151.53 72.45" fill="#a7a9ac" opacity=".3"/>
  <polygon points="143.66 80.91 151.13 73.22 167.28 89.08 159.77 96.85 143.66 80.91" fill="#a7a9ac" opacity=".3"/>
  <polygon points="168.05 88.76 175.52 81.07 191.67 96.93 184.16 104.7 168.05 88.76" fill="#a7a9ac" opacity=".3"/>
  <polygon points="159.92 97.17 167.39 89.48 183.54 105.34 176.03 113.11 159.92 97.17" fill="#a7a9ac" opacity=".3"/>
  <polygon points="184.57 104.84 192.04 97.15 208.19 113.01 200.68 120.78 184.57 104.84" fill="#a7a9ac" opacity=".3"/>
  <polygon points="176.7 113.31 184.17 105.61 200.33 121.47 192.82 129.24 176.7 113.31" fill="#a7a9ac" opacity=".3"/>
  <polygon points="209.44 18.33 219.77 15.48 225.68 37.34 215.27 40.24 209.44 18.33" fill="#a7a9ac" opacity=".3"/>
  <polygon points="198.37 21.65 208.71 18.8 214.61 40.65 204.2 43.55 198.37 21.65" fill="#a7a9ac" opacity=".3"/>
  <polygon points="215.43 40.77 225.76 37.91 231.67 59.77 221.26 62.67 215.43 40.77" fill="#a7a9ac" opacity=".3"/>
  <polygon points="204.16 43.91 214.5 41.05 220.4 62.91 209.99 65.81 204.16 43.91" fill="#a7a9ac" opacity=".3"/>
  <polygon points="221.54 63 231.87 60.15 237.77 82 227.36 84.9 221.54 63" fill="#a7a9ac" opacity=".3"/>
  <polygon points="210.47 66.31 220.8 63.46 226.71 85.32 216.3 88.21 210.47 66.31" fill="#a7a9ac" opacity=".3"/>
  <polygon points="93.83 249.78 93.79 239.06 116.43 239.1 116.49 249.91 93.83 249.78" fill="#a7a9ac" opacity=".3"/>
  <polygon points="94.12 261.33 94.08 250.61 116.72 250.65 116.79 261.46 94.12 261.33" fill="#a7a9ac" opacity=".3"/>
  <g id="desk-071">
    <polygon points="700.15 495.83 692.61 503.45 676.61 487.42 684.2 479.73 700.15 495.83" fill="#a7a9ac" opacity=".3"/>
  </g>
  <g id="desk-025bB">
    <polygon points="884.8 197.99 904.57 190.83 908.19 200.06 887.99 207.49 884.8 197.99" fill="#a7a9ac" opacity=".3"/>
  </g>
  <g id="desk-025A">
    <polygon points="888.08 207.92 907.85 200.76 911.47 209.99 891.27 217.42 888.08 207.92" fill="#a7a9ac" opacity=".3"/>
  </g>
  <g id="desk-034B">
    <polygon points="893.15 285.54 912.66 293.38 909.2 302.68 889.19 294.75 893.15 285.54" fill="#a7a9ac" opacity=".3"/>
  </g>
  <g id="desk-034A">
    <polygon points="888.97 295.13 908.48 302.97 905.03 312.27 885.02 304.33 888.97 295.13" fill="#a7a9ac" opacity=".3"/>
  </g>
  <polygon points="32.11 295.37 51.27 286.22 55.42 295.12 36.42 304.18 32.11 295.37" fill="#a7a9ac" opacity=".3"/>
  <polygon points="36.94 304.96 56.11 295.81 60.25 304.7 41.26 313.76 36.94 304.96" fill="#a7a9ac" opacity=".3"/>
  <polygon points="41.15 187.36 59.55 197.97 54.57 206.42 36.34 195.91 41.15 187.36" fill="#a7a9ac" opacity=".3"/>
  <polygon points="35.99 196.78 54.39 207.38 49.41 215.84 31.18 205.32 35.99 196.78" fill="#a7a9ac" opacity=".3"/>
</svg>