<?xml version="1.0" encoding="UTF-8"?>
<svg id="Layer_2" data-name="Layer 2" xmlns="http://www.w3.org/2000/svg" viewBox="0 0 935 620">
  <g id="desk-006">
    <polygon points="738.5 36.67 748.95 39.52 742.91 61.45 732.2 58.6 738.5 36.67" fill="#a7a9ac" opacity=".3"/>
  </g>
  <g id="desk-001">
    <polygon points="749.81 39.6 760.17 42.37 754.22 64.21 743.77 61.45 749.81 39.6" fill="#a7a9ac" opacity=".3"/>
  </g>
  <g id="desk-002">
    <polygon points="743.86 61.79 754.22 64.55 748.26 86.4 737.81 83.63 743.86 61.79" fill="#a7a9ac" opacity=".3"/>
  </g>
  <g id="desk-003">
    <polygon points="737.99 84.24 748.35 87 742.39 108.84 731.94 106.08 737.99 84.24" fill="#a7a9ac" opacity=".3"/>
  </g>
  <g id="desk-004">
    <polygon points="726.68 81.25 737.04 84.01 731.08 105.86 720.63 103.09 726.68 81.25" fill="#a7a9ac" opacity=".3"/>
  </g>
  <g id="desk-005">
    <polygon points="732.89 59.2 743.25 61.96 737.29 83.81 726.85 81.04 732.89 59.2" fill="#a7a9ac" opacity=".3"/>
  </g>
  <g id="desk-012">
    <polygon points="795.44 85.47 803.09 93.13 786.95 109.16 779.08 101.37 795.44 85.47" fill="#a7a9ac" opacity=".3"/>
  </g>
  <g id="desk-007">
    <polygon points="803.8 93.63 811.42 101.17 795.4 117.17 787.7 109.59 803.8 93.63" fill="#a7a9ac" opacity=".3"/>
  </g>
  <g id="desk-008">
    <polygon points="787.61 109.93 795.23 117.47 779.21 133.47 771.52 125.89 787.61 109.93" fill="#a7a9ac" opacity=".3"/>
  </g>
  <g id="desk-009">
    <polygon points="771.37 126.5 778.99 134.04 762.97 150.04 755.27 142.46 771.37 126.5" fill="#a7a9ac" opacity=".3"/>
  </g>
  <g id="desk-010">
    <polygon points="763.03 118.29 770.65 125.83 754.64 141.84 746.94 134.25 763.03 118.29" fill="#a7a9ac" opacity=".3"/>
  </g>
  <g id="desk-011">
    <polygon points="779.38 102.24 787 109.78 770.98 125.78 763.29 118.2 779.38 102.24" fill="#a7a9ac" opacity=".3"/>
  </g>
  <g id="desk-018">
    <polygon points="838.08 125.61 845.74 133.27 829.6 149.3 821.72 141.52 838.08 125.61" fill="#a7a9ac" opacity=".3"/>
  </g>
  <g id="desk-013">
    <polygon points="846.44 133.78 854.06 141.32 838.05 157.32 830.35 149.73 846.44 133.78" fill="#a7a9ac" opacity=".3"/>
  </g>
  <g id="desk014">
    <polygon points="830.25 150.08 837.88 157.62 821.86 173.62 814.16 166.03 830.25 150.08" fill="#a7a9ac" opacity=".3"/>
  </g>
  <g id="desk015">
    <polygon points="814.01 166.64 821.63 174.19 805.62 190.19 797.92 182.6 814.01 166.64" fill="#a7a9ac" opacity=".3"/>
  </g>
  <g id="desk-016">
    <polygon points="805.68 158.44 813.3 165.98 797.28 181.98 789.59 174.39 805.68 158.44" fill="#a7a9ac" opacity=".3"/>
  </g>
  <g id="desk-017">
    <polygon points="822.02 142.38 829.64 149.93 813.63 165.93 805.93 158.34 822.02 142.38" fill="#a7a9ac" opacity=".3"/>
  </g>
  <g id="desk-024">
    <polygon points="878.36 166.69 886.02 174.34 869.91 190.39 862.02 182.61 878.36 166.69" fill="#a7a9ac" opacity=".3"/>
  </g>
  <g id="desk019">
    <polygon points="886.73 174.84 894.36 182.37 878.36 198.39 870.66 190.82 886.73 174.84" fill="#a7a9ac" opacity=".3"/>
  </g>
  <g id="desk-020">
    <polygon points="870.56 191.16 878.19 198.69 862.19 214.71 854.49 207.14 870.56 191.16" fill="#a7a9ac" opacity=".3"/>
  </g>
  <g id="desk-021">
    <polygon points="854.34 207.75 861.97 215.28 845.97 231.3 838.27 223.72 854.34 207.75" fill="#a7a9ac" opacity=".3"/>
  </g>
  <g id="desk-022">
    <polygon points="846 199.55 853.63 207.08 837.63 223.1 829.92 215.53 846 199.55" fill="#a7a9ac" opacity=".3"/>
  </g>
  <g id="desk-023">
    <polygon points="862.32 183.48 869.95 191.01 853.95 207.03 846.25 199.45 862.32 183.48" fill="#a7a9ac" opacity=".3"/>
  </g>
  <g id="desk-033">
    <polygon points="923.27 255.25 923.21 266.08 900.46 265.9 900.46 254.82 923.27 255.25" fill="#a7a9ac" opacity=".3"/>
  </g>
  <g id="desk-026">
    <polygon points="923.35 266.94 923.35 277.66 900.71 277.54 900.69 266.73 923.35 266.94" fill="#a7a9ac" opacity=".3"/>
  </g>
  <g id="desk-027">
    <polygon points="900.38 266.9 900.38 277.63 877.74 277.5 877.71 266.7 900.38 266.9" fill="#a7a9ac" opacity=".3"/>
  </g>
  <g id="desk-028">
    <polygon points="877.18 267.02 877.18 277.74 854.54 277.62 854.51 266.82 877.18 267.02" fill="#a7a9ac" opacity=".3"/>
  </g>
  <g id="desk-031">
    <polygon points="877.14 255.32 877.15 266.05 854.51 265.92 854.48 255.12 877.14 255.32" fill="#a7a9ac" opacity=".3"/>
  </g>
  <g id="desk-029">
    <polygon points="853.35 267.19 853.35 277.92 830.71 277.79 830.69 266.99 853.35 267.19" fill="#a7a9ac" opacity=".3"/>
  </g>
  <g id="desk-030">
    <polygon points="853.32 255.5 853.32 266.22 830.68 266.1 830.65 255.29 853.32 255.5" fill="#a7a9ac" opacity=".3"/>
  </g>
  <g id="desk-032">
    <polygon points="900.05 255.64 900.05 266.37 877.41 266.24 877.39 255.44 900.05 255.64" fill="#a7a9ac" opacity=".3"/>
  </g>
  <g id="desk-048">
    <polygon points="856.89 398.24 849.23 405.88 833.21 389.74 841 381.87 856.89 398.24" fill="#a7a9ac" opacity=".3"/>
  </g>
  <g id="desk-041">
    <polygon points="848.64 406.42 841.09 414.03 825.1 398.01 832.69 390.32 848.64 406.42" fill="#a7a9ac" opacity=".3"/>
  </g>
  <g id="desk-042">
    <polygon points="832.17 390.39 824.63 398.01 808.64 381.98 816.23 374.29 832.17 390.39" fill="#a7a9ac" opacity=".3"/>
  </g>
  <g id="desk-043">
    <polygon points="816.31 373.97 808.76 381.58 792.77 365.56 800.36 357.87 816.31 373.97" fill="#a7a9ac" opacity=".3"/>
  </g>
  <g id="desk-046">
    <polygon points="824.26 365.59 816.71 373.2 800.72 357.18 808.31 349.49 824.26 365.59" fill="#a7a9ac" opacity=".3"/>
  </g>
  <g id="desk-044">
    <polygon points="799.95 357.49 792.41 365.1 776.42 349.08 784.01 341.39 799.95 357.49" fill="#a7a9ac" opacity=".3"/>
  </g>
  <g id="desk-045">
    <polygon points="808.17 349.16 800.62 356.77 784.63 340.75 792.22 333.06 808.17 349.16" fill="#a7a9ac" opacity=".3"/>
  </g>
  <g id="desk-047">
    <polygon points="840.3 382.17 832.76 389.78 816.77 373.76 824.36 366.06 840.3 382.17" fill="#a7a9ac" opacity=".3"/>
  </g>
  <g id="desk-040">
    <polygon points="889.21 366.19 881.67 373.8 865.68 357.78 873.27 350.09 889.21 366.19" fill="#a7a9ac" opacity=".3"/>
  </g>
  <g id="desk-036">
    <polygon points="871.89 350.16 864.34 357.78 848.35 341.75 855.94 334.06 871.89 350.16" fill="#a7a9ac" opacity=".3"/>
  </g>
  <g id="desk-037">
    <polygon points="856.02 333.74 848.47 341.35 832.48 325.33 840.07 317.64 856.02 333.74" fill="#a7a9ac" opacity=".3"/>
  </g>
  <g id="desk-038">
    <polygon points="863.97 325.36 856.43 332.97 840.43 316.95 848.02 309.26 863.97 325.36" fill="#a7a9ac" opacity=".3"/>
  </g>
  <g id="desk-039">
    <polygon points="880.02 341.94 872.47 349.55 856.48 333.53 864.07 325.83 880.02 341.94" fill="#a7a9ac" opacity=".3"/>
  </g>
  <g id="desk-056">
    <polygon points="814.33 442 806.67 449.65 790.64 433.51 798.44 425.64 814.33 442" fill="#a7a9ac" opacity=".3"/>
  </g>
  <g id="desk-049">
    <polygon points="806.08 450.19 798.53 457.8 782.54 441.78 790.13 434.09 806.08 450.19" fill="#a7a9ac" opacity=".3"/>
  </g>
  <g id="desk-050">
    <polygon points="789.61 434.16 782.07 441.78 766.08 425.75 773.67 418.06 789.61 434.16" fill="#a7a9ac" opacity=".3"/>
  </g>
  <g id="desk-051">
    <polygon points="773.75 417.74 766.2 425.35 750.21 409.33 757.8 401.64 773.75 417.74" fill="#a7a9ac" opacity=".3"/>
  </g>
  <g id="desk-054">
    <polygon points="781.7 409.36 774.15 416.97 758.16 400.95 765.75 393.26 781.7 409.36" fill="#a7a9ac" opacity=".3"/>
  </g>
  <g id="desk-052">
    <polygon points="757.39 401.26 749.85 408.87 733.86 392.85 741.45 385.16 757.39 401.26" fill="#a7a9ac" opacity=".3"/>
  </g>
  <g id="desk-053">
    <polygon points="765.61 392.41 758.06 400.03 742.07 384 749.66 376.31 765.61 392.41" fill="#a7a9ac" opacity=".3"/>
  </g>
  <g id="desk-055">
    <polygon points="797.74 425.94 790.2 433.55 774.2 417.53 781.79 409.83 797.74 425.94" fill="#a7a9ac" opacity=".3"/>
  </g>
  <g id="desk-064">
    <polygon points="771.43 484.31 763.76 491.95 747.74 475.81 755.53 467.94 771.43 484.31" fill="#a7a9ac" opacity=".3"/>
  </g>
  <g id="desk-057">
    <polygon points="763.17 492.49 755.62 500.1 739.63 484.08 747.22 476.39 763.17 492.49" fill="#a7a9ac" opacity=".3"/>
  </g>
  <g id="desk-058">
    <polygon points="746.71 476.46 739.16 484.08 723.17 468.05 730.76 460.36 746.71 476.46" fill="#a7a9ac" opacity=".3"/>
  </g>
  <g id="desk-059">
    <polygon points="730.84 460.04 723.29 467.66 707.3 451.63 714.89 443.94 730.84 460.04" fill="#a7a9ac" opacity=".3"/>
  </g>
  <g id="desk-062">
    <polygon points="738.79 451.66 731.25 459.28 715.25 443.25 722.84 435.56 738.79 451.66" fill="#a7a9ac" opacity=".3"/>
  </g>
  <g id="desk-060">
    <polygon points="714.49 443.56 706.94 451.18 690.95 435.15 698.54 427.46 714.49 443.56" fill="#a7a9ac" opacity=".3"/>
  </g>
  <g id="desk-061">
    <polygon points="722.7 435.23 715.15 442.85 699.16 426.82 706.75 419.13 722.7 435.23" fill="#a7a9ac" opacity=".3"/>
  </g>
  <g id="desk-063">
    <polygon points="754.84 468.24 747.29 475.85 731.3 459.83 738.89 452.14 754.84 468.24" fill="#a7a9ac" opacity=".3"/>
  </g>
  <g id="desk-065">
    <polygon points="727.66 528.85 719.99 536.5 703.97 520.36 711.76 512.49 727.66 528.85" fill="#a7a9ac" opacity=".3"/>
  </g>
  <g id="desk-066">
    <polygon points="703.02 520.06 695.48 527.68 679.49 511.65 687.08 503.96 703.02 520.06" fill="#a7a9ac" opacity=".3"/>
  </g>
  <g id="desk-067">
    <polygon points="687.16 503.64 679.61 511.25 663.62 495.23 671.21 487.54 687.16 503.64" fill="#a7a9ac" opacity=".3"/>
  </g>
  <g id="desk-070">
    <polygon points="695.11 495.26 687.56 502.87 671.57 486.85 679.16 479.16 695.11 495.26" fill="#a7a9ac" opacity=".3"/>
  </g>
  <g id="desk-068">
    <polygon points="670.8 487.16 663.26 494.77 647.27 478.75 654.86 471.06 670.8 487.16" fill="#a7a9ac" opacity=".3"/>
  </g>
  <g id="desk-069">
    <polygon points="679.02 478.83 671.47 486.44 655.48 470.42 663.07 462.73 679.02 478.83" fill="#a7a9ac" opacity=".3"/>
  </g>
  <g id="desk-073">
    <polygon points="669.34 581.64 659.68 586.29 649.97 565.84 659.7 561.13 669.34 581.64" fill="#a7a9ac" opacity=".3"/>
  </g>
  <g id="desk-076">
    <polygon points="679.64 576.4 669.98 581.06 660.27 560.61 669.99 555.9 679.64 576.4" fill="#a7a9ac" opacity=".3"/>
  </g>
  <g id="desk-074">
    <polygon points="659.44 560.64 649.78 565.3 640.07 544.84 649.8 540.13 659.44 560.64" fill="#a7a9ac" opacity=".3"/>
  </g>
  <g id="desk-075">
    <polygon points="669.97 555.54 660.31 560.19 650.6 539.74 660.32 535.03 669.97 555.54" fill="#a7a9ac" opacity=".3"/>
  </g>
  <g id="desk-077">
    <polygon points="598.68 604.97 587.96 605.1 587.81 582.46 598.61 582.31 598.68 604.97" fill="#a7a9ac" opacity=".3"/>
  </g>
  <g id="desk-068-2" data-name="desk-068">
    <polygon points="610.23 604.58 599.51 604.71 599.36 582.07 610.16 581.92 610.23 604.58" fill="#a7a9ac" opacity=".3"/>
  </g>
  <g id="desk-078">
    <polygon points="598.59 581.76 587.87 581.89 587.72 559.25 598.52 559.09 598.59 581.76" fill="#a7a9ac" opacity=".3"/>
  </g>
  <g id="desk-083">
    <polygon points="610.29 581.58 599.57 581.71 599.42 559.08 610.22 558.92 610.29 581.58" fill="#a7a9ac" opacity=".3"/>
  </g>
  <g id="desk-079">
    <polygon points="598.34 558.7 587.62 558.83 587.47 536.19 598.27 536.04 598.34 558.7" fill="#a7a9ac" opacity=".3"/>
  </g>
  <g id="desk-082">
    <polygon points="609.88 558.31 599.16 558.44 599.01 535.8 609.82 535.64 609.88 558.31" fill="#a7a9ac" opacity=".3"/>
  </g>
  <g id="desk-080">
    <polygon points="598.25 535.48 587.53 535.61 587.37 512.98 598.18 512.82 598.25 535.48" fill="#a7a9ac" opacity=".3"/>
  </g>
  <g id="desk-081">
    <polygon points="609.94 535.31 599.22 535.44 599.07 512.8 609.87 512.65 609.94 535.31" fill="#a7a9ac" opacity=".3"/>
  </g>
  <g id="desk-085">
    <polygon points="539.37 604.8 528.65 604.93 528.5 582.29 539.31 582.14 539.37 604.8" fill="#a7a9ac" opacity=".3"/>
  </g>
  <g id="desk-092">
    <polygon points="550.92 604.41 540.2 604.54 540.05 581.9 550.85 581.75 550.92 604.41" fill="#a7a9ac" opacity=".3"/>
  </g>
  <g id="desk-086">
    <polygon points="539.28 581.58 528.56 581.72 528.41 559.08 539.21 558.92 539.28 581.58" fill="#a7a9ac" opacity=".3"/>
  </g>
  <g id="desk-091">
    <polygon points="550.98 581.41 540.26 581.54 540.11 558.9 550.91 558.75 550.98 581.41" fill="#a7a9ac" opacity=".3"/>
  </g>
  <g id="desk-087">
    <polygon points="539.03 558.53 528.31 558.66 528.16 536.02 538.96 535.86 539.03 558.53" fill="#a7a9ac" opacity=".3"/>
  </g>
  <g id="desk-090">
    <polygon points="550.58 558.13 539.85 558.27 539.7 535.63 550.51 535.47 550.58 558.13" fill="#a7a9ac" opacity=".3"/>
  </g>
  <g id="desk-088">
    <polygon points="538.94 535.31 528.22 535.44 528.07 512.8 538.87 512.65 538.94 535.31" fill="#a7a9ac" opacity=".3"/>
  </g>
  <g id="desk-089">
    <polygon points="550.63 535.14 539.91 535.27 539.76 512.63 550.56 512.47 550.63 535.14" fill="#a7a9ac" opacity=".3"/>
  </g>
  <g id="desk-093">
    <polygon points="480.76 604.28 470.03 604.41 469.88 581.77 480.69 581.62 480.76 604.28" fill="#a7a9ac" opacity=".3"/>
  </g>
  <g id="desk-100">
    <polygon points="492.3 603.89 481.58 604.02 481.43 581.38 492.23 581.23 492.3 603.89" fill="#a7a9ac" opacity=".3"/>
  </g>
  <g id="desk-094">
    <polygon points="480.66 581.06 469.94 581.2 469.79 558.56 480.6 558.4 480.66 581.06" fill="#a7a9ac" opacity=".3"/>
  </g>
  <g id="desk-099">
    <polygon points="492.36 580.89 481.64 581.02 481.49 558.38 492.29 558.23 492.36 580.89" fill="#a7a9ac" opacity=".3"/>
  </g>
  <g id="desk-095">
    <polygon points="480.41 558.01 469.69 558.14 469.54 535.5 480.34 535.35 480.41 558.01" fill="#a7a9ac" opacity=".3"/>
  </g>
  <g id="desk-098">
    <polygon points="491.96 557.62 481.24 557.75 481.08 535.11 491.89 534.95 491.96 557.62" fill="#a7a9ac" opacity=".3"/>
  </g>
  <g id="desk-096">
    <polygon points="480.32 534.79 469.6 534.92 469.45 512.29 480.25 512.13 480.32 534.79" fill="#a7a9ac" opacity=".3"/>
  </g>
  <g id="desk-097">
    <polygon points="492.01 534.62 481.29 534.75 481.14 512.11 491.95 511.96 492.01 534.62" fill="#a7a9ac" opacity=".3"/>
  </g>
  <g id="desk-101">
    <polygon points="420.87 603.75 410.15 603.63 410.51 581 421.32 581.09 420.87 603.75" fill="#a7a9ac" opacity=".3"/>
  </g>
  <g id="desk-108">
    <polygon points="432.42 603.62 421.7 603.51 422.07 580.87 432.87 580.96 432.42 603.62" fill="#a7a9ac" opacity=".3"/>
  </g>
  <g id="desk-102">
    <polygon points="421.31 580.53 410.59 580.42 410.96 557.78 421.76 557.88 421.31 580.53" fill="#a7a9ac" opacity=".3"/>
  </g>
  <g id="desk-107">
    <polygon points="433.01 580.63 422.28 580.52 422.65 557.88 433.46 557.97 433.01 580.63" fill="#a7a9ac" opacity=".3"/>
  </g>
  <g id="desk-103">
    <polygon points="421.58 557.48 410.86 557.36 411.23 534.73 422.04 534.82 421.58 557.48" fill="#a7a9ac" opacity=".3"/>
  </g>
  <g id="desk-106">
    <polygon points="433.14 557.35 422.42 557.24 422.78 534.6 433.59 534.69 433.14 557.35" fill="#a7a9ac" opacity=".3"/>
  </g>
  <g id="desk-104">
    <polygon points="422.03 534.26 411.31 534.15 411.67 511.51 422.48 511.61 422.03 534.26" fill="#a7a9ac" opacity=".3"/>
  </g>
  <g id="desk-105">
    <polygon points="433.72 534.36 423 534.25 423.37 511.61 434.18 511.7 433.72 534.36" fill="#a7a9ac" opacity=".3"/>
  </g>
  <g id="desk-109">
    <polygon points="361.79 603.85 351.07 603.89 351.11 581.25 361.91 581.18 361.79 603.85" fill="#a7a9ac" opacity=".3"/>
  </g>
  <g id="desk-116">
    <polygon points="373.34 603.55 362.61 603.59 362.66 580.95 373.46 580.89 373.34 603.55" fill="#a7a9ac" opacity=".3"/>
  </g>
  <g id="desk-110">
    <polygon points="361.9 580.63 351.18 580.67 351.22 558.03 362.02 557.97 361.9 580.63" fill="#a7a9ac" opacity=".3"/>
  </g>
  <g id="desk-115">
    <polygon points="373.59 580.56 362.87 580.6 362.92 557.96 373.72 557.9 373.59 580.56" fill="#a7a9ac" opacity=".3"/>
  </g>
  <g id="desk-111">
    <polygon points="361.84 557.57 351.12 557.61 351.16 534.97 361.97 534.91 361.84 557.57" fill="#a7a9ac" opacity=".3"/>
  </g>
  <g id="desk-114">
    <polygon points="373.39 557.28 362.67 557.32 362.71 534.68 373.52 534.62 373.39 557.28" fill="#a7a9ac" opacity=".3"/>
  </g>
  <g id="desk-112">
    <polygon points="361.95 534.36 351.23 534.39 351.27 511.76 362.08 511.69 361.95 534.36" fill="#a7a9ac" opacity=".3"/>
  </g>
  <g id="desk-113">
    <polygon points="373.65 534.28 362.93 534.32 362.97 511.68 373.78 511.62 373.65 534.28" fill="#a7a9ac" opacity=".3"/>
  </g>
  <g id="desk-121">
    <polygon points="245.88 531.94 238.29 524.37 254.38 508.44 262.04 516.06 245.88 531.94" fill="#a7a9ac" opacity=".3"/>
  </g>
  <g id="desk-128">
    <polygon points="254.23 539.93 246.64 532.35 262.73 516.42 270.39 524.04 254.23 539.93" fill="#a7a9ac" opacity=".3"/>
  </g>
  <g id="desk-122">
    <polygon points="262.42 515.66 254.84 508.08 270.92 492.15 278.58 499.77 262.42 515.66" fill="#a7a9ac" opacity=".3"/>
  </g>
  <g id="desk-127">
    <polygon points="270.72 523.9 263.13 516.32 279.22 500.39 286.88 508.01 270.72 523.9" fill="#a7a9ac" opacity=".3"/>
  </g>
  <g id="desk-123">
    <polygon points="278.74 499.36 271.15 491.78 287.24 475.85 294.9 483.47 278.74 499.36" fill="#a7a9ac" opacity=".3"/>
  </g>
  <g id="desk-126">
    <polygon points="287.09 507.35 279.5 499.77 295.59 483.84 303.25 491.46 287.09 507.35" fill="#a7a9ac" opacity=".3"/>
  </g>
  <g id="desk-124">
    <polygon points="295.28 483.07 287.69 475.5 303.78 459.57 311.44 467.19 295.28 483.07" fill="#a7a9ac" opacity=".3"/>
  </g>
  <g id="desk-125">
    <polygon points="303.58 491.32 295.99 483.74 312.08 467.81 319.74 475.43 303.58 491.32" fill="#a7a9ac" opacity=".3"/>
  </g>
  <g id="desk-129">
    <polygon points="205.99 491.37 198.41 483.79 214.5 467.86 222.16 475.48 205.99 491.37" fill="#a7a9ac" opacity=".3"/>
  </g>
  <g id="desk-136">
    <polygon points="214.34 499.35 206.76 491.78 222.84 475.85 230.51 483.47 214.34 499.35" fill="#a7a9ac" opacity=".3"/>
  </g>
  <g id="desk-130">
    <polygon points="222.54 475.08 214.95 467.5 231.04 451.57 238.7 459.19 222.54 475.08" fill="#a7a9ac" opacity=".3"/>
  </g>
  <g id="desk-135">
    <polygon points="230.83 483.32 223.25 475.75 239.34 459.82 247 467.44 230.83 483.32" fill="#a7a9ac" opacity=".3"/>
  </g>
  <g id="desk-131">
    <polygon points="238.85 458.78 231.27 451.21 247.35 435.28 255.01 442.9 238.85 458.78" fill="#a7a9ac" opacity=".3"/>
  </g>
  <g id="desk-134">
    <polygon points="247.2 466.77 239.61 459.19 255.7 443.26 263.36 450.88 247.2 466.77" fill="#a7a9ac" opacity=".3"/>
  </g>
  <g id="desk-132">
    <polygon points="255.4 442.5 247.81 434.92 263.9 418.99 271.56 426.61 255.4 442.5" fill="#a7a9ac" opacity=".3"/>
  </g>
  <g id="desk-133">
    <polygon points="263.69 450.74 256.11 443.16 272.19 427.24 279.86 434.85 263.69 450.74" fill="#a7a9ac" opacity=".3"/>
  </g>
  <g id="desk-137">
    <polygon points="165.94 451.74 158.35 444.17 174.44 428.24 182.1 435.86 165.94 451.74" fill="#a7a9ac" opacity=".3"/>
  </g>
  <g id="desk-144">
    <polygon points="174.29 459.73 166.7 452.15 182.79 436.22 190.45 443.84 174.29 459.73" fill="#a7a9ac" opacity=".3"/>
  </g>
  <g id="desk-138">
    <polygon points="182.48 435.45 174.89 427.88 190.98 411.95 198.64 419.57 182.48 435.45" fill="#a7a9ac" opacity=".3"/>
  </g>
  <g id="desk-143">
    <polygon points="190.78 443.7 183.19 436.12 199.28 420.19 206.94 427.81 190.78 443.7" fill="#a7a9ac" opacity=".3"/>
  </g>
  <g id="desk-139">
    <polygon points="198.8 419.16 191.21 411.58 207.3 395.65 214.96 403.27 198.8 419.16" fill="#a7a9ac" opacity=".3"/>
  </g>
  <g id="desk-142">
    <polygon points="207.14 427.14 199.56 419.57 215.64 403.64 223.31 411.26 207.14 427.14" fill="#a7a9ac" opacity=".3"/>
  </g>
  <g id="desk-140">
    <polygon points="215.34 402.87 207.75 395.29 223.84 379.37 231.5 386.98 215.34 402.87" fill="#a7a9ac" opacity=".3"/>
  </g>
  <g id="desk-141">
    <polygon points="223.64 411.11 216.05 403.54 232.14 387.61 239.8 395.23 223.64 411.11" fill="#a7a9ac" opacity=".3"/>
  </g>
  <g id="desk-145">
    <polygon points="124.69 410.67 117.06 403.14 133.05 387.12 140.76 394.69 124.69 410.67" fill="#a7a9ac" opacity=".3"/>
  </g>
  <g id="desk-152">
    <polygon points="133.09 418.61 125.46 411.08 141.45 395.05 149.15 402.63 133.09 418.61" fill="#a7a9ac" opacity=".3"/>
  </g>
  <g id="desk-146">
    <polygon points="141.14 394.29 133.5 386.76 149.5 370.73 157.2 378.3 141.14 394.29" fill="#a7a9ac" opacity=".3"/>
  </g>
  <g id="desk-151">
    <polygon points="149.48 402.48 141.85 394.95 157.84 378.93 165.55 386.5 149.48 402.48" fill="#a7a9ac" opacity=".3"/>
  </g>
  <g id="desk-147">
    <polygon points="157.35 377.89 149.72 370.36 165.71 354.34 173.42 361.91 157.35 377.89" fill="#a7a9ac" opacity=".3"/>
  </g>
  <g id="desk-150">
    <polygon points="165.75 385.83 158.12 378.3 174.11 362.27 181.82 369.85 165.75 385.83" fill="#a7a9ac" opacity=".3"/>
  </g>
  <g id="desk-148">
    <polygon points="173.8 361.51 166.17 353.98 182.16 337.95 189.87 345.53 173.8 361.51" fill="#a7a9ac" opacity=".3"/>
  </g>
  <g id="desk-149">
    <polygon points="182.15 369.7 174.51 362.17 190.51 346.15 198.21 353.72 182.15 369.7" fill="#a7a9ac" opacity=".3"/>
  </g>
  <g id="desk-153">
    <polygon points="79.89 365.61 72.25 358.08 88.25 342.05 95.95 349.63 79.89 365.61" fill="#a7a9ac" opacity=".3"/>
  </g>
  <g id="desk-158">
    <polygon points="88.28 373.54 80.65 366.01 96.64 349.99 104.35 357.56 88.28 373.54" fill="#a7a9ac" opacity=".3"/>
  </g>
  <g id="desk-154">
    <polygon points="96.33 349.22 88.7 341.69 104.69 325.67 112.4 333.24 96.33 349.22" fill="#a7a9ac" opacity=".3"/>
  </g>
  <g id="desk-157">
    <polygon points="104.68 357.42 97.05 349.89 113.04 333.86 120.74 341.43 104.68 357.42" fill="#a7a9ac" opacity=".3"/>
  </g>
  <g id="desk-155">
    <polygon points="112.55 332.83 104.92 325.3 120.91 309.27 128.61 316.85 112.55 332.83" fill="#a7a9ac" opacity=".3"/>
  </g>
  <g id="desk-156">
    <polygon points="120.94 340.77 113.31 333.23 129.3 317.21 137.01 324.78 120.94 340.77" fill="#a7a9ac" opacity=".3"/>
  </g>
  <g id="desk-160">
    <polygon points="36.02 265.82 35.98 255.1 58.62 255.14 58.69 265.95 36.02 265.82" fill="#a7a9ac" opacity=".3"/>
  </g>
  <g id="desk-167">
    <polygon points="36.32 277.37 36.28 266.65 58.91 266.69 58.98 277.5 36.32 277.37" fill="#a7a9ac" opacity=".3"/>
  </g>
  <g id="desk-161">
    <polygon points="59.24 265.93 59.2 255.21 81.84 255.25 81.9 266.05 59.24 265.93" fill="#a7a9ac" opacity=".3"/>
  </g>
  <g id="desk-166">
    <polygon points="59.31 277.63 59.27 266.9 81.91 266.95 81.98 277.75 59.31 277.63" fill="#a7a9ac" opacity=".3"/>
  </g>
  <g id="desk-162">
    <polygon points="82.3 265.87 82.26 255.15 104.9 255.19 104.96 265.99 82.3 265.87" fill="#a7a9ac" opacity=".3"/>
  </g>
  <g id="desk-165">
    <polygon points="82.59 277.42 82.55 266.7 105.19 266.74 105.25 277.54 82.59 277.42" fill="#a7a9ac" opacity=".3"/>
  </g>
  <g id="desk-169">
    <polygon points="77.92 171.76 85.39 164.07 101.55 179.93 94.04 187.7 77.92 171.76" fill="#a7a9ac" opacity=".3"/>
  </g>
  <g id="desk-174">
    <polygon points="70.06 180.22 77.52 172.53 93.68 188.39 86.17 196.16 70.06 180.22" fill="#a7a9ac" opacity=".3"/>
  </g>
  <g id="desk-170">
    <polygon points="94.44 188.07 101.91 180.38 118.07 196.24 110.55 204.01 94.44 188.07" fill="#a7a9ac" opacity=".3"/>
  </g>
  <g id="desk-173">
    <polygon points="88.73 198.21 96.2 190.52 112.36 206.38 104.85 214.15 88.73 198.21" fill="#a7a9ac" opacity=".3"/>
  </g>
  <g id="desk-171">
    <polygon points="110.97 204.15 118.43 196.46 134.59 212.32 127.08 220.09 110.97 204.15" fill="#a7a9ac" opacity=".3"/>
  </g>
  <g id="desk-172">
    <polygon points="103.1 212.61 110.57 204.92 126.72 220.78 119.21 228.55 103.1 212.61" fill="#a7a9ac" opacity=".3"/>
  </g>
  <g id="desk-175">
    <polygon points="121 129.37 128.47 121.68 144.62 137.54 137.11 145.31 121 129.37" fill="#a7a9ac" opacity=".3"/>
  </g>
  <g id="desk-180">
    <polygon points="113.14 137.83 120.6 130.14 136.76 146 129.25 153.77 113.14 137.83" fill="#a7a9ac" opacity=".3"/>
  </g>
  <g id="desk-176">
    <polygon points="137.52 145.68 144.99 137.99 161.14 153.85 153.63 161.62 137.52 145.68" fill="#a7a9ac" opacity=".3"/>
  </g>
  <g id="desk-179">
    <polygon points="129.4 154.09 136.86 146.4 153.02 162.26 145.51 170.03 129.4 154.09" fill="#a7a9ac" opacity=".3"/>
  </g>
  <g id="desk-177">
    <polygon points="154.05 161.77 161.51 154.07 177.67 169.93 170.16 177.7 154.05 161.77" fill="#a7a9ac" opacity=".3"/>
  </g>
  <g id="desk-178">
    <polygon points="146.18 170.23 153.65 162.53 169.8 178.39 162.29 186.16 146.18 170.23" fill="#a7a9ac" opacity=".3"/>
  </g>
  <g id="desk-181">
    <polygon points="162.53 88.45 170 80.76 186.15 96.62 178.64 104.39 162.53 88.45" fill="#a7a9ac" opacity=".3"/>
  </g>
  <g id="desk-186">
    <polygon points="154.66 96.91 162.13 89.22 178.28 105.08 170.77 112.85 154.66 96.91" fill="#a7a9ac" opacity=".3"/>
  </g>
  <g id="desk-182">
    <polygon points="179.05 104.76 186.52 97.07 202.67 112.93 195.16 120.7 179.05 104.76" fill="#a7a9ac" opacity=".3"/>
  </g>
  <g id="desk-185">
    <polygon points="170.92 113.17 178.39 105.48 194.54 121.34 187.03 129.11 170.92 113.17" fill="#a7a9ac" opacity=".3"/>
  </g>
  <g id="desk-183">
    <polygon points="195.57 120.84 203.04 113.15 219.19 129.01 211.68 136.78 195.57 120.84" fill="#a7a9ac" opacity=".3"/>
  </g>
  <g id="desk-184">
    <polygon points="187.7 129.31 195.17 121.61 211.33 137.47 203.82 145.24 187.7 129.31" fill="#a7a9ac" opacity=".3"/>
  </g>
  <g id="desk-187">
    <polygon points="220.44 34.33 230.77 31.48 236.68 53.34 226.27 56.24 220.44 34.33" fill="#a7a9ac" opacity=".3"/>
  </g>
  <g id="desk-192">
    <polygon points="209.37 37.65 219.71 34.8 225.61 56.65 215.2 59.55 209.37 37.65" fill="#a7a9ac" opacity=".3"/>
  </g>
  <g id="desk-188">
    <polygon points="226.43 56.77 236.76 53.91 242.67 75.77 232.26 78.67 226.43 56.77" fill="#a7a9ac" opacity=".3"/>
  </g>
  <g id="desk-191">
    <polygon points="215.16 59.91 225.5 57.05 231.4 78.91 220.99 81.81 215.16 59.91" fill="#a7a9ac" opacity=".3"/>
  </g>
  <g id="desk-189">
    <polygon points="232.54 79 242.87 76.15 248.77 98 238.36 100.9 232.54 79" fill="#a7a9ac" opacity=".3"/>
  </g>
  <g id="desk-190">
    <polygon points="221.47 82.31 231.8 79.46 237.71 101.32 227.3 104.21 221.47 82.31" fill="#a7a9ac" opacity=".3"/>
  </g>
  <g id="desk-163">
    <polygon points="104.83 265.78 104.79 255.06 127.43 255.1 127.49 265.91 104.83 265.78" fill="#a7a9ac" opacity=".3"/>
  </g>
  <g id="desk-164">
    <polygon points="105.12 277.33 105.08 266.61 127.72 266.65 127.79 277.46 105.12 277.33" fill="#a7a9ac" opacity=".3"/>
  </g>
  <g id="desk-071">
    <polygon points="711.15 511.83 703.61 519.45 687.61 503.42 695.2 495.73 711.15 511.83" fill="#a7a9ac" opacity=".3"/>
  </g>
  <g id="desk-025bB">
    <polygon points="895.8 213.99 915.57 206.83 919.19 216.06 898.99 223.49 895.8 213.99" fill="#a7a9ac" opacity=".3"/>
  </g>
  <g id="desk-025A">
    <polygon points="899.08 223.92 918.85 216.76 922.47 225.99 902.27 233.42 899.08 223.92" fill="#a7a9ac" opacity=".3"/>
  </g>
  <g id="desk-034B">
    <polygon points="904.15 301.54 923.66 309.38 920.2 318.68 900.19 310.75 904.15 301.54" fill="#a7a9ac" opacity=".3"/>
  </g>
  <g id="desk-034A">
    <polygon points="899.97 311.13 919.48 318.97 916.03 328.27 896.02 320.33 899.97 311.13" fill="#a7a9ac" opacity=".3"/>
  </g>
  <g id="desk-159A">
    <polygon points="43.11 311.37 62.27 302.22 66.42 311.12 47.42 320.18 43.11 311.37" fill="#a7a9ac" opacity=".3"/>
  </g>
  <g id="desk-159B">
    <polygon points="47.94 320.96 67.11 311.81 71.25 320.7 52.26 329.76 47.94 320.96" fill="#a7a9ac" opacity=".3"/>
  </g>
  <g id="desk-168A">
    <polygon points="52.15 203.36 70.55 213.97 65.57 222.42 47.34 211.91 52.15 203.36" fill="#a7a9ac" opacity=".3"/>
  </g>
  <g id="desk-168B">
    <polygon points="46.99 212.78 65.39 223.38 60.41 231.84 42.18 221.32 46.99 212.78" fill="#a7a9ac" opacity=".3"/>
  </g>
</svg>