<?xml version="1.0" encoding="UTF-8"?>
<svg id="Layer_2" data-name="Layer 2" xmlns="http://www.w3.org/2000/svg" viewBox="0 0 935 620">
  <g id="desk-012">
    <polygon points="783.4 73.88 767.17 89.42 775.11 97.53 790.65 81.13 783.4 73.88" fill="#939598" opacity=".3"/>
  </g>
  <g id="desk-011">
    <polygon points="766.99 90.28 750.76 105.82 758.71 113.94 774.24 97.53 766.99 90.28" fill="#939598" opacity=".3"/>
  </g>
  <g id="desk-010">
    <polygon points="750.94 106.17 734.71 121.71 742.65 129.82 758.19 113.42 750.94 106.17" fill="#939598" opacity=".3"/>
  </g>
  <g id="desk-007">
    <polygon points="791.86 81.99 775.63 97.53 783.57 105.65 799.11 89.24 791.86 81.99" fill="#939598" opacity=".3"/>
  </g>
  <g id="desk-008">
    <polygon points="775.45 98.4 759.22 113.94 767.17 122.05 782.71 105.65 775.45 98.4" fill="#939598" opacity=".3"/>
  </g>
  <g id="desk-009">
    <polygon points="759.05 115.14 742.82 130.68 750.76 138.8 766.3 122.4 759.05 115.14" fill="#939598" opacity=".3"/>
  </g>
  <g id="desk-005">
    <polygon points="720.22 46.91 713.75 68.43 724.66 71.58 730.11 49.65 720.22 46.91" fill="#939598" opacity=".3"/>
  </g>
  <g id="desk-004">
    <polygon points="714.07 68.64 707.6 90.16 718.51 93.31 723.96 71.38 714.07 68.64" fill="#939598" opacity=".3"/>
  </g>
  <g id="desk-006">
    <polygon points="736.92 26.42 730.45 47.93 741.36 51.09 746.8 29.16 736.92 26.42" fill="#939598" opacity=".3"/>
  </g>
  <g id="desk-002">
    <polygon points="731.58 49.81 725.11 71.32 736.02 74.48 741.47 52.55 731.58 49.81" fill="#939598" opacity=".3"/>
  </g>
  <g id="desk-003">
    <polygon points="725.56 72.46 719.08 93.98 729.99 97.13 735.44 75.2 725.56 72.46" fill="#939598" opacity=".3"/>
  </g>
  <g id="desk-018">
    <polygon points="826.04 114.63 809.81 130.17 817.76 138.28 833.29 121.88 826.04 114.63" fill="#939598" opacity=".3"/>
  </g>
  <g id="desk017">
    <polygon points="809.64 131.03 793.41 146.57 801.35 154.68 816.89 138.28 809.64 131.03" fill="#939598" opacity=".3"/>
  </g>
  <g id="desk-016">
    <polygon points="793.58 146.91 777.35 162.45 785.29 170.57 800.83 154.17 793.58 146.91" fill="#939598" opacity=".3"/>
  </g>
  <g id="desk-013">
    <polygon points="834.5 122.74 818.27 138.28 826.22 146.4 841.76 129.99 834.5 122.74" fill="#939598" opacity=".3"/>
  </g>
  <g id="desk-014">
    <polygon points="818.1 139.14 801.87 154.68 809.81 162.8 825.35 146.4 818.1 139.14" fill="#939598" opacity=".3"/>
  </g>
  <g id="desk-015">
    <polygon points="801.7 154.89 785.47 170.43 793.41 178.55 808.95 162.14 801.7 154.89" fill="#939598" opacity=".3"/>
  </g>
  <g id="desk-024">
    <polygon points="866.27 154.34 850.04 169.88 857.99 177.99 873.53 161.59 866.27 154.34" fill="#939598" opacity=".3"/>
  </g>
  <g id="desk-023">
    <polygon points="849.87 170.74 833.64 186.28 841.58 194.4 857.12 177.99 849.87 170.74" fill="#939598" opacity=".3"/>
  </g>
  <g id="desk-022">
    <polygon points="833.81 186.63 817.58 202.17 825.53 210.28 841.06 193.88 833.81 186.63" fill="#939598" opacity=".3"/>
  </g>
  <g id="desk-019">
    <polygon points="874.73 162.45 858.5 177.99 866.45 186.11 881.99 169.71 874.73 162.45" fill="#939598" opacity=".3"/>
  </g>
  <g id="desk-020">
    <polygon points="858.33 178.86 842.1 194.4 850.04 202.51 865.58 186.11 858.33 178.86" fill="#939598" opacity=".3"/>
  </g>
  <g id="desk-021">
    <polygon points="841.93 195.6 825.7 211.14 833.64 219.26 849.18 202.86 841.93 195.6" fill="#939598" opacity=".3"/>
  </g>
  <g id="desk-033">
    <polygon points="911.05 243.4 888.59 242.77 888.4 254.13 910.99 253.65 911.05 243.4" fill="#939598" opacity=".3"/>
  </g>
  <g id="desk-032">
    <polygon points="887.86 243.26 865.4 242.63 865.21 253.99 887.8 253.51 887.86 243.26" fill="#939598" opacity=".3"/>
  </g>
  <g id="desk-031">
    <polygon points="865.27 243 842.81 242.38 842.62 253.73 865.21 253.25 865.27 243" fill="#939598" opacity=".3"/>
  </g>
  <g id="desk-026">
    <polygon points="911.23 255.12 888.77 254.5 888.58 265.85 911.17 265.38 911.23 255.12" fill="#939598" opacity=".3"/>
  </g>
  <g id="desj-025B">
    <polygon points="902.04 193.57 880.85 201.03 884.74 211.7 905.66 203.17 902.04 193.57" fill="#939598" opacity=".3"/>
  </g>
  <g id="desk-025A">
    <polygon points="906.4 204.45 885.21 211.91 889.1 222.58 910.02 214.05 906.4 204.45" fill="#939598" opacity=".3"/>
  </g>
  <g id="desk-027">
    <polygon points="888.03 254.98 865.57 254.36 865.38 265.71 887.97 265.24 888.03 254.98" fill="#939598" opacity=".3"/>
  </g>
  <g id="desk-028">
    <polygon points="864.59 255.08 842.13 254.46 841.94 265.81 864.53 265.34 864.59 255.08" fill="#939598" opacity=".3"/>
  </g>
  <g id="desk-030">
    <polygon points="841.96 243.86 819.5 243.24 819.31 254.59 841.9 254.12 841.96 243.86" fill="#939598" opacity=".3"/>
  </g>
  <g id="desk-029">
    <polygon points="841.28 255.95 818.82 255.32 818.63 266.67 841.22 266.2 841.28 255.95" fill="#939598" opacity=".3"/>
  </g>
  <g id="desk-040">
    <polygon points="884.93 346.72 869.7 330.19 861.43 337.98 877.54 353.83 884.93 346.72" fill="#939598" opacity=".3"/>
  </g>
  <g id="desk-039">
    <polygon points="868.84 330 853.61 313.48 845.35 321.26 861.45 337.11 868.84 330" fill="#939598" opacity=".3"/>
  </g>
  <g id="desk-038">
    <polygon points="853.27 313.64 838.04 297.12 829.77 304.9 845.88 320.75 853.27 313.64" fill="#939598" opacity=".3"/>
  </g>
  <g id="desk-035">
    <polygon points="876.65 355.02 861.42 338.49 853.16 346.28 869.26 362.13 876.65 355.02" fill="#939598" opacity=".3"/>
  </g>
  <g id="desk-036">
    <polygon points="860.56 338.31 845.34 321.78 837.07 329.57 853.18 345.42 860.56 338.31" fill="#939598" opacity=".3"/>
  </g>
  <g id="desk-037">
    <polygon points="844.13 321.59 828.91 305.06 820.64 312.85 836.74 328.7 844.13 321.59" fill="#939598" opacity=".3"/>
  </g>
  <g id="desk-034B">
    <polygon points="910.65 296.03 889.81 287.63 885.68 298.21 907.02 305.63 910.65 296.03" fill="#939598" opacity=".3"/>
  </g>
  <g id="desk-034A">
    <polygon points="907.37 306.42 886.32 298.54 882.46 309.22 903.98 316.1 907.37 306.42" fill="#939598" opacity=".3"/>
  </g>
  <g id="desk-048">
    <polygon points="844.01 387.46 828.78 370.94 820.51 378.72 836.62 394.58 844.01 387.46" fill="#939598" opacity=".3"/>
  </g>
  <g id="desk-047">
    <polygon points="827.92 370.75 812.69 354.23 804.43 362.01 820.53 377.86 827.92 370.75" fill="#939598" opacity=".3"/>
  </g>
  <g id="desk-046">
    <polygon points="812.34 354.39 797.12 337.87 788.85 345.65 804.96 361.5 812.34 354.39" fill="#939598" opacity=".3"/>
  </g>
  <g id="desk-041">
    <polygon points="835.73 395.77 820.5 379.24 812.24 387.03 828.34 402.88 835.73 395.77" fill="#939598" opacity=".3"/>
  </g>
  <g id="desk-042">
    <polygon points="819.64 379.05 804.42 362.53 796.15 370.31 812.25 386.17 819.64 379.05" fill="#939598" opacity=".3"/>
  </g>
  <g id="desk-043">
    <polygon points="803.21 362.33 787.99 345.81 779.72 353.59 795.82 369.44 803.21 362.33" fill="#939598" opacity=".3"/>
  </g>
  <g id="desk-045">
    <polygon points="795.46 338.3 780.23 321.77 771.97 329.56 788.07 345.41 795.46 338.3" fill="#939598" opacity=".3"/>
  </g>
  <g id="desk-044">
    <polygon points="786.33 346.24 771.1 329.71 762.84 337.5 778.94 353.35 786.33 346.24" fill="#939598" opacity=".3"/>
  </g>
  <g id="desk-056">
    <polygon points="802.39 430.8 787.17 414.28 778.9 422.06 795 437.91 802.39 430.8" fill="#939598" opacity=".3"/>
  </g>
  <g id="desk-055">
    <polygon points="786.31 414.09 771.08 397.56 762.82 405.35 778.92 421.2 786.31 414.09" fill="#939598" opacity=".3"/>
  </g>
  <g id="desk-054">
    <polygon points="770.73 397.73 755.51 381.2 747.24 388.99 763.34 404.84 770.73 397.73" fill="#939598" opacity=".3"/>
  </g>
  <g id="desk-049">
    <polygon points="794.12 439.11 778.89 422.58 770.63 430.37 786.73 446.22 794.12 439.11" fill="#939598" opacity=".3"/>
  </g>
  <g id="desk-050">
    <polygon points="778.03 422.39 762.81 405.87 754.54 413.65 770.64 429.5 778.03 422.39" fill="#939598" opacity=".3"/>
  </g>
  <g id="desk-051">
    <polygon points="761.6 405.67 746.37 389.15 738.11 396.93 754.21 412.78 761.6 405.67" fill="#939598" opacity=".3"/>
  </g>
  <g id="desk-053">
    <polygon points="753.85 381.64 738.62 365.11 730.36 372.9 746.46 388.75 753.85 381.64" fill="#939598" opacity=".3"/>
  </g>
  <g id="desk-052">
    <polygon points="744.72 389.58 729.49 373.05 721.23 380.84 737.33 396.69 744.72 389.58" fill="#939598" opacity=".3"/>
  </g>
  <g id="desk-063">
    <polygon points="741.76 456.74 726.53 440.21 718.27 448 734.37 463.85 741.76 456.74" fill="#939598" opacity=".3"/>
  </g>
  <g id="desk-062">
    <polygon points="726.19 440.38 710.96 423.85 702.69 431.64 718.8 447.49 726.19 440.38" fill="#939598" opacity=".3"/>
  </g>
  <g id="desk-064">
    <polygon points="751.13 481.58 735.9 465.06 727.63 472.84 743.74 488.69 751.13 481.58" fill="#939598" opacity=".3"/>
  </g>
  <g id="desk-058">
    <polygon points="733.49 465.04 718.26 448.51 709.99 456.3 726.1 472.15 733.49 465.04" fill="#939598" opacity=".3"/>
  </g>
  <g id="desk-059">
    <polygon points="717.05 448.32 701.83 431.79 693.56 439.58 709.66 455.43 717.05 448.32" fill="#939598" opacity=".3"/>
  </g>
  <g id="desk-061">
    <polygon points="709.3 424.28 694.08 407.76 685.81 415.54 701.91 431.39 709.3 424.28" fill="#939598" opacity=".3"/>
  </g>
  <g id="desk-060">
    <polygon points="700.17 432.22 684.94 415.7 676.68 423.49 692.78 439.34 700.17 432.22" fill="#939598" opacity=".3"/>
  </g>
  <g id="desk-071">
    <polygon points="697.9 500.94 682.68 484.41 674.41 492.2 690.52 508.05 697.9 500.94" fill="#939598" opacity=".3"/>
  </g>
  <g id="desk-070">
    <polygon points="682.33 484.58 667.1 468.05 658.84 475.84 674.94 491.69 682.33 484.58" fill="#939598" opacity=".3"/>
  </g>
  <g id="desk-065">
    <polygon points="707.27 525.78 692.04 509.26 683.78 517.04 699.88 532.89 707.27 525.78" fill="#939598" opacity=".3"/>
  </g>
  <g id="desk-072">
    <polygon points="714.52 517.15 699.29 500.62 691.03 508.41 707.13 524.26 714.52 517.15" fill="#939598" opacity=".3"/>
  </g>
  <g id="desk-066">
    <polygon points="689.63 509.24 674.4 492.72 666.14 500.5 682.24 516.35 689.63 509.24" fill="#939598" opacity=".3"/>
  </g>
  <g id="desk-067">
    <polygon points="673.2 492.52 657.97 476 649.71 483.78 665.81 499.63 673.2 492.52" fill="#939598" opacity=".3"/>
  </g>
  <g id="desk-069">
    <polygon points="665.45 468.48 650.22 451.96 641.95 459.75 658.06 475.6 665.45 468.48" fill="#939598" opacity=".3"/>
  </g>
  <g id="desk-068">
    <polygon points="656.31 476.43 641.09 459.9 632.82 467.69 648.93 483.54 656.31 476.43" fill="#939598" opacity=".3"/>
  </g>
  <g id="desk-083">
    <polygon points="596.98 570.61 597.81 548.15 586.46 547.86 586.72 570.45 596.98 570.61" fill="#939598" opacity=".3"/>
  </g>
  <g id="desk-082">
    <polygon points="597.44 548.02 598.27 525.57 586.92 525.28 587.19 547.87 597.44 548.02" fill="#939598" opacity=".3"/>
  </g>
  <g id="desk-077">
    <polygon points="586.13 594.84 586.96 572.38 575.61 572.09 575.87 594.68 586.13 594.84" fill="#939598" opacity=".3"/>
  </g>
  <g id="desk-084">
    <polygon points="597.36 593.82 598.19 571.36 586.83 571.07 587.1 593.66 597.36 593.82" fill="#939598" opacity=".3"/>
  </g>
  <g id="desk-075">
    <polygon points="654.25 547.85 646.02 526.94 635.5 531.21 644.79 551.81 654.25 547.85" fill="#939598" opacity=".3"/>
  </g>
  <g id="desk-074">
    <polygon points="644.41 552.34 636.18 531.43 625.66 535.7 634.95 556.3 644.41 552.34" fill="#939598" opacity=".3"/>
  </g>
  <g id="desk-073">
    <polygon points="664.26 569.08 656.03 548.18 645.51 552.45 654.81 573.05 664.26 569.08" fill="#939598" opacity=".3"/>
  </g>
  <g id="desk-078">
    <polygon points="585.26 570.67 586.08 548.22 574.73 547.92 575 570.52 585.26 570.67" fill="#939598" opacity=".3"/>
  </g>
  <g id="desk-079">
    <polygon points="585.37 547.23 586.19 524.78 574.84 524.48 575.11 547.08 585.37 547.23" fill="#939598" opacity=".3"/>
  </g>
  <g id="desk-081">
    <polygon points="596.79 524.71 597.62 502.25 586.27 501.96 586.54 524.55 596.79 524.71" fill="#939598" opacity=".3"/>
  </g>
  <g id="desk-080">
    <polygon points="584.71 523.91 585.54 501.46 574.19 501.17 574.46 523.76 584.71 523.91" fill="#939598" opacity=".3"/>
  </g>
  <g id="desk-091">
    <polygon points="537.41 569.92 538.24 547.46 526.89 547.17 527.16 569.76 537.41 569.92" fill="#939598" opacity=".3"/>
  </g>
  <g id="desk-090">
    <polygon points="537.87 547.33 538.7 524.88 527.35 524.58 527.62 547.18 537.87 547.33" fill="#939598" opacity=".3"/>
  </g>
  <g id="desk-085">
    <polygon points="526.56 594.15 527.39 571.69 516.04 571.4 516.31 593.99 526.56 594.15" fill="#939598" opacity=".3"/>
  </g>
  <g id="desk-092">
    <polygon points="537.79 593.13 538.62 570.67 527.27 570.38 527.53 592.97 537.79 593.13" fill="#939598" opacity=".3"/>
  </g>
  <g id="desk-086">
    <polygon points="525.69 569.98 526.52 547.53 515.16 547.23 515.43 569.83 525.69 569.98" fill="#939598" opacity=".3"/>
  </g>
  <g id="desk-087">
    <polygon points="525.8 546.54 526.63 524.09 515.27 523.79 515.54 546.38 525.8 546.54" fill="#939598" opacity=".3"/>
  </g>
  <g id="desk-089">
    <polygon points="537.22 524.02 538.05 501.56 526.7 501.27 526.97 523.86 537.22 524.02" fill="#939598" opacity=".3"/>
  </g>
  <g id="desk-088">
    <polygon points="525.15 523.22 525.97 500.77 514.62 500.48 514.89 523.07 525.15 523.22" fill="#939598" opacity=".3"/>
  </g>
  <g id="desk-099">
    <polygon points="478.53 570.26 479.36 547.81 468.01 547.51 468.28 570.11 478.53 570.26" fill="#939598" opacity=".3"/>
  </g>
  <g id="desk-098">
    <polygon points="479 547.68 479.82 525.22 468.47 524.93 468.74 547.52 479 547.68" fill="#939598" opacity=".3"/>
  </g>
  <g id="desk-093">
    <polygon points="467.68 594.49 468.51 572.04 457.16 571.75 457.43 594.34 467.68 594.49" fill="#939598" opacity=".3"/>
  </g>
  <g id="desk-100">
    <polygon points="478.91 593.47 479.74 571.02 468.39 570.72 468.66 593.32 478.91 593.47" fill="#939598" opacity=".3"/>
  </g>
  <g id="desk-094">
    <polygon points="466.81 570.33 467.64 547.87 456.29 547.58 456.55 570.17 466.81 570.33" fill="#939598" opacity=".3"/>
  </g>
  <g id="desk-095">
    <polygon points="466.92 546.89 467.75 524.43 456.4 524.14 456.67 546.73 466.92 546.89" fill="#939598" opacity=".3"/>
  </g>
  <g id="desk-097">
    <polygon points="478.34 524.36 479.17 501.91 467.82 501.61 468.09 524.21 478.34 524.36" fill="#939598" opacity=".3"/>
  </g>
  <g id="desk-096">
    <polygon points="466.27 523.57 467.1 501.11 455.75 500.82 456.01 523.41 466.27 523.57" fill="#939598" opacity=".3"/>
  </g>
  <g id="desk-107">
    <polygon points="419.31 569.92 420.14 547.46 408.79 547.17 409.05 569.76 419.31 569.92" fill="#939598" opacity=".3"/>
  </g>
  <g id="desk-106">
    <polygon points="419.77 547.33 420.6 524.88 409.25 524.58 409.52 547.18 419.77 547.33" fill="#939598" opacity=".3"/>
  </g>
  <g id="desk-101">
    <polygon points="408.46 594.15 409.29 571.69 397.94 571.4 398.21 593.99 408.46 594.15" fill="#939598" opacity=".3"/>
  </g>
  <g id="desk-108">
    <polygon points="419.69 593.13 420.52 570.67 409.17 570.38 409.43 592.97 419.69 593.13" fill="#939598" opacity=".3"/>
  </g>
  <g id="desk-102">
    <polygon points="407.59 569.98 408.41 547.53 397.06 547.23 397.33 569.83 407.59 569.98" fill="#939598" opacity=".3"/>
  </g>
  <g id="desk-103">
    <polygon points="407.7 546.54 408.53 524.09 397.17 523.79 397.44 546.38 407.7 546.54" fill="#939598" opacity=".3"/>
  </g>
  <g id="desk-105">
    <polygon points="419.12 524.02 419.95 501.56 408.6 501.27 408.87 523.86 419.12 524.02" fill="#939598" opacity=".3"/>
  </g>
  <g id="desk-104">
    <polygon points="407.05 523.22 407.87 500.77 396.52 500.48 396.79 523.07 407.05 523.22" fill="#939598" opacity=".3"/>
  </g>
  <g id="desk-115">
    <polygon points="359.4 570.26 360.22 547.81 348.87 547.51 349.14 570.11 359.4 570.26" fill="#939598" opacity=".3"/>
  </g>
  <g id="desk-114">
    <polygon points="359.86 547.68 360.69 525.22 349.34 524.93 349.61 547.52 359.86 547.68" fill="#939598" opacity=".3"/>
  </g>
  <g id="desk-116">
    <polygon points="356.83 593.8 357.66 571.35 346.31 571.05 346.58 593.65 356.83 593.8" fill="#939598" opacity=".3"/>
  </g>
  <g id="desk-120">
    <polygon points="287.42 577.05 297.63 557.03 287.46 551.99 278.18 572.59 287.42 577.05" fill="#939598" opacity=".3"/>
  </g>
  <g id="desk-117">
    <polygon points="277.06 572.22 287.27 552.2 277.1 547.15 267.82 567.76 277.06 572.22" fill="#939598" opacity=".3"/>
  </g>
  <g id="desk-118">
    <polygon points="287.42 550.81 297.63 530.79 287.46 525.74 278.18 546.35 287.42 550.81" fill="#939598" opacity=".3"/>
  </g>
  <g id="desk-119">
    <polygon points="297.43 555.99 307.64 535.97 297.47 530.92 288.2 551.53 297.43 555.99" fill="#939598" opacity=".3"/>
  </g>
  <g id="desk-128">
    <polygon points="240.9 528.99 257.07 513.39 249.1 505.3 233.62 521.76 240.9 528.99" fill="#939598" opacity=".3"/>
  </g>
  <g id="desk-121">
    <polygon points="232.68 521.04 248.85 505.44 240.88 497.36 225.4 513.82 232.68 521.04" fill="#939598" opacity=".3"/>
  </g>
  <g id="desk-122">
    <polygon points="249.45 504.17 265.62 488.57 257.64 480.49 242.17 496.95 249.45 504.17" fill="#939598" opacity=".3"/>
  </g>
  <g id="desk-127">
    <polygon points="257.23 512.33 273.4 496.73 265.42 488.64 249.95 505.11 257.23 512.33" fill="#939598" opacity=".3"/>
  </g>
  <g id="desk-126">
    <polygon points="273.19 496.53 289.36 480.92 281.39 472.84 265.91 489.3 273.19 496.53" fill="#939598" opacity=".3"/>
  </g>
  <g id="desk-123">
    <polygon points="264.97 488.58 281.14 472.98 273.16 464.9 257.69 481.36 264.97 488.58" fill="#939598" opacity=".3"/>
  </g>
  <g id="desk-124">
    <polygon points="281.73 471.71 297.9 456.11 289.93 448.03 274.45 464.49 281.73 471.71" fill="#939598" opacity=".3"/>
  </g>
  <g id="desk-125">
    <polygon points="289.52 479.87 305.69 464.27 297.71 456.18 282.24 472.65 289.52 479.87" fill="#939598" opacity=".3"/>
  </g>
  <g id="desk-136">
    <polygon points="199.98 488.76 216.15 473.15 208.18 465.07 192.7 481.53 199.98 488.76" fill="#939598" opacity=".3"/>
  </g>
  <g id="desk-129">
    <polygon points="191.76 480.81 207.93 465.21 199.96 457.13 184.48 473.59 191.76 480.81" fill="#939598" opacity=".3"/>
  </g>
  <g id="desk-130">
    <polygon points="208.52 463.94 224.69 448.34 216.72 440.26 201.24 456.72 208.52 463.94" fill="#939598" opacity=".3"/>
  </g>
  <g id="desk-135">
    <polygon points="216.31 472.1 232.48 456.5 224.5 448.41 209.03 464.88 216.31 472.1" fill="#939598" opacity=".3"/>
  </g>
  <g id="desk-134">
    <polygon points="232.27 456.3 248.44 440.69 240.46 432.61 224.99 449.07 232.27 456.3" fill="#939598" opacity=".3"/>
  </g>
  <g id="desk-131">
    <polygon points="224.05 448.35 240.22 432.75 232.24 424.67 216.77 441.13 224.05 448.35" fill="#939598" opacity=".3"/>
  </g>
  <g id="desk-132">
    <polygon points="240.81 431.48 256.98 415.88 249.01 407.8 233.53 424.26 240.81 431.48" fill="#939598" opacity=".3"/>
  </g>
  <g id="desk-133">
    <polygon points="248.59 439.64 264.77 424.04 256.79 415.95 241.32 432.42 248.59 439.64" fill="#939598" opacity=".3"/>
  </g>
  <g id="desk-138">
    <polygon points="168.81 424.4 184.98 408.8 177.01 400.72 161.53 417.18 168.81 424.4" fill="#939598" opacity=".3"/>
  </g>
  <g id="desk-143">
    <polygon points="176.59 432.56 192.77 416.96 184.79 408.87 169.32 425.34 176.59 432.56" fill="#939598" opacity=".3"/>
  </g>
  <g id="desk-142">
    <polygon points="192.56 416.76 208.73 401.15 200.75 393.07 185.28 409.53 192.56 416.76" fill="#939598" opacity=".3"/>
  </g>
  <g id="desk-139">
    <polygon points="184.33 408.81 200.5 393.21 192.53 385.13 177.05 401.59 184.33 408.81" fill="#939598" opacity=".3"/>
  </g>
  <g id="desk-140">
    <polygon points="201.1 391.94 217.27 376.34 209.3 368.26 193.82 384.72 201.1 391.94" fill="#939598" opacity=".3"/>
  </g>
  <g id="desk-141">
    <polygon points="208.88 400.1 225.05 384.5 217.08 376.41 201.6 392.88 208.88 400.1" fill="#939598" opacity=".3"/>
  </g>
  <g id="desk-145">
    <polygon points="116.13 405.53 132.3 389.93 124.33 381.85 108.85 398.31 116.13 405.53" fill="#939598" opacity=".3"/>
  </g>
  <g id="desk-146">
    <polygon points="127.03 382.96 143.2 367.36 135.22 359.28 119.75 375.74 127.03 382.96" fill="#939598" opacity=".3"/>
  </g>
  <g id="desk-151">
    <polygon points="134.81 391.12 150.98 375.52 143.01 367.44 127.53 383.9 134.81 391.12" fill="#939598" opacity=".3"/>
  </g>
  <g id="desk-150">
    <polygon points="150.77 375.32 166.94 359.72 158.97 351.63 143.49 368.09 150.77 375.32" fill="#939598" opacity=".3"/>
  </g>
  <g id="desk-147">
    <polygon points="142.55 367.37 158.72 351.77 150.75 343.69 135.27 360.15 142.55 367.37" fill="#939598" opacity=".3"/>
  </g>
  <g id="desk-148">
    <polygon points="159.32 350.5 175.49 334.9 167.51 326.82 152.04 343.28 159.32 350.5" fill="#939598" opacity=".3"/>
  </g>
  <g id="desk-149">
    <polygon points="167.1 358.66 183.27 343.06 175.3 334.97 159.82 351.44 167.1 358.66" fill="#939598" opacity=".3"/>
  </g>
  <g id="desk-158">
    <polygon points="73.94 361.85 90.11 346.25 82.13 338.16 66.66 354.63 73.94 361.85" fill="#939598" opacity=".3"/>
  </g>
  <g id="desk-153">
    <polygon points="65.72 353.91 81.89 338.3 73.91 330.22 58.44 346.68 65.72 353.91" fill="#939598" opacity=".3"/>
  </g>
  <g id="desk-154">
    <polygon points="82.48 337.04 98.65 321.43 90.68 313.35 75.2 329.81 82.48 337.04" fill="#939598" opacity=".3"/>
  </g>
  <g id="desk-157">
    <polygon points="90.26 345.19 106.43 329.59 98.46 321.51 82.98 337.97 90.26 345.19" fill="#939598" opacity=".3"/>
  </g>
  <g id="desk-156">
    <polygon points="106.22 329.39 122.4 313.79 114.42 305.7 98.95 322.17 106.22 329.39" fill="#939598" opacity=".3"/>
  </g>
  <g id="desk-155">
    <polygon points="98 321.45 114.17 305.84 106.2 297.76 90.72 314.22 98 321.45" fill="#939598" opacity=".3"/>
  </g>
  <g id="desk-159B">
    <polygon points="33.6 319.62 54.48 311.32 50.17 300.81 29.61 310.18 33.6 319.62" fill="#939598" opacity=".3"/>
  </g>
  <g id="desk-159A">
    <polygon points="29.01 309.15 49.89 300.85 45.58 290.35 25.01 299.71 29.01 309.15" fill="#939598" opacity=".3"/>
  </g>
  <g id="desk-167">
    <polygon points="22.11 265.26 44.58 265.61 44.63 254.26 22.05 255 22.11 265.26" fill="#939598" opacity=".3"/>
  </g>
  <g id="desk-160">
    <polygon points="21.89 253.83 44.36 254.18 44.41 242.83 21.83 243.57 21.89 253.83" fill="#939598" opacity=".3"/>
  </g>
  <g id="desk-161">
    <polygon points="45.68 253.7 68.14 254.06 68.2 242.71 45.62 243.45 45.68 253.7" fill="#939598" opacity=".3"/>
  </g>
  <g id="desk-166">
    <polygon points="45.43 264.98 67.9 265.33 67.96 253.98 45.37 254.72 45.43 264.98" fill="#939598" opacity=".3"/>
  </g>
  <g id="desk-165">
    <polygon points="67.89 265.04 90.36 265.4 90.42 254.04 67.83 254.79 67.89 265.04" fill="#939598" opacity=".3"/>
  </g>
  <g id="desk-162">
    <polygon points="67.67 253.61 90.14 253.97 90.2 242.61 67.62 243.36 67.67 253.61" fill="#939598" opacity=".3"/>
  </g>
  <g id="desk-164">
    <polygon points="91.89 266.08 114.36 266.44 114.42 255.08 91.83 255.82 91.89 266.08" fill="#939598" opacity=".3"/>
  </g>
  <g id="desk-163">
    <polygon points="91.67 254.65 114.14 255.01 114.2 243.65 91.62 244.39 91.67 254.65" fill="#939598" opacity=".3"/>
  </g>
  <g id="desk168B">
    <polygon points="23.07 209.87 41.94 222.06 48 212.45 28.44 201.13 23.07 209.87" fill="#939598" opacity=".3"/>
  </g>
  <g id="desk-168A">
    <polygon points="28.93 200.05 47.8 212.24 53.86 202.64 34.3 191.32 28.93 200.05" fill="#939598" opacity=".3"/>
  </g>
  <g id="desk-174">
    <polygon points="56.18 167.19 71.39 183.73 79.66 175.95 63.57 160.08 56.18 167.19" fill="#939598" opacity=".3"/>
  </g>
  <g id="desk169">
    <polygon points="64.31 159.16 79.53 175.7 87.8 167.92 71.71 152.05 64.31 159.16" fill="#939598" opacity=".3"/>
  </g>
  <g id="desk-170">
    <polygon points="80.78 176.32 96 192.86 104.27 185.08 88.18 169.21 80.78 176.32" fill="#939598" opacity=".3"/>
  </g>
  <g id="desk-173">
    <polygon points="72.44 183.91 87.66 200.44 95.93 192.66 79.84 176.8 72.44 183.91" fill="#939598" opacity=".3"/>
  </g>
  <g id="desk-172">
    <polygon points="87.86 200.24 103.08 216.77 111.35 208.99 95.26 193.13 87.86 200.24" fill="#939598" opacity=".3"/>
  </g>
  <g id="desk-171">
    <polygon points="96 192.21 111.21 208.74 119.48 200.96 103.39 185.1 96 192.21" fill="#939598" opacity=".3"/>
  </g>
  <g id="desk-180">
    <polygon points="100.21 124.89 115.42 141.42 123.69 133.64 107.6 117.78 100.21 124.89" fill="#939598" opacity=".3"/>
  </g>
  <g id="desk-175">
    <polygon points="108.34 116.86 123.56 133.39 131.83 125.61 115.74 109.75 108.34 116.86" fill="#939598" opacity=".3"/>
  </g>
  <g id="desk-176">
    <polygon points="124.81 134.02 140.03 150.55 148.3 142.77 132.21 126.91 124.81 134.02" fill="#939598" opacity=".3"/>
  </g>
  <g id="desk-179">
    <polygon points="116.47 141.61 131.69 158.14 139.96 150.36 123.87 134.5 116.47 141.61" fill="#939598" opacity=".3"/>
  </g>
  <g id="desk-178">
    <polygon points="131.89 157.94 147.11 174.47 155.38 166.69 139.29 150.83 131.89 157.94" fill="#939598" opacity=".3"/>
  </g>
  <g id="desk-177">
    <polygon points="140.03 149.91 155.24 166.44 163.51 158.66 147.42 142.8 140.03 149.91" fill="#939598" opacity=".3"/>
  </g>
  <g id="desk-186">
    <polygon points="141.82 83.45 157.03 99.98 165.3 92.21 149.21 76.34 141.82 83.45" fill="#939598" opacity=".3"/>
  </g>
  <g id="desk-181">
    <polygon points="149.95 75.42 165.17 91.95 173.44 84.17 157.35 68.31 149.95 75.42" fill="#939598" opacity=".3"/>
  </g>
  <g id="desk182">
    <polygon points="166.42 92.58 181.64 109.11 189.91 101.34 173.82 85.47 166.42 92.58" fill="#939598" opacity=".3"/>
  </g>
  <g id="desk-185">
    <polygon points="158.08 100.17 173.3 116.7 181.57 108.92 165.48 93.06 158.08 100.17" fill="#939598" opacity=".3"/>
  </g>
  <g id="desk-184">
    <polygon points="173.5 116.5 188.72 133.03 196.99 125.25 180.9 109.39 173.5 116.5" fill="#939598" opacity=".3"/>
  </g>
  <g id="desk-183">
    <polygon points="181.64 108.47 196.85 125 205.13 117.22 189.03 101.36 181.64 108.47" fill="#939598" opacity=".3"/>
  </g>
  <g id="desk-187">
    <polygon points="196.49 24.03 201.62 45.9 212.65 43.19 206.42 21.47 196.49 24.03" fill="#939598" opacity=".3"/>
  </g>
  <g id="desk-188">
    <polygon points="212.4 45.27 217.54 67.15 228.56 64.43 222.33 42.71 212.4 45.27" fill="#939598" opacity=".3"/>
  </g>
  <g id="desk-191">
    <polygon points="201.41 47.79 206.55 69.66 217.57 66.95 211.34 45.23 201.41 47.79" fill="#939598" opacity=".3"/>
  </g>
  <g id="desk-190">
    <polygon points="206.83 69.59 211.96 91.46 222.99 88.75 216.76 67.03 206.83 69.59" fill="#939598" opacity=".3"/>
  </g>
  <g id="desk-189">
    <polygon points="217.86 66.59 222.99 88.46 234.02 85.75 227.79 64.03 217.86 66.59" fill="#939598" opacity=".3"/>
  </g>
  <g id="desk-110">
    <polygon points="347.67 570.33 348.5 547.87 337.15 547.58 337.42 570.17 347.67 570.33" fill="#939598" opacity=".3"/>
  </g>
  <g id="desk-111">
    <polygon points="347.78 546.89 348.61 524.43 337.26 524.14 337.53 546.73 347.78 546.89" fill="#939598" opacity=".3"/>
  </g>
  <g id="desk-113">
    <polygon points="359.21 524.36 360.04 501.91 348.69 501.61 348.95 524.21 359.21 524.36" fill="#939598" opacity=".3"/>
  </g>
  <g id="desk-112">
    <polygon points="347.13 523.57 347.96 501.11 336.61 500.82 336.88 523.41 347.13 523.57" fill="#939598" opacity=".3"/>
  </g>
  <g id="desk-186Q">
    <polygon points="268.69 339.95 276.29 347.55 262.3 361.01 254.19 353.94 268.69 339.95" fill="#939598" opacity=".3"/>
  </g>
  <g id="desk-187Q">
    <polygon points="246.94 375.86 239.68 369.13 254.19 353.94 261.61 361.36 246.94 375.86" fill="#939598" opacity=".3"/>
  </g>
  <g id="desk-184Q">
    <polygon points="434.96 432.71 445.7 432.86 445.06 452.26 434.31 452.84 434.96 432.71" fill="#939598" opacity=".3"/>
  </g>
  <g id="desk-185Q">
    <polygon points="444.74 475.52 434.84 475.75 434.65 454.74 445.15 454.89 444.74 475.52" fill="#939598" opacity=".3"/>
  </g>
  <g id="desk-182Q">
    <polygon points="492.63 432.71 503.37 432.86 502.73 452.26 491.98 452.84 492.63 432.71" fill="#939598" opacity=".3"/>
  </g>
  <g id="desk-183Q">
    <polygon points="502.41 475.52 492.51 475.75 492.32 454.74 502.82 454.89 502.41 475.52" fill="#939598" opacity=".3"/>
  </g>
  <g id="desk-171Q">
    <polygon points="602.96 261.91 602.62 272.44 620.23 272.27 620.06 262.08 602.96 261.91" fill="#939598" opacity=".3"/>
  </g>
</svg>