<?xml version="1.0" encoding="UTF-8"?>
<svg id="Layer_2" data-name="Layer 2" xmlns="http://www.w3.org/2000/svg" viewBox="0 0 935 620">
  <g id="desk-006">
    <polygon points="727.8 25.27 738.33 28.04 732.2 50.05 721.93 47.12 727.8 25.27" fill="#a7a9ac" opacity=".3"/>
  </g>
  <g id="desk-001">
    <polygon points="739.19 28.29 749.47 30.97 743.51 53.16 733.24 50.31 739.19 28.29" fill="#a7a9ac" opacity=".3"/>
  </g>
  <g id="desk-005">
    <polygon points="721.58 47.89 732.12 50.65 725.99 72.67 715.71 69.73 721.58 47.89" fill="#a7a9ac" opacity=".3"/>
  </g>
  <g id="desk-002">
    <polygon points="732.98 50.91 743.25 53.59 737.29 75.78 727.02 72.93 732.98 50.91" fill="#a7a9ac" opacity=".3"/>
  </g>
  <g id="desk-004">
    <polygon points="715.8 69.99 726.33 72.76 720.2 94.77 709.93 91.83 715.8 69.99" fill="#a7a9ac" opacity=".3"/>
  </g>
  <g id="desk-003">
    <polygon points="727.19 73.01 737.47 75.69 731.51 97.88 721.24 95.03 727.19 73.01" fill="#a7a9ac" opacity=".3"/>
  </g>
  <g id="desk-012">
    <polygon points="784.86 74.24 792.56 81.94 776.17 97.86 768.78 90.15 784.86 74.24" fill="#a7a9ac" opacity=".3"/>
  </g>
  <g id="desk-007">
    <polygon points="793.18 82.59 800.7 90.08 784.37 106.24 776.94 98.61 793.18 82.59" fill="#a7a9ac" opacity=".3"/>
  </g>
  <g id="desk-011">
    <polygon points="768.09 90.65 775.79 98.34 759.4 114.27 752.01 106.55 768.09 90.65" fill="#a7a9ac" opacity=".3"/>
  </g>
  <g id="desk-008">
    <polygon points="776.41 99 783.93 106.49 767.61 122.65 760.17 115.01 776.41 99" fill="#a7a9ac" opacity=".3"/>
  </g>
  <g id="desk-010">
    <polygon points="751.95 106.82 759.66 114.51 743.27 130.44 735.88 122.73 751.95 106.82" fill="#a7a9ac" opacity=".3"/>
  </g>
  <g id="desk-009">
    <polygon points="760.27 115.17 767.8 122.66 751.47 138.82 744.04 131.19 760.27 115.17" fill="#a7a9ac" opacity=".3"/>
  </g>
  <g id="desk-018">
    <polygon points="827.93 114.82 835.64 122.51 819.25 138.44 811.86 130.72 827.93 114.82" fill="#a7a9ac" opacity=".3"/>
  </g>
  <g id="desk-013">
    <polygon points="836.25 123.17 843.78 130.66 827.45 146.82 820.02 139.18 836.25 123.17" fill="#a7a9ac" opacity=".3"/>
  </g>
  <g id="desk-017">
    <polygon points="811.17 131.22 818.87 138.91 802.48 154.84 795.09 147.13 811.17 131.22" fill="#a7a9ac" opacity=".3"/>
  </g>
  <g id="desk-014">
    <polygon points="819.49 139.57 827.01 147.06 810.69 163.22 803.25 155.59 819.49 139.57" fill="#a7a9ac" opacity=".3"/>
  </g>
  <g id="desk-016">
    <polygon points="795.03 147.4 802.74 155.09 786.35 171.01 778.96 163.3 795.03 147.4" fill="#a7a9ac" opacity=".3"/>
  </g>
  <g id="desk-015">
    <polygon points="803.35 155.75 810.88 163.24 794.55 179.4 787.11 171.76 803.35 155.75" fill="#a7a9ac" opacity=".3"/>
  </g>
  <g id="desk-024">
    <polygon points="868.17 154.92 875.94 162.55 859.67 178.61 852.22 170.95 868.17 154.92" fill="#a7a9ac" opacity=".3"/>
  </g>
  <g id="desk-029">
    <polygon points="876.56 163.21 884.14 170.64 867.94 186.93 860.44 179.35 876.56 163.21" fill="#a7a9ac" opacity=".3"/>
  </g>
  <g id="desk-023">
    <polygon points="851.53 171.45 859.3 179.09 843.03 195.14 835.58 187.48 851.53 171.45" fill="#a7a9ac" opacity=".3"/>
  </g>
  <g id="desk-020">
    <polygon points="859.92 179.74 867.5 187.17 851.3 203.46 843.8 195.88 859.92 179.74" fill="#a7a9ac" opacity=".3"/>
  </g>
  <g id="desk-022">
    <polygon points="835.53 187.75 843.29 195.38 827.02 211.44 819.57 203.78 835.53 187.75" fill="#a7a9ac" opacity=".3"/>
  </g>
  <g id="desk-021">
    <polygon points="843.91 196.04 851.49 203.47 835.29 219.76 827.79 212.18 843.91 196.04" fill="#a7a9ac" opacity=".3"/>
  </g>
  <g id="desk-033">
    <polygon points="913 244.83 912.91 255.72 890.06 255.17 890.39 244.49 913 244.83" fill="#a7a9ac" opacity=".3"/>
  </g>
  <g id="desk-026">
    <polygon points="912.87 256.62 912.79 267.23 889.82 266.89 890.06 256.23 912.87 256.62" fill="#a7a9ac" opacity=".3"/>
  </g>
  <g id="desk-032">
    <polygon points="889.55 244.34 889.45 255.23 866.61 254.68 866.94 244 889.55 244.34" fill="#a7a9ac" opacity=".3"/>
  </g>
  <g id="desk-027">
    <polygon points="889.41 256.13 889.34 266.75 866.37 266.4 866.61 255.75 889.41 256.13" fill="#a7a9ac" opacity=".3"/>
  </g>
  <g id="desk-031">
    <polygon points="866.71 244.15 866.61 255.03 843.76 254.48 844.09 243.8 866.71 244.15" fill="#a7a9ac" opacity=".3"/>
  </g>
  <g id="desk-028">
    <polygon points="866.57 255.94 866.49 266.55 843.52 266.21 843.77 255.55 866.57 255.94" fill="#a7a9ac" opacity=".3"/>
  </g>
  <g id="desk-030">
    <polygon points="843.31 244.75 843.21 255.64 820.37 255.09 820.7 244.41 843.31 244.75" fill="#a7a9ac" opacity=".3"/>
  </g>
  <g id="desk-029-2" data-name="desk-029">
    <polygon points="843.17 256.54 843.1 267.16 820.13 266.81 820.37 256.16 843.17 256.54" fill="#a7a9ac" opacity=".3"/>
  </g>
  <g id="desk-048">
    <polygon points="846.32 387.7 838.71 395.49 822.62 379.26 830.26 371.79 846.32 387.7" fill="#a7a9ac" opacity=".3"/>
  </g>
  <g id="desk-041">
    <polygon points="838.06 396.11 830.64 403.71 814.32 387.55 821.88 380.03 838.06 396.11" fill="#a7a9ac" opacity=".3"/>
  </g>
  <g id="desk-047">
    <polygon points="829.75 371.1 822.14 378.89 806.04 362.66 813.68 355.19 829.75 371.1" fill="#a7a9ac" opacity=".3"/>
  </g>
  <g id="desk-042">
    <polygon points="821.48 379.51 814.07 387.11 797.74 370.95 805.31 363.43 821.48 379.51" fill="#a7a9ac" opacity=".3"/>
  </g>
  <g id="desk-046">
    <polygon points="813.41 355.13 805.8 362.92 789.71 346.69 797.35 339.22 813.41 355.13" fill="#a7a9ac" opacity=".3"/>
  </g>
  <g id="desk-043">
    <polygon points="805.15 363.54 797.73 371.14 781.41 354.98 788.97 347.46 805.15 363.54" fill="#a7a9ac" opacity=".3"/>
  </g>
  <g id="desk-045">
    <polygon points="796.89 338.66 789.27 346.44 773.18 330.21 780.82 322.74 796.89 338.66" fill="#a7a9ac" opacity=".3"/>
  </g>
  <g id="desk-044">
    <polygon points="788.87 346.62 781.46 354.22 765.13 338.06 772.7 330.55 788.87 346.62" fill="#a7a9ac" opacity=".3"/>
  </g>
  <g id="desk-056">
    <polygon points="803.85 431.3 796.23 439.08 780.14 422.86 787.78 415.39 803.85 431.3" fill="#a7a9ac" opacity=".3"/>
  </g>
  <g id="desk-049">
    <polygon points="795.58 439.71 788.17 447.31 771.84 431.14 779.4 423.63 795.58 439.71" fill="#a7a9ac" opacity=".3"/>
  </g>
  <g id="desk-055">
    <polygon points="787.28 414.7 779.66 422.48 763.57 406.26 771.21 398.78 787.28 414.7" fill="#a7a9ac" opacity=".3"/>
  </g>
  <g id="desk-050">
    <polygon points="779.01 423.1 771.6 430.7 755.27 414.54 762.83 407.03 779.01 423.1" fill="#a7a9ac" opacity=".3"/>
  </g>
  <g id="desk-054">
    <polygon points="770.94 398.73 763.32 406.51 747.23 390.29 754.87 382.82 770.94 398.73" fill="#a7a9ac" opacity=".3"/>
  </g>
  <g id="desk-051">
    <polygon points="762.67 407.14 755.26 414.74 738.93 398.57 746.5 391.06 762.67 407.14" fill="#a7a9ac" opacity=".3"/>
  </g>
  <g id="desk-053">
    <polygon points="754.42 382.25 746.8 390.03 730.71 373.81 738.35 366.34 754.42 382.25" fill="#a7a9ac" opacity=".3"/>
  </g>
  <g id="desk-052">
    <polygon points="746.4 390.22 738.99 397.82 722.66 381.66 730.22 374.14 746.4 390.22" fill="#a7a9ac" opacity=".3"/>
  </g>
  <g id="desk-064">
    <polygon points="758.87 476.02 751.26 483.8 735.16 467.58 742.8 460.1 758.87 476.02" fill="#a7a9ac" opacity=".3"/>
  </g>
  <g id="desk-063">
    <polygon points="744.46 457.52 736.84 465.3 720.75 449.08 728.39 441.6 744.46 457.52" fill="#a7a9ac" opacity=".3"/>
  </g>
  <g id="desk-058">
    <polygon points="736.19 465.92 728.78 473.52 712.45 457.36 720.01 449.85 736.19 465.92" fill="#a7a9ac" opacity=".3"/>
  </g>
  <g id="desk-062">
    <polygon points="728.12 441.55 720.5 449.33 704.41 433.11 712.05 425.64 728.12 441.55" fill="#a7a9ac" opacity=".3"/>
  </g>
  <g id="desk-059">
    <polygon points="719.85 449.96 712.44 457.56 696.11 441.39 703.67 433.88 719.85 449.96" fill="#a7a9ac" opacity=".3"/>
  </g>
  <g id="desk-061">
    <polygon points="711.59 425.07 703.98 432.85 687.89 416.63 695.53 409.16 711.59 425.07" fill="#a7a9ac" opacity=".3"/>
  </g>
  <g id="desk-060">
    <polygon points="703.58 433.04 696.17 440.64 679.84 424.48 687.4 416.96 703.58 433.04" fill="#a7a9ac" opacity=".3"/>
  </g>
  <g id="desk-072">
    <polygon points="716.83 517.8 709.21 525.59 693.12 509.36 700.76 501.89 716.83 517.8" fill="#a7a9ac" opacity=".3"/>
  </g>
  <g id="desk-065">
    <polygon points="708.56 526.21 701.15 533.81 684.82 517.65 692.38 510.13 708.56 526.21" fill="#a7a9ac" opacity=".3"/>
  </g>
  <g id="desk-071">
    <polygon points="700.25 501.2 692.64 508.99 676.55 492.76 684.19 485.29 700.25 501.2" fill="#a7a9ac" opacity=".3"/>
  </g>
  <g id="desk-066">
    <polygon points="691.99 509.61 684.57 517.21 668.25 501.05 675.81 493.53 691.99 509.61" fill="#a7a9ac" opacity=".3"/>
  </g>
  <g id="desk-070">
    <polygon points="683.92 485.23 676.3 493.02 660.21 476.79 667.85 469.32 683.92 485.23" fill="#a7a9ac" opacity=".3"/>
  </g>
  <g id="desk-067">
    <polygon points="675.65 493.64 668.24 501.24 651.91 485.08 659.47 477.56 675.65 493.64" fill="#a7a9ac" opacity=".3"/>
  </g>
  <g id="desk-069">
    <polygon points="667.39 468.76 659.78 476.54 643.69 460.31 651.32 452.84 667.39 468.76" fill="#a7a9ac" opacity=".3"/>
  </g>
  <g id="desk-068">
    <polygon points="659.38 476.72 651.96 484.32 635.64 468.16 643.2 460.65 659.38 476.72" fill="#a7a9ac" opacity=".3"/>
  </g>
  <g id="desk-084">
    <polygon points="598.22 595.3 587.33 595.31 587.66 572.46 598.34 572.68 598.22 595.3" fill="#a7a9ac" opacity=".3"/>
  </g>
  <g id="desk-077">
    <polygon points="586.43 595.28 575.82 595.3 575.93 572.33 586.59 572.47 586.43 595.28" fill="#a7a9ac" opacity=".3"/>
  </g>
  <g id="desk-083">
    <polygon points="598.48 571.84 587.59 571.85 587.92 549 598.6 549.23 598.48 571.84" fill="#a7a9ac" opacity=".3"/>
  </g>
  <g id="desk-078">
    <polygon points="586.69 571.82 576.07 571.85 576.19 548.87 586.85 549.02 586.69 571.82" fill="#a7a9ac" opacity=".3"/>
  </g>
  <g id="desk-082">
    <polygon points="598.45 549 587.56 549.01 587.89 526.16 598.57 526.38 598.45 549" fill="#a7a9ac" opacity=".3"/>
  </g>
  <g id="desk-079">
    <polygon points="586.66 548.98 576.04 549 576.16 526.03 586.82 526.17 586.66 548.98" fill="#a7a9ac" opacity=".3"/>
  </g>
  <g id="desk-081">
    <polygon points="598.65 525.66 587.77 525.67 588.09 502.82 598.78 503.05 598.65 525.66" fill="#a7a9ac" opacity=".3"/>
  </g>
  <g id="desk-080">
    <polygon points="587.35 525.51 576.74 525.54 576.85 502.57 587.51 502.71 587.35 525.51" fill="#a7a9ac" opacity=".3"/>
  </g>
  <g id="desk-092">
    <polygon points="539.26 594.87 528.37 594.88 528.7 572.03 539.38 572.25 539.26 594.87" fill="#a7a9ac" opacity=".3"/>
  </g>
  <g id="desk-085">
    <polygon points="527.47 594.85 516.85 594.87 516.97 571.9 527.63 572.04 527.47 594.85" fill="#a7a9ac" opacity=".3"/>
  </g>
  <g id="desk-091">
    <polygon points="539.52 571.41 528.63 571.42 528.95 548.57 539.64 548.8 539.52 571.41" fill="#a7a9ac" opacity=".3"/>
  </g>
  <g id="desk-086">
    <polygon points="527.73 571.39 517.11 571.42 517.23 548.44 527.89 548.58 527.73 571.39" fill="#a7a9ac" opacity=".3"/>
  </g>
  <g id="desk-090">
    <polygon points="539.49 548.57 528.6 548.58 528.92 525.73 539.61 525.95 539.49 548.57" fill="#a7a9ac" opacity=".3"/>
  </g>
  <g id="desk-087">
    <polygon points="527.7 548.55 517.08 548.57 517.2 525.6 527.86 525.74 527.7 548.55" fill="#a7a9ac" opacity=".3"/>
  </g>
  <g id="desk-089">
    <polygon points="539.69 525.23 528.8 525.24 529.13 502.39 539.81 502.62 539.69 525.23" fill="#a7a9ac" opacity=".3"/>
  </g>
  <g id="desk-088">
    <polygon points="527.53 525.08 516.91 525.11 517.03 502.14 527.69 502.28 527.53 525.08" fill="#a7a9ac" opacity=".3"/>
  </g>
  <g id="desk-100">
    <polygon points="480.38 594.7 469.49 594.7 469.82 571.85 480.5 572.08 480.38 594.7" fill="#a7a9ac" opacity=".3"/>
  </g>
  <g id="desk-093">
    <polygon points="468.59 594.67 457.98 594.7 458.09 571.73 468.75 571.87 468.59 594.67" fill="#a7a9ac" opacity=".3"/>
  </g>
  <g id="desk-099">
    <polygon points="480.64 571.24 469.75 571.25 470.08 548.4 480.76 548.62 480.64 571.24" fill="#a7a9ac" opacity=".3"/>
  </g>
  <g id="desk-094">
    <polygon points="468.85 571.22 458.23 571.24 458.35 548.27 469.01 548.41 468.85 571.22" fill="#a7a9ac" opacity=".3"/>
  </g>
  <g id="desk-098">
    <polygon points="480.61 548.4 469.72 548.4 470.05 525.55 480.73 525.78 480.61 548.4" fill="#a7a9ac" opacity=".3"/>
  </g>
  <g id="desk-095">
    <polygon points="468.82 548.37 458.2 548.4 458.32 525.43 468.98 525.57 468.82 548.37" fill="#a7a9ac" opacity=".3"/>
  </g>
  <g id="desk-097">
    <polygon points="480.81 525.06 469.92 525.07 470.25 502.22 480.93 502.44 480.81 525.06" fill="#a7a9ac" opacity=".3"/>
  </g>
  <g id="desk-096">
    <polygon points="468.65 524.91 458.03 524.94 458.15 501.96 468.81 502.11 468.65 524.91" fill="#a7a9ac" opacity=".3"/>
  </g>
  <g id="desk-108">
    <polygon points="420.73 595.04 409.84 595.05 410.16 572.2 420.85 572.43 420.73 595.04" fill="#a7a9ac" opacity=".3"/>
  </g>
  <g id="desk-101">
    <polygon points="408.94 595.02 398.32 595.04 398.44 572.07 409.1 572.21 408.94 595.02" fill="#a7a9ac" opacity=".3"/>
  </g>
  <g id="desk-107">
    <polygon points="420.98 571.59 410.09 571.59 410.42 548.74 421.1 548.97 420.98 571.59" fill="#a7a9ac" opacity=".3"/>
  </g>
  <g id="desk-102">
    <polygon points="409.19 571.56 398.58 571.59 398.69 548.62 409.35 548.76 409.19 571.56" fill="#a7a9ac" opacity=".3"/>
  </g>
  <g id="desk_106" data-name="desk=106">
    <polygon points="420.95 548.74 410.07 548.75 410.39 525.9 421.07 526.12 420.95 548.74" fill="#a7a9ac" opacity=".3"/>
  </g>
  <g id="desk-103">
    <polygon points="409.16 548.72 398.55 548.74 398.66 525.77 409.32 525.91 409.16 548.72" fill="#a7a9ac" opacity=".3"/>
  </g>
  <g id="desk-105">
    <polygon points="421.16 525.4 410.27 525.41 410.6 502.56 421.28 502.79 421.16 525.4" fill="#a7a9ac" opacity=".3"/>
  </g>
  <g id="desk-104">
    <polygon points="408.99 525.26 398.38 525.28 398.49 502.31 409.15 502.45 408.99 525.26" fill="#a7a9ac" opacity=".3"/>
  </g>
  <g id="desk-116">
    <polygon points="361.07 594.26 350.18 594.27 350.51 571.42 361.19 571.65 361.07 594.26" fill="#a7a9ac" opacity=".3"/>
  </g>
  <g id="desk-109">
    <polygon points="349.28 594.24 338.67 594.27 338.78 571.29 349.44 571.44 349.28 594.24" fill="#a7a9ac" opacity=".3"/>
  </g>
  <g id="desk-115">
    <polygon points="361.33 570.81 350.44 570.82 350.77 547.97 361.45 548.19 361.33 570.81" fill="#a7a9ac" opacity=".3"/>
  </g>
  <g id="desk-110">
    <polygon points="349.54 570.79 338.92 570.81 339.04 547.84 349.7 547.98 349.54 570.79" fill="#a7a9ac" opacity=".3"/>
  </g>
  <g id="desk-114">
    <polygon points="361.3 547.96 350.41 547.97 350.74 525.12 361.42 525.35 361.3 547.96" fill="#a7a9ac" opacity=".3"/>
  </g>
  <g id="desk-111">
    <polygon points="349.51 547.94 338.89 547.97 339.01 524.99 349.67 525.14 349.51 547.94" fill="#a7a9ac" opacity=".3"/>
  </g>
  <g id="desk-113">
    <polygon points="361.5 524.63 350.62 524.64 350.94 501.79 361.62 502.01 361.5 524.63" fill="#a7a9ac" opacity=".3"/>
  </g>
  <g id="desk-112">
    <polygon points="349.34 524.48 338.72 524.5 338.84 501.53 349.5 501.67 349.34 524.48" fill="#a7a9ac" opacity=".3"/>
  </g>
  <g id="desk-128">
    <polygon points="242.32 530.31 234.52 522.71 250.71 506.59 258.2 514.21 242.32 530.31" fill="#a7a9ac" opacity=".3"/>
  </g>
  <g id="desk-121">
    <polygon points="233.9 522.06 226.28 514.66 242.41 498.3 249.94 505.85 233.9 522.06" fill="#a7a9ac" opacity=".3"/>
  </g>
  <g id="desk-127">
    <polygon points="258.88 513.7 251.08 506.1 267.28 489.98 274.76 497.6 258.88 513.7" fill="#a7a9ac" opacity=".3"/>
  </g>
  <g id="desk-122">
    <polygon points="250.46 505.45 242.85 498.05 258.97 481.69 266.5 489.24 250.46 505.45" fill="#a7a9ac" opacity=".3"/>
  </g>
  <g id="desk-126">
    <polygon points="274.82 497.33 267.02 489.73 283.21 473.61 290.7 481.23 274.82 497.33" fill="#a7a9ac" opacity=".3"/>
  </g>
  <g id="desk-123">
    <polygon points="266.4 489.08 258.78 481.68 274.91 465.32 282.44 472.87 266.4 489.08" fill="#a7a9ac" opacity=".3"/>
  </g>
  <g id="desk-125">
    <polygon points="291.26 480.77 283.46 473.17 299.66 457.05 307.14 464.67 291.26 480.77" fill="#a7a9ac" opacity=".3"/>
  </g>
  <g id="desk-124">
    <polygon points="282.66 472.17 275.04 464.77 291.17 448.41 298.7 455.96 282.66 472.17" fill="#a7a9ac" opacity=".3"/>
  </g>
  <g id="desk-136">
    <polygon points="201.66 490.34 193.86 482.74 210.05 466.61 217.54 474.24 201.66 490.34" fill="#a7a9ac" opacity=".3"/>
  </g>
  <g id="desk-129">
    <polygon points="193.23 482.09 185.62 474.69 201.75 458.33 209.28 465.88 193.23 482.09" fill="#a7a9ac" opacity=".3"/>
  </g>
  <g id="desk-135">
    <polygon points="218.22 473.73 210.42 466.13 226.61 450.01 234.1 457.63 218.22 473.73" fill="#a7a9ac" opacity=".3"/>
  </g>
  <g id="desk-130">
    <polygon points="209.8 465.48 202.18 458.08 218.31 441.72 225.84 449.27 209.8 465.48" fill="#a7a9ac" opacity=".3"/>
  </g>
  <g id="desk-134">
    <polygon points="234.16 457.36 226.36 449.76 242.55 433.64 250.04 441.26 234.16 457.36" fill="#a7a9ac" opacity=".3"/>
  </g>
  <g id="desk-131">
    <polygon points="225.73 449.11 218.12 441.71 234.25 425.35 241.78 432.9 225.73 449.11" fill="#a7a9ac" opacity=".3"/>
  </g>
  <g id="desk-133">
    <polygon points="250.6 440.8 242.8 433.2 258.99 417.08 266.48 424.7 250.6 440.8" fill="#a7a9ac" opacity=".3"/>
  </g>
  <g id="desk-132">
    <polygon points="242 432.2 234.38 424.8 250.51 408.44 258.04 415.99 242 432.2" fill="#a7a9ac" opacity=".3"/>
  </g>
  <g id="desk-144">
    <polygon points="161.86 450.63 154.06 443.03 170.25 426.9 177.74 434.52 161.86 450.63" fill="#a7a9ac" opacity=".3"/>
  </g>
  <g id="desk-137">
    <polygon points="153.95 442.38 146.33 434.98 162.46 418.62 169.99 426.17 153.95 442.38" fill="#a7a9ac" opacity=".3"/>
  </g>
  <g id="desk-143">
    <polygon points="178.42 434.02 170.62 426.42 186.82 410.29 194.3 417.92 178.42 434.02" fill="#a7a9ac" opacity=".3"/>
  </g>
  <g id="desk-138">
    <polygon points="170 425.77 162.38 418.37 178.51 402.01 186.04 409.56 170 425.77" fill="#a7a9ac" opacity=".3"/>
  </g>
  <g id="desk-142">
    <polygon points="194.36 417.65 186.56 410.05 202.75 393.92 210.24 401.54 194.36 417.65" fill="#a7a9ac" opacity=".3"/>
  </g>
  <g id="desk-139">
    <polygon points="185.94 409.4 178.32 402 194.45 385.64 201.98 393.19 185.94 409.4" fill="#a7a9ac" opacity=".3"/>
  </g>
  <g id="desk-141">
    <polygon points="210.8 401.09 203 393.49 219.19 377.36 226.68 384.99 210.8 401.09" fill="#a7a9ac" opacity=".3"/>
  </g>
  <g id="desk-140">
    <polygon points="202.2 392.49 194.58 385.09 210.71 368.73 218.24 376.28 202.2 392.49" fill="#a7a9ac" opacity=".3"/>
  </g>
  <g id="desk-152">
    <polygon points="120.16 409.53 112.36 401.93 128.55 385.81 136.04 393.43 120.16 409.53" fill="#a7a9ac" opacity=".3"/>
  </g>
  <g id="desk-145">
    <polygon points="111.74 401.28 104.12 393.89 120.25 377.53 127.78 385.07 111.74 401.28" fill="#a7a9ac" opacity=".3"/>
  </g>
  <g id="desk-151">
    <polygon points="136.72 392.92 128.93 385.33 145.12 369.2 152.61 376.82 136.72 392.92" fill="#a7a9ac" opacity=".3"/>
  </g>
  <g id="desk-146">
    <polygon points="128.3 384.67 120.69 377.28 136.81 360.92 144.34 368.46 128.3 384.67" fill="#a7a9ac" opacity=".3"/>
  </g>
  <g id="desk-150">
    <polygon points="152.66 376.55 144.86 368.95 161.05 352.83 168.54 360.45 152.66 376.55" fill="#a7a9ac" opacity=".3"/>
  </g>
  <g id="desk-147">
    <polygon points="144.24 368.3 136.62 360.91 152.75 344.55 160.28 352.09 144.24 368.3" fill="#a7a9ac" opacity=".3"/>
  </g>
  <g id="desk-149">
    <polygon points="169.1 359.99 161.3 352.4 177.5 336.27 184.98 343.89 169.1 359.99" fill="#a7a9ac" opacity=".3"/>
  </g>
  <g id="desk-148">
    <polygon points="160.5 351.39 152.88 344 169.01 327.64 176.54 335.18 160.5 351.39" fill="#a7a9ac" opacity=".3"/>
  </g>
  <g id="desk-167">
    <polygon points="23.07 266.85 23.01 255.96 45.86 256.18 45.68 266.86 23.07 266.85" fill="#a7a9ac" opacity=".3"/>
  </g>
  <g id="desk-160">
    <polygon points="23.03 255.06 22.96 244.44 45.93 244.45 45.84 255.11 23.03 255.06" fill="#a7a9ac" opacity=".3"/>
  </g>
  <g id="desk-166">
    <polygon points="46.52 267 46.46 256.11 69.31 256.33 69.14 267.01 46.52 267" fill="#a7a9ac" opacity=".3"/>
  </g>
  <g id="desk-161">
    <polygon points="46.49 255.21 46.42 244.59 69.39 244.6 69.3 255.26 46.49 255.21" fill="#a7a9ac" opacity=".3"/>
  </g>
  <g id="desk-165">
    <polygon points="69.37 266.86 69.31 255.97 92.16 256.2 91.98 266.88 69.37 266.86" fill="#a7a9ac" opacity=".3"/>
  </g>
  <g id="desk-162">
    <polygon points="69.34 255.07 69.26 244.46 92.23 244.47 92.14 255.13 69.34 255.07" fill="#a7a9ac" opacity=".3"/>
  </g>
  <g id="desk-164">
    <polygon points="92.7 266.96 92.65 256.07 115.5 256.29 115.32 266.98 92.7 266.96" fill="#a7a9ac" opacity=".3"/>
  </g>
  <g id="desk-163">
    <polygon points="92.8 254.79 92.72 244.18 115.69 244.19 115.6 254.85 92.8 254.79" fill="#a7a9ac" opacity=".3"/>
  </g>
  <g id="desk--174">
    <polygon points="57.33 169.17 64.96 161.41 81.01 177.66 73.36 185.12 57.33 169.17" fill="#a7a9ac" opacity=".3"/>
  </g>
  <g id="desk-169">
    <polygon points="65.61 160.79 73.04 153.2 89.33 169.39 81.75 176.89 65.61 160.79" fill="#a7a9ac" opacity=".3"/>
  </g>
  <g id="desk-173">
    <polygon points="73.87 185.81 81.5 178.04 97.55 194.3 89.9 201.75 73.87 185.81" fill="#a7a9ac" opacity=".3"/>
  </g>
  <g id="desk-170">
    <polygon points="82.15 177.42 89.58 169.83 105.87 186.03 98.29 193.53 82.15 177.42" fill="#a7a9ac" opacity=".3"/>
  </g>
  <g id="desk-172">
    <polygon points="90.17 201.81 97.8 194.04 113.86 210.3 106.21 217.76 90.17 201.81" fill="#a7a9ac" opacity=".3"/>
  </g>
  <g id="desk-171">
    <polygon points="98.45 193.42 105.88 185.84 122.18 202.03 114.6 209.53 98.45 193.42" fill="#a7a9ac" opacity=".3"/>
  </g>
  <g id="desk-180">
    <polygon points="100.32 126.61 107.95 118.84 124.01 135.1 116.36 142.56 100.32 126.61" fill="#a7a9ac" opacity=".3"/>
  </g>
  <g id="desk-175">
    <polygon points="108.6 118.22 116.03 110.64 132.32 126.83 124.75 134.33 108.6 118.22" fill="#a7a9ac" opacity=".3"/>
  </g>
  <g id="desk-179">
    <polygon points="116.86 143.25 124.49 135.48 140.55 151.74 132.9 159.19 116.86 143.25" fill="#a7a9ac" opacity=".3"/>
  </g>
  <g id="desk-176">
    <polygon points="125.14 134.86 132.57 127.27 148.86 143.47 141.29 150.97 125.14 134.86" fill="#a7a9ac" opacity=".3"/>
  </g>
  <g id="desk-178">
    <polygon points="133.16 159.25 140.79 151.48 156.85 167.74 149.2 175.2 133.16 159.25" fill="#a7a9ac" opacity=".3"/>
  </g>
  <g id="desk-177">
    <polygon points="141.45 150.86 148.88 143.27 165.17 159.47 157.59 166.97 141.45 150.86" fill="#a7a9ac" opacity=".3"/>
  </g>
  <g id="desk-186">
    <polygon points="142.36 85.69 149.99 77.92 166.05 94.18 158.4 101.64 142.36 85.69" fill="#a7a9ac" opacity=".3"/>
  </g>
  <g id="desk-181">
    <polygon points="150.65 77.3 158.07 69.72 174.37 85.91 166.79 93.41 150.65 77.3" fill="#a7a9ac" opacity=".3"/>
  </g>
  <g id="desk-185">
    <polygon points="158.9 102.32 166.53 94.56 182.59 110.82 174.94 118.27 158.9 102.32" fill="#a7a9ac" opacity=".3"/>
  </g>
  <g id="desk-182">
    <polygon points="167.19 93.94 174.61 86.35 190.91 102.55 183.33 110.05 167.19 93.94" fill="#a7a9ac" opacity=".3"/>
  </g>
  <g id="desk-184">
    <polygon points="175.21 118.33 182.84 110.56 198.9 126.82 191.24 134.27 175.21 118.33" fill="#a7a9ac" opacity=".3"/>
  </g>
  <g id="desk-183">
    <polygon points="183.49 109.94 190.92 102.35 207.21 118.55 199.63 126.05 183.49 109.94" fill="#a7a9ac" opacity=".3"/>
  </g>
  <g id="desk-192">
    <polygon points="197.58 24.3 208.13 21.6 213.45 43.83 203.04 46.24 197.58 24.3" fill="#a7a9ac" opacity=".3"/>
  </g>
  <g id="desk-191">
    <polygon points="202.86 47.87 213.41 45.17 218.73 67.4 208.32 69.81 202.86 47.87" fill="#a7a9ac" opacity=".3"/>
  </g>
  <g id="desk-188">
    <polygon points="214.29 44.98 224.57 42.34 230.13 64.63 219.76 67.12 214.29 44.98" fill="#a7a9ac" opacity=".3"/>
  </g>
  <g id="desk-190">
    <polygon points="208.52 70 219.07 67.3 224.39 89.53 213.99 91.95 208.52 70" fill="#a7a9ac" opacity=".3"/>
  </g>
  <g id="desk-189">
    <polygon points="219.95 67.11 230.23 64.47 235.79 86.76 225.42 89.25 219.95 67.11" fill="#a7a9ac" opacity=".3"/>
  </g>
  <g id="desk-158">
    <polygon points="76.91 362.83 69.11 355.23 85.3 339.1 92.79 346.72 76.91 362.83" fill="#a7a9ac" opacity=".3"/>
  </g>
  <g id="desk-153">
    <polygon points="68.49 354.58 60.87 347.18 77 330.82 84.53 338.37 68.49 354.58" fill="#a7a9ac" opacity=".3"/>
  </g>
  <g id="desk-157">
    <polygon points="93.47 346.22 85.67 338.62 101.87 322.5 109.35 330.12 93.47 346.22" fill="#a7a9ac" opacity=".3"/>
  </g>
  <g id="desk-154">
    <polygon points="85.05 337.97 77.44 330.57 93.56 314.21 101.09 321.76 85.05 337.97" fill="#a7a9ac" opacity=".3"/>
  </g>
  <g id="desk-156">
    <polygon points="109.41 329.85 101.61 322.25 117.8 306.12 125.29 313.75 109.41 329.85" fill="#a7a9ac" opacity=".3"/>
  </g>
  <g id="desk-155">
    <polygon points="100.99 321.6 93.37 314.2 109.5 297.84 117.03 305.39 100.99 321.6" fill="#a7a9ac" opacity=".3"/>
  </g>
  <g id="desk-040">
    <polygon points="886.59 347.52 878.99 355.31 862.87 339.11 870.49 331.63 886.59 347.52" fill="#a7a9ac" opacity=".3"/>
  </g>
  <g id="desk-035">
    <polygon points="878.34 355.93 870.94 363.55 854.58 347.41 862.13 339.89 878.34 355.93" fill="#a7a9ac" opacity=".3"/>
  </g>
  <g id="desk-039">
    <polygon points="869.99 330.94 862.39 338.74 846.27 322.54 853.89 315.06 869.99 330.94" fill="#a7a9ac" opacity=".3"/>
  </g>
  <g id="desk-036">
    <polygon points="861.58 339.11 854.32 346.85 837.67 331.02 845.08 323.35 861.58 339.11" fill="#a7a9ac" opacity=".3"/>
  </g>
  <g id="desk-038">
    <polygon points="853.62 315 846.02 322.8 829.9 306.6 837.53 299.12 853.62 315" fill="#a7a9ac" opacity=".3"/>
  </g>
  <g id="desk-037">
    <polygon points="845.46 322.99 838.06 330.6 821.7 314.47 829.25 306.94 845.46 322.99" fill="#a7a9ac" opacity=".3"/>
  </g>
  <g id="desk-025B">
    <polygon points="886.04 204.15 889.32 212.7 906.59 206.22 903.65 197.94 886.04 204.15" fill="#a7a9ac" opacity=".3"/>
  </g>
  <g id="desk-025A">
    <polygon points="889.15 212.7 892.43 221.24 909.7 214.77 906.76 206.48 889.15 212.7" fill="#a7a9ac" opacity=".3"/>
  </g>
  <g id="desk-034B">
    <polygon points="892.95 289.96 889.5 298.6 908.66 305.5 911.86 296.7 892.95 289.96" fill="#a7a9ac" opacity=".3"/>
  </g>
  <g id="desk-034A">
    <polygon points="889.67 299.89 886.22 308.53 905.38 315.43 908.58 306.63 889.67 299.89" fill="#a7a9ac" opacity=".3"/>
  </g>
  <g id="desk-074">
    <polygon points="626.36 537.99 636.2 532.9 645.78 553.27 636.29 558.19 626.36 537.99" fill="#a7a9ac" opacity=".3"/>
  </g>
  <g id="desk-075">
    <polygon points="636.55 532.81 646.39 527.72 655.97 548.09 646.47 553.01 636.55 532.81" fill="#a7a9ac" opacity=".3"/>
  </g>
  <g id="desk-076">
    <polygon points="646.73 555 656.58 549.91 666.16 570.28 656.66 575.2 646.73 555" fill="#a7a9ac" opacity=".3"/>
  </g>
  <g id="desk-118">
    <polygon points="287.94 526.6 297.87 531.09 288.63 551.98 278.71 547.83 287.94 526.6" fill="#a7a9ac" opacity=".3"/>
  </g>
  <g id="desk-119">
    <polygon points="298.73 531 308.66 535.49 299.42 556.38 289.5 552.24 298.73 531" fill="#a7a9ac" opacity=".3"/>
  </g>
  <g id="desk-120">
    <polygon points="279.05 549.22 288.98 553.71 279.74 574.6 269.81 570.45 279.05 549.22" fill="#a7a9ac" opacity=".3"/>
  </g>
  <g id="desk-159A">
    <polygon points="29.64 303.78 47.77 295.23 51.83 303.6 33.7 312.32 29.64 303.78" fill="#a7a9ac" opacity=".3"/>
  </g>
  <g id="desk-159B">
    <polygon points="33.96 313.01 52.09 304.47 56.14 312.84 38.01 321.56 33.96 313.01" fill="#a7a9ac" opacity=".3"/>
  </g>
  <g id="desk-168A">
    <polygon points="36.93 194.76 54.57 204.28 50.24 212.51 32.46 203.1 36.93 194.76" fill="#a7a9ac" opacity=".3"/>
  </g>
  <g id="desk-168B">
    <polygon points="32.06 203.71 49.7 213.24 45.36 221.47 27.59 212.05 32.06 203.71" fill="#a7a9ac" opacity=".3"/>
  </g>
  <g id="desk-181Q">
    <polygon points="604.43 262.86 604.43 273.56 621.78 273.47 621.78 262.77 604.43 262.86" fill="#a7a9ac" opacity=".3"/>
  </g>
  <g id="desk-184Q">
    <polygon points="435.65 432.84 446.53 432.67 446.36 454.77 435.83 454.94 435.65 432.84" fill="#a7a9ac" opacity=".3"/>
  </g>
  <g id="desk-182Q">
    <polygon points="492.81 433.01 503.68 432.84 503.51 454.94 492.98 455.12 492.81 433.01" fill="#a7a9ac" opacity=".3"/>
  </g>
  <g id="desk-183Q">
    <polygon points="492.63 455.46 503.51 455.29 503.34 477.39 492.81 477.56 492.63 455.46" fill="#a7a9ac" opacity=".3"/>
  </g>
  <g id="desk-185Q">
    <polygon points="436 455.12 446.88 454.94 446.71 477.04 436.17 477.22 436 455.12" fill="#a7a9ac" opacity=".3"/>
  </g>
  <g id="desk-186Q">
    <polygon points="270.58 339.88 278.26 347.58 263.34 361.77 255.9 354.32 270.58 339.88" fill="#a7a9ac" opacity=".3"/>
  </g>
  <g id="desk-187Q">
    <polygon points="255.91 354.55 263.59 362.26 248.68 376.45 241.24 369 255.91 354.55" fill="#a7a9ac" opacity=".3"/>
  </g>
</svg>