<?xml version="1.0" encoding="UTF-8"?>
<svg id="Layer_2" data-name="Layer 2" xmlns="http://www.w3.org/2000/svg" viewBox="0 0 550 640">
  <g id="desk-103">
    <path d="M236.23,21.03l11.31.17s.17,22.1-.17,22.53-11.14,0-11.14,0v-22.71Z" fill="#a7a9ac" opacity=".3"/>
  </g>
  <g id="desk-099">
    <path d="M248.06,21.12l11.44.17s.17,22.1-.17,22.53-11.27,0-11.27,0v-22.71Z" fill="#a7a9ac" opacity=".3"/>
  </g>
  <g id="desk-102">
    <path d="M235.97,43.99l11.31.17s.17,22.1-.17,22.53-11.14,0-11.14,0v-22.71Z" fill="#a7a9ac" opacity=".3"/>
  </g>
  <g id="desk-098">
    <path d="M247.88,44.34l11.44.17s.17,22.1-.17,22.53-11.27,0-11.27,0v-22.71Z" fill="#a7a9ac" opacity=".3"/>
  </g>
  <g id="desk-100">
    <path d="M236.32,90.23l11.31.17s.17,22.1-.17,22.53-11.14,0-11.14,0v-22.71Z" fill="#a7a9ac" opacity=".3"/>
  </g>
  <g id="desk-096">
    <path d="M248.14,90.32l11.44.17s.17,22.1-.17,22.53-11.27,0-11.27,0v-22.71Z" fill="#a7a9ac" opacity=".3"/>
  </g>
  <g id="desk-101">
    <path d="M236.32,67.09l11.31.17s.17,22.1-.17,22.53-11.14,0-11.14,0v-22.71Z" fill="#a7a9ac" opacity=".3"/>
  </g>
  <g id="desk-097">
    <path d="M248.14,67.18l11.44.17s.17,22.1-.17,22.53-11.27,0-11.27,0v-22.71Z" fill="#a7a9ac" opacity=".3"/>
  </g>
  <g id="desk-095">
    <path d="M390.76,21.46l11.31.17s.17,22.1-.17,22.53-11.14,0-11.14,0v-22.71Z" fill="#a7a9ac" opacity=".3"/>
  </g>
  <g id="desk-091">
    <path d="M402.59,21.55l11.44.17s.17,22.1-.17,22.53-11.27,0-11.27,0v-22.71Z" fill="#a7a9ac" opacity=".3"/>
  </g>
  <g id="desk-094">
    <path d="M390.5,44.42l11.31.17s.17,22.1-.17,22.53-11.14,0-11.14,0v-22.71Z" fill="#a7a9ac" opacity=".3"/>
  </g>
  <g id="desk-090">
    <path d="M402.42,44.77l11.44.17s.17,22.1-.17,22.53-11.27,0-11.27,0v-22.71Z" fill="#a7a9ac" opacity=".3"/>
  </g>
  <g id="desk-092">
    <path d="M390.85,90.66l11.31.17s.17,22.1-.17,22.53-11.14,0-11.14,0v-22.71Z" fill="#a7a9ac" opacity=".3"/>
  </g>
  <g id="desk-088">
    <path d="M402.68,90.75l11.44.17s.17,22.1-.17,22.53-11.27,0-11.27,0v-22.71Z" fill="#a7a9ac" opacity=".3"/>
  </g>
  <g id="desk-093">
    <path d="M390.85,67.53l11.31.17s.17,22.1-.17,22.53-11.14,0-11.14,0v-22.71Z" fill="#a7a9ac" opacity=".3"/>
  </g>
  <g id="desk-089">
    <path d="M402.68,67.61l11.44.17s.17,22.1-.17,22.53-11.27,0-11.27,0v-22.71Z" fill="#a7a9ac" opacity=".3"/>
  </g>
  <g id="desk-035">
    <path d="M265.41,511.6l11.31.17s.17,22.1-.17,22.53-11.14,0-11.14,0v-22.71Z" fill="#a7a9ac" opacity=".3"/>
  </g>
  <g id="desk-039">
    <path d="M277.24,511.69l11.44.17s.17,22.1-.17,22.53-11.27,0-11.27,0v-22.71Z" fill="#a7a9ac" opacity=".3"/>
  </g>
  <g id="desk-036">
    <path d="M265.15,534.57l11.31.17s.17,22.1-.17,22.53-11.14,0-11.14,0v-22.71Z" fill="#a7a9ac" opacity=".3"/>
  </g>
  <g id="desk-040">
    <path d="M277.06,534.91l11.44.17s.17,22.1-.17,22.53-11.27,0-11.27,0v-22.71Z" fill="#a7a9ac" opacity=".3"/>
  </g>
  <g id="desk-038">
    <path d="M265.5,580.81l11.31.17s.17,22.1-.17,22.53-11.14,0-11.14,0v-22.71Z" fill="#a7a9ac" opacity=".3"/>
  </g>
  <g id="desk-042">
    <path d="M277.32,580.89l11.44.17s.17,22.1-.17,22.53-11.27,0-11.27,0v-22.71Z" fill="#a7a9ac" opacity=".3"/>
  </g>
  <g id="desk-037">
    <path d="M265.5,557.67l11.31.17s.17,22.1-.17,22.53-11.14,0-11.14,0v-22.71Z" fill="#a7a9ac" opacity=".3"/>
  </g>
  <g id="desk-041">
    <path d="M277.32,557.76l11.44.17s.17,22.1-.17,22.53-11.27,0-11.27,0v-22.71Z" fill="#a7a9ac" opacity=".3"/>
  </g>
  <g id="desk-027">
    <path d="M209.21,511.22l11.31.17s.17,22.1-.17,22.53-11.14,0-11.14,0v-22.71Z" fill="#a7a9ac" opacity=".3"/>
  </g>
  <g id="desk-031">
    <path d="M221.04,511.3l11.44.17s.17,22.1-.17,22.53-11.27,0-11.27,0v-22.71Z" fill="#a7a9ac" opacity=".3"/>
  </g>
  <g id="desk-028">
    <path d="M208.95,534.18l11.31.17s.17,22.1-.17,22.53-11.14,0-11.14,0v-22.71Z" fill="#a7a9ac" opacity=".3"/>
  </g>
  <g id="desk-032">
    <path d="M220.86,534.53l11.44.17s.17,22.1-.17,22.53-11.27,0-11.27,0v-22.71Z" fill="#a7a9ac" opacity=".3"/>
  </g>
  <g id="desk-030">
    <path d="M209.29,580.42l11.31.17s.17,22.1-.17,22.53-11.14,0-11.14,0v-22.71Z" fill="#a7a9ac" opacity=".3"/>
  </g>
  <g id="desk-034">
    <path d="M221.12,580.5l11.44.17s.17,22.1-.17,22.53-11.27,0-11.27,0v-22.71Z" fill="#a7a9ac" opacity=".3"/>
  </g>
  <g id="desk-029">
    <path d="M209.29,557.28l11.31.17s.17,22.1-.17,22.53-11.14,0-11.14,0v-22.71Z" fill="#a7a9ac" opacity=".3"/>
  </g>
  <g id="desk-033">
    <path d="M221.12,557.37l11.44.17s.17,22.1-.17,22.53-11.27,0-11.27,0v-22.71Z" fill="#a7a9ac" opacity=".3"/>
  </g>
  <g id="desk-019">
    <path d="M157.67,511.44l11.31.17s.17,22.1-.17,22.53-11.14,0-11.14,0v-22.71Z" fill="#a7a9ac" opacity=".3"/>
  </g>
  <g id="desk-023">
    <path d="M169.5,511.53l11.44.17s.17,22.1-.17,22.53-11.27,0-11.27,0v-22.71Z" fill="#a7a9ac" opacity=".3"/>
  </g>
  <g id="desk-020">
    <path d="M157.41,534.4l11.31.17s.17,22.1-.17,22.53-11.14,0-11.14,0v-22.71Z" fill="#a7a9ac" opacity=".3"/>
  </g>
  <g id="desk-024">
    <path d="M169.32,534.75l11.44.17s.17,22.1-.17,22.53-11.27,0-11.27,0v-22.71Z" fill="#a7a9ac" opacity=".3"/>
  </g>
  <g id="desk-013">
    <path d="M82.83,512.66l.11-11.31s22.1-.29,22.53.04.06,11.14.06,11.14l-22.7.13Z" fill="#a7a9ac" opacity=".3"/>
  </g>
  <g id="desk-011">
    <path d="M82.85,500.83l.11-11.44s22.1-.29,22.53.04.06,11.27.06,11.27l-22.7.13Z" fill="#a7a9ac" opacity=".3"/>
  </g>
  <g id="desk-014">
    <path d="M105.8,512.79l.11-11.31s22.1-.29,22.53.04.06,11.14.06,11.14l-22.7.13Z" fill="#a7a9ac" opacity=".3"/>
  </g>
  <g id="desk012">
    <path d="M106.08,500.87l.11-11.44s22.1-.29,22.53.04.06,11.27.06,11.27l-22.7.13Z" fill="#a7a9ac" opacity=".3"/>
  </g>
  <g id="desk-017">
    <path d="M82.96,563.81l.11-11.31s22.1-.29,22.53.04.06,11.14.06,11.14l-22.7.13Z" fill="#a7a9ac" opacity=".3"/>
  </g>
  <g id="desk-015">
    <path d="M82.98,551.98l.11-11.44s22.1-.29,22.53.04.06,11.27.06,11.27l-22.7.13Z" fill="#a7a9ac" opacity=".3"/>
  </g>
  <g id="desk-018">
    <path d="M105.93,563.94l.11-11.31s22.1-.29,22.53.04.06,11.14.06,11.14l-22.7.13Z" fill="#a7a9ac" opacity=".3"/>
  </g>
  <g id="desk-016">
    <path d="M106.21,552.02l.11-11.44s22.1-.29,22.53.04.06,11.27.06,11.27l-22.7.13Z" fill="#a7a9ac" opacity=".3"/>
  </g>
  <g id="desk-009">
    <path d="M15.62,552.54l.11-11.31s22.1-.29,22.53.04.06,11.14.06,11.14l-22.7.13Z" fill="#a7a9ac" opacity=".3"/>
  </g>
  <g id="desk-007">
    <path d="M15.64,540.71l.11-11.44s22.1-.29,22.53.04.06,11.27.06,11.27l-22.7.13Z" fill="#a7a9ac" opacity=".3"/>
  </g>
  <g id="desk-010">
    <path d="M38.59,552.67l.11-11.31s22.1-.29,22.53.04.06,11.14.06,11.14l-22.7.13Z" fill="#a7a9ac" opacity=".3"/>
  </g>
  <g id="desk-008">
    <path d="M38.87,540.76l.11-11.44s22.1-.29,22.53.04.06,11.27.06,11.27l-22.7.13Z" fill="#a7a9ac" opacity=".3"/>
  </g>
  <g id="desk-005">
    <path d="M15.23,500.74l.11-11.31s22.1-.29,22.53.04.06,11.14.06,11.14l-22.7.13Z" fill="#a7a9ac" opacity=".3"/>
  </g>
  <g id="desk-003">
    <path d="M15.26,488.91l.11-11.44s22.1-.29,22.53.04.06,11.27.06,11.27l-22.7.13Z" fill="#a7a9ac" opacity=".3"/>
  </g>
  <g id="desk-006">
    <path d="M38.2,500.87l.11-11.31s22.1-.29,22.53.04.06,11.14.06,11.14l-22.7.13Z" fill="#a7a9ac" opacity=".3"/>
  </g>
  <g id="desk-004">
    <path d="M38.48,488.96l.11-11.44s22.1-.29,22.53.04.06,11.27.06,11.27l-22.7.13Z" fill="#a7a9ac" opacity=".3"/>
  </g>
  <g id="desk-002">
    <path d="M19.22,444.96l-11.1-.06s-.3-18.09.03-18.45,10.94-.08,10.94-.08l.14,18.59Z" fill="#a7a9ac" opacity=".3"/>
  </g>
  <g id="desk-001">
    <path d="M19.22,426.05l-11.1-.06s-.3-18.09.03-18.45,10.94-.08,10.94-.08l.14,18.59Z" fill="#a7a9ac" opacity=".3"/>
  </g>
  <g id="desk-022">
    <path d="M157.76,580.64l11.31.17s.17,22.1-.17,22.53-11.14,0-11.14,0v-22.71Z" fill="#a7a9ac" opacity=".3"/>
  </g>
  <g id="desk-026">
    <path d="M169.58,580.73l11.44.17s.17,22.1-.17,22.53-11.27,0-11.27,0v-22.71Z" fill="#a7a9ac" opacity=".3"/>
  </g>
  <g id="desk-021">
    <path d="M157.76,557.5l11.31.17s.17,22.1-.17,22.53-11.14,0-11.14,0v-22.71Z" fill="#a7a9ac" opacity=".3"/>
  </g>
  <g id="desk-025">
    <path d="M169.58,557.59l11.44.17s.17,22.1-.17,22.53-11.27,0-11.27,0v-22.71Z" fill="#a7a9ac" opacity=".3"/>
  </g>
  <g id="desk-087">
    <polygon points="449.21 91.91 463.19 91.91 463.19 98.12 437.47 98.38 437.73 73.26 448.86 73.17 449.21 91.91" fill="#a7a9ac" opacity=".3"/>
  </g>
  <g id="desk-083">
    <polygon points="519.91 143.36 510.42 149.06 520.52 166.41 540.29 166.5 540.2 154.41 526.47 153.63 519.91 143.36" fill="#a7a9ac" opacity=".3"/>
  </g>
  <g id="desk-082">
    <polygon points="540.34 177.56 540.06 166.48 519.98 166.74 510.18 183.91 520.74 189.78 528.17 178.21 540.34 177.56" fill="#a7a9ac" opacity=".3"/>
  </g>
  <g id="desk-081">
    <polygon points="519.71 189.44 509.98 184.14 500.14 201.64 510.08 218.73 520.46 212.53 514.17 200.3 519.71 189.44" fill="#a7a9ac" opacity=".3"/>
  </g>
  <g id="desk-080">
    <polygon points="500.48 224.86 509.98 219.17 499.89 201.81 480.12 201.71 480.2 213.8 493.93 214.58 500.48 224.86" fill="#a7a9ac" opacity=".3"/>
  </g>
  <g id="desk-079">
    <polygon points="479.99 212.68 479.84 201.6 459.76 201.61 449.74 218.65 460.23 224.66 467.81 213.18 479.99 212.68" fill="#a7a9ac" opacity=".3"/>
  </g>
  <g id="desk-086">
    <polygon points="459.55 178.42 450.06 184.13 460.19 201.47 479.96 201.52 479.86 189.44 466.13 188.68 459.55 178.42" fill="#a7a9ac" opacity=".3"/>
  </g>
  <g id="desk-084">
    <polygon points="500.26 178.42 509.85 183.96 520.13 166.71 510.61 149.38 500.09 155.32 506.06 167.7 500.26 178.42" fill="#a7a9ac" opacity=".3"/>
  </g>
  <g id="desk-085">
    <polygon points="480.6 190.39 480.65 201.46 500.73 201.64 510.9 184.68 500.46 178.59 492.78 189.99 480.6 190.39" fill="#a7a9ac" opacity=".3"/>
  </g>
  <g id="desk-075">
    <polygon points="520.17 234.14 510.68 239.83 520.78 257.19 540.55 257.27 540.46 245.19 526.73 244.41 520.17 234.14" fill="#a7a9ac" opacity=".3"/>
  </g>
  <g id="desk-074">
    <polygon points="540.6 268.33 540.32 257.26 520.24 257.51 510.44 274.68 521 280.56 528.43 268.99 540.6 268.33" fill="#a7a9ac" opacity=".3"/>
  </g>
  <g id="desk-073">
    <polygon points="519.97 280.22 510.24 274.92 500.4 292.42 510.34 309.51 520.72 303.31 514.43 291.08 519.97 280.22" fill="#a7a9ac" opacity=".3"/>
  </g>
  <g id="desk-072">
    <polygon points="500.74 315.64 510.24 309.94 500.15 292.59 480.38 292.49 480.46 304.57 494.19 305.36 500.74 315.64" fill="#a7a9ac" opacity=".3"/>
  </g>
  <g id="desk-071">
    <polygon points="480.25 303.45 480.1 292.38 460.02 292.39 450 309.43 460.49 315.43 468.07 303.96 480.25 303.45" fill="#a7a9ac" opacity=".3"/>
  </g>
  <g id="desk-078">
    <polygon points="459.81 269.2 450.32 274.91 460.45 292.25 480.22 292.3 480.11 280.21 466.39 279.46 459.81 269.2" fill="#a7a9ac" opacity=".3"/>
  </g>
  <g id="desk-076">
    <polygon points="500.52 269.19 510.11 274.74 520.39 257.49 510.87 240.16 500.34 246.09 506.32 258.47 500.52 269.19" fill="#a7a9ac" opacity=".3"/>
  </g>
  <g id="desk-077">
    <polygon points="480.86 281.16 480.91 292.24 500.99 292.42 511.16 275.46 500.72 269.36 493.04 280.77 480.86 281.16" fill="#a7a9ac" opacity=".3"/>
  </g>
  <g id="desk-067">
    <polygon points="520.04 328.02 510.55 333.72 520.65 351.07 540.42 351.16 540.33 339.07 526.6 338.29 520.04 328.02" fill="#a7a9ac" opacity=".3"/>
  </g>
  <g id="desk-066">
    <polygon points="540.47 362.22 540.19 351.15 520.11 351.4 510.31 368.57 520.87 374.44 528.3 362.87 540.47 362.22" fill="#a7a9ac" opacity=".3"/>
  </g>
  <g id="desk-065">
    <polygon points="519.84 374.1 510.11 368.8 500.27 386.3 510.21 403.39 520.59 397.19 514.3 384.97 519.84 374.1" fill="#a7a9ac" opacity=".3"/>
  </g>
  <g id="desk-064">
    <polygon points="500.61 409.52 510.11 403.83 500.02 386.47 480.25 386.37 480.33 398.46 494.06 399.24 500.61 409.52" fill="#a7a9ac" opacity=".3"/>
  </g>
  <g id="desk-063">
    <polygon points="480.12 397.34 479.97 386.27 459.89 386.27 449.87 403.31 460.36 409.32 467.94 397.84 480.12 397.34" fill="#a7a9ac" opacity=".3"/>
  </g>
  <g id="desk-070">
    <polygon points="459.68 363.08 450.19 368.79 460.32 386.13 480.09 386.18 479.98 374.1 466.26 373.34 459.68 363.08" fill="#a7a9ac" opacity=".3"/>
  </g>
  <g id="desk-068">
    <polygon points="500.39 363.08 509.98 368.62 520.26 351.37 510.74 334.04 500.21 339.98 506.19 352.36 500.39 363.08" fill="#a7a9ac" opacity=".3"/>
  </g>
  <g id="desk-069">
    <polygon points="480.73 375.05 480.78 386.12 500.86 386.3 511.03 369.35 500.59 363.25 492.91 374.65 480.73 375.05" fill="#a7a9ac" opacity=".3"/>
  </g>
  <g id="desk-059">
    <polygon points="520.04 421.26 510.55 426.96 520.65 444.31 540.42 444.4 540.33 432.31 526.6 431.53 520.04 421.26" fill="#a7a9ac" opacity=".3"/>
  </g>
  <g id="desk-058">
    <polygon points="540.47 455.46 540.19 444.38 520.11 444.64 510.31 461.8 520.87 467.68 528.3 456.11 540.47 455.46" fill="#a7a9ac" opacity=".3"/>
  </g>
  <g id="desk-057">
    <polygon points="519.84 467.34 510.11 462.04 500.27 479.54 510.21 496.63 520.59 490.43 514.3 478.2 519.84 467.34" fill="#a7a9ac" opacity=".3"/>
  </g>
  <g id="desk-056">
    <polygon points="500.61 502.76 510.11 497.07 500.02 479.71 480.25 479.61 480.33 491.7 494.06 492.48 500.61 502.76" fill="#a7a9ac" opacity=".3"/>
  </g>
  <g id="desk-055">
    <polygon points="480.12 490.58 479.97 479.5 459.89 479.51 449.87 496.55 460.36 502.56 467.94 491.08 480.12 490.58" fill="#a7a9ac" opacity=".3"/>
  </g>
  <g id="desk-062">
    <polygon points="459.68 456.32 450.19 462.03 460.32 479.37 480.09 479.42 479.98 467.34 466.26 466.58 459.68 456.32" fill="#a7a9ac" opacity=".3"/>
  </g>
  <g id="desk-060">
    <polygon points="500.39 456.32 509.98 461.86 520.26 444.61 510.74 427.28 500.21 433.22 506.19 445.6 500.39 456.32" fill="#a7a9ac" opacity=".3"/>
  </g>
  <g id="desk-053">
    <polygon points="489.86 533.02 484.36 542.63 501.65 552.83 518.94 543.24 512.96 532.74 500.6 538.77 489.86 533.02" fill="#a7a9ac" opacity=".3"/>
  </g>
  <g id="desk-054">
    <polygon points="524.4 552.86 518.74 543.34 501.35 553.38 501.19 573.15 513.28 573.11 514.1 559.38 524.4 552.86" fill="#a7a9ac" opacity=".3"/>
  </g>
  <g id="desk-052">
    <polygon points="489.86 573.21 500.93 573.35 501.46 553.28 484.69 542.82 478.41 553.15 489.68 561.02 489.86 573.21" fill="#a7a9ac" opacity=".3"/>
  </g>
  <g id="desk-049">
    <polygon points="454.73 519.59 443.66 519.61 443.44 539.69 460.38 549.89 466.49 539.47 455.1 531.77 454.73 519.59" fill="#a7a9ac" opacity=".3"/>
  </g>
  <g id="desk-050">
    <polygon points="454.76 559.42 460.18 549.77 442.81 539.7 425.6 549.42 431.66 559.87 443.97 553.75 454.76 559.42" fill="#a7a9ac" opacity=".3"/>
  </g>
  <g id="desk-048">
    <polygon points="419.9 539.63 425.29 549.3 442.95 539.75 443.66 519.99 431.58 519.7 430.37 533.39 419.9 539.63" fill="#a7a9ac" opacity=".3"/>
  </g>
  <g id="desk-047">
    <polygon points="396.97 540.22 391.44 549.82 408.71 560.07 426.03 550.53 420.07 540.01 407.7 546.01 396.97 540.22" fill="#a7a9ac" opacity=".3"/>
  </g>
  <g id="desk-051">
    <polygon points="431.45 560.17 425.82 550.63 408.4 560.62 408.18 580.39 420.27 580.38 421.14 566.66 431.45 560.17" fill="#a7a9ac" opacity=".3"/>
  </g>
  <g id="desk-046">
    <polygon points="396.85 580.41 407.92 580.59 408.51 560.52 391.77 550.01 385.46 560.31 396.71 568.23 396.85 580.41" fill="#a7a9ac" opacity=".3"/>
  </g>
  <g id="desk-061">
    <polygon points="480.73 468.29 480.78 479.36 500.86 479.54 511.03 462.58 500.59 456.49 492.91 467.89 480.73 468.29" fill="#a7a9ac" opacity=".3"/>
  </g>
  <g id="desk-045">
    <polygon points="466.3 594.31 466.3 588.09 440.92 588.35 441.05 613.22 452.19 613.35 452.19 594.18 466.3 594.31" fill="#a7a9ac" opacity=".3"/>
  </g>
  <g id="desk-044">
    <polygon points="440.01 612.18 440.01 600.91 421.37 601.17 421.76 612.7 440.01 612.18" fill="#a7a9ac" opacity=".3"/>
  </g>
  <g id="desk-043">
    <polygon points="420.46 601.04 420.46 612.18 402.2 612.18 402.07 601.3 420.46 601.04" fill="#a7a9ac" opacity=".3"/>
  </g>
  <g id="desk-003A">
    <polygon points="42.2 377.01 53.08 377.01 53.47 393.33 70.04 393.46 70.3 405.37 41.94 405.37 42.2 377.01" fill="#a7a9ac" opacity=".3"/>
  </g>
</svg>