<?xml version="1.0" encoding="UTF-8"?>
<svg id="Layer_2" data-name="Layer 2" xmlns="http://www.w3.org/2000/svg" viewBox="0 0 700 800">
  <g id="desk-112">
    <rect x="234.67" y="29.33" width="13" height="27.67" fill="#a7a9ac" opacity=".31"/>
  </g>
  <g id="desk-108">
    <rect x="249.67" y="29.33" width="13" height="27.67" fill="#a7a9ac" opacity=".31"/>
  </g>
  <g id="desk-111">
    <rect x="234.67" y="58.11" width="13" height="27.67" fill="#a7a9ac" opacity=".31"/>
  </g>
  <g id="desk-107">
    <rect x="249.67" y="58.11" width="13" height="27.67" fill="#a7a9ac" opacity=".31"/>
  </g>
  <g id="desk-110">
    <rect x="234.67" y="86.89" width="13" height="27.67" fill="#a7a9ac" opacity=".31"/>
  </g>
  <g id="desk-106">
    <rect x="249.67" y="86.89" width="13" height="27.67" fill="#a7a9ac" opacity=".31"/>
  </g>
  <g id="desk-109">
    <rect x="234.67" y="115.67" width="13" height="27.67" fill="#a7a9ac" opacity=".31"/>
  </g>
  <g id="desk-105">
    <rect x="249.67" y="115.67" width="13" height="27.67" fill="#a7a9ac" opacity=".31"/>
  </g>
  <g id="desk-104">
    <rect x="298.67" y="28.89" width="13" height="27.67" fill="#a7a9ac" opacity=".31"/>
  </g>
  <g id="desk-100">
    <rect x="313.67" y="28.89" width="13" height="27.67" fill="#a7a9ac" opacity=".31"/>
  </g>
  <g id="desk-103">
    <rect x="298.67" y="57.67" width="13" height="27.67" fill="#a7a9ac" opacity=".31"/>
  </g>
  <g id="desk-099">
    <rect x="313.67" y="57.67" width="13" height="27.67" fill="#a7a9ac" opacity=".31"/>
  </g>
  <g id="desk-102">
    <rect x="298.67" y="86.44" width="13" height="27.67" fill="#a7a9ac" opacity=".31"/>
  </g>
  <g id="desk-098">
    <rect x="313.67" y="86.44" width="13" height="27.67" fill="#a7a9ac" opacity=".31"/>
  </g>
  <g id="desk-101">
    <rect x="298.67" y="115.22" width="13" height="27.67" fill="#a7a9ac" opacity=".31"/>
  </g>
  <g id="desk-097">
    <rect x="313.67" y="115.22" width="13" height="27.67" fill="#a7a9ac" opacity=".31"/>
  </g>
  <g id="desk-096">
    <rect x="492.44" y="29.78" width="13" height="27.67" fill="#a7a9ac" opacity=".31"/>
  </g>
  <g id="desk-092">
    <rect x="507.44" y="29.78" width="13" height="27.67" fill="#a7a9ac" opacity=".31"/>
  </g>
  <g id="desk-095">
    <rect x="492.44" y="58.56" width="13" height="27.67" fill="#a7a9ac" opacity=".31"/>
  </g>
  <g id="desk-091">
    <rect x="507.44" y="58.56" width="13" height="27.67" fill="#a7a9ac" opacity=".31"/>
  </g>
  <g id="desk-094">
    <rect x="492.44" y="87.33" width="13" height="27.67" fill="#a7a9ac" opacity=".31"/>
  </g>
  <g id="desk-090">
    <rect x="507.44" y="87.33" width="13" height="27.67" fill="#a7a9ac" opacity=".31"/>
  </g>
  <g id="desk-093">
    <rect x="492.44" y="116.11" width="13" height="27.67" fill="#a7a9ac" opacity=".31"/>
  </g>
  <g id="desk-089">
    <rect x="507.44" y="116.11" width="13" height="27.67" fill="#a7a9ac" opacity=".31"/>
  </g>
  <g id="desk-035">
    <rect x="334.67" y="639.21" width="13" height="27.67" fill="#a7a9ac" opacity=".31"/>
  </g>
  <g id="desk-039">
    <rect x="349.67" y="639.21" width="13" height="27.67" fill="#a7a9ac" opacity=".31"/>
  </g>
  <g id="desk-036">
    <rect x="334.67" y="667.99" width="13" height="27.67" fill="#a7a9ac" opacity=".31"/>
  </g>
  <g id="desk-040">
    <rect x="349.67" y="667.99" width="13" height="27.67" fill="#a7a9ac" opacity=".31"/>
  </g>
  <g id="desk-037">
    <rect x="334.67" y="696.76" width="13" height="27.67" fill="#a7a9ac" opacity=".31"/>
  </g>
  <g id="desk-041">
    <rect x="349.67" y="696.76" width="13" height="27.67" fill="#a7a9ac" opacity=".31"/>
  </g>
  <g id="desk-038">
    <rect x="334.67" y="725.54" width="13" height="27.67" fill="#a7a9ac" opacity=".31"/>
  </g>
  <g id="desk-042">
    <rect x="349.67" y="725.54" width="13" height="27.67" fill="#a7a9ac" opacity=".31"/>
  </g>
  <g id="desk-027">
    <rect x="265" y="638.65" width="13" height="27.67" fill="#a7a9ac" opacity=".31"/>
  </g>
  <g id="desk-031">
    <rect x="280" y="638.65" width="13" height="27.67" fill="#a7a9ac" opacity=".31"/>
  </g>
  <g id="desk-028">
    <rect x="265" y="667.43" width="13" height="27.67" fill="#a7a9ac" opacity=".31"/>
  </g>
  <g id="desk-032">
    <rect x="280" y="667.43" width="13" height="27.67" fill="#a7a9ac" opacity=".31"/>
  </g>
  <g id="desk-029">
    <rect x="265" y="696.21" width="13" height="27.67" fill="#a7a9ac" opacity=".31"/>
  </g>
  <g id="desk-033">
    <rect x="280" y="696.21" width="13" height="27.67" fill="#a7a9ac" opacity=".31"/>
  </g>
  <g id="desk-030">
    <rect x="265" y="724.99" width="13" height="27.67" fill="#a7a9ac" opacity=".31"/>
  </g>
  <g id="desk-034">
    <rect x="280" y="724.99" width="13" height="27.67" fill="#a7a9ac" opacity=".31"/>
  </g>
  <g id="desk-019">
    <rect x="200" y="638.65" width="13" height="27.67" fill="#a7a9ac" opacity=".31"/>
  </g>
  <g id="desk-023">
    <rect x="215" y="638.65" width="13" height="27.67" fill="#a7a9ac" opacity=".31"/>
  </g>
  <g id="desk-020">
    <rect x="200" y="667.43" width="13" height="27.67" fill="#a7a9ac" opacity=".31"/>
  </g>
  <g id="desk-024">
    <rect x="215" y="667.43" width="13" height="27.67" fill="#a7a9ac" opacity=".31"/>
  </g>
  <g id="desk-013">
    <rect x="113.11" y="619.32" width="13" height="27.67" transform="translate(-513.54 752.76) rotate(-90)" fill="#a7a9ac" opacity=".31"/>
  </g>
  <g id="desk-011">
    <rect x="113.11" y="604.32" width="13" height="27.67" transform="translate(-498.54 737.76) rotate(-90)" fill="#a7a9ac" opacity=".31"/>
  </g>
  <g id="desk-014">
    <rect x="141.89" y="619.32" width="13" height="27.67" transform="translate(-484.76 781.54) rotate(-90)" fill="#a7a9ac" opacity=".31"/>
  </g>
  <g id="desk-012">
    <rect x="141.89" y="604.32" width="13" height="27.67" transform="translate(-469.76 766.54) rotate(-90)" fill="#a7a9ac" opacity=".31"/>
  </g>
  <g id="desk-015">
    <rect x="142.67" y="668.21" width="13" height="27.67" transform="translate(831.21 532.87) rotate(90)" fill="#a7a9ac" opacity=".31"/>
  </g>
  <g id="desk-018">
    <rect x="142.67" y="683.21" width="13" height="27.67" transform="translate(846.21 547.87) rotate(90)" fill="#a7a9ac" opacity=".31"/>
  </g>
  <g id="desk-016">
    <rect x="113.89" y="668.21" width="13" height="27.67" transform="translate(802.43 561.65) rotate(90)" fill="#a7a9ac" opacity=".31"/>
  </g>
  <g id="desk-017">
    <rect x="113.89" y="683.21" width="13" height="27.67" transform="translate(817.43 576.65) rotate(90)" fill="#a7a9ac" opacity=".31"/>
  </g>
  <g id="desk-009">
    <rect x="30" y="669.21" width="13" height="27.67" transform="translate(-646.54 719.54) rotate(-90)" fill="#a7a9ac" opacity=".31"/>
  </g>
  <g id="desk-007">
    <rect x="30" y="654.21" width="13" height="27.67" transform="translate(-631.54 704.54) rotate(-90)" fill="#a7a9ac" opacity=".31"/>
  </g>
  <g id="desk-010">
    <rect x="58.78" y="669.21" width="13" height="27.67" transform="translate(-617.76 748.32) rotate(-90)" fill="#a7a9ac" opacity=".31"/>
  </g>
  <g id="desk-008">
    <rect x="58.78" y="654.21" width="13" height="27.67" transform="translate(-602.76 733.32) rotate(-90)" fill="#a7a9ac" opacity=".31"/>
  </g>
  <g id="desk-004">
    <rect x="58.22" y="589.32" width="13" height="27.67" transform="translate(667.87 538.43) rotate(90)" fill="#a7a9ac" opacity=".31"/>
  </g>
  <g id="desk-006">
    <rect x="58.22" y="604.32" width="13" height="27.67" transform="translate(682.87 553.43) rotate(90)" fill="#a7a9ac" opacity=".31"/>
  </g>
  <g id="desk-003">
    <rect x="29.44" y="589.32" width="13" height="27.67" transform="translate(639.1 567.21) rotate(90)" fill="#a7a9ac" opacity=".31"/>
  </g>
  <g id="desk-005">
    <rect x="29.44" y="604.32" width="13" height="27.67" transform="translate(654.1 582.21) rotate(90)" fill="#a7a9ac" opacity=".31"/>
  </g>
  <g id="desk-021">
    <rect x="200" y="696.21" width="13" height="27.67" fill="#a7a9ac" opacity=".31"/>
  </g>
  <g id="desk-025">
    <rect x="215" y="696.21" width="13" height="27.67" fill="#a7a9ac" opacity=".31"/>
  </g>
  <g id="desk-022">
    <rect x="200" y="724.99" width="13" height="27.67" fill="#a7a9ac" opacity=".31"/>
  </g>
  <g id="desk-026">
    <rect x="215" y="724.99" width="13" height="27.67" fill="#a7a9ac" opacity=".31"/>
  </g>
  <g id="desk-088">
    <polygon points="550.56 94.78 563.67 94.78 563.67 117.22 581.67 117.22 581.67 125.22 549.67 125.22 550.56 94.78" fill="#a7a9ac" opacity=".31"/>
  </g>
  <g id="desk-084">
    <polygon points="652.56 181.44 640.56 188.56 653.67 209 677.44 209 677.44 195.22 661.89 195.22 652.56 181.44" fill="#a7a9ac" opacity=".31"/>
  </g>
  <g id="desk-083">
    <polygon points="677.33 224.09 677.59 210.14 653.3 210.56 640.81 230.79 652.53 238.03 660.7 224.79 677.33 224.09" fill="#a7a9ac" opacity=".31"/>
  </g>
  <g id="desk-082">
    <polygon points="651.61 239.35 639.4 232.61 628.42 254.27 640.47 274.77 652.35 267.79 644.46 254.38 651.61 239.35" fill="#a7a9ac" opacity=".31"/>
  </g>
  <g id="desk-081">
    <polygon points="628.56 282.22 640.56 275.11 627.44 254.67 603.67 254.67 603.67 268.44 619.22 268.44 628.56 282.22" fill="#a7a9ac" opacity=".31"/>
  </g>
  <g id="desk-080">
    <polygon points="602.1 268.5 602.43 254.56 578.14 254.84 565.54 275.01 577.23 282.31 585.47 269.12 602.1 268.5" fill="#a7a9ac" opacity=".31"/>
  </g>
  <g id="desk-085">
    <polygon points="628.67 224.31 640.79 231.21 652.06 209.7 640.28 189.04 628.31 195.87 636.01 209.38 628.67 224.31" fill="#a7a9ac" opacity=".31"/>
  </g>
  <g id="desk-086">
    <polygon points="603.56 238.42 603.27 252.37 627.55 252.02 640.1 231.83 628.4 224.56 620.19 237.77 603.56 238.42" fill="#a7a9ac" opacity=".31"/>
  </g>
  <g id="desk-087">
    <polygon points="577.67 225.22 565.67 232.33 578.78 252.78 602.56 252.78 602.56 239 587 239 577.67 225.22" fill="#a7a9ac" opacity=".31"/>
  </g>
  <g id="desk-076">
    <polygon points="652.56 294.11 640.56 301.22 653.67 321.67 677.44 321.67 677.44 307.89 661.89 307.89 652.56 294.11" fill="#a7a9ac" opacity=".31"/>
  </g>
  <g id="desk-075">
    <polygon points="677.33 336.76 677.59 322.81 653.3 323.22 640.81 343.45 652.53 350.69 660.7 337.46 677.33 336.76" fill="#a7a9ac" opacity=".31"/>
  </g>
  <g id="desk-074">
    <polygon points="651.61 352.02 639.4 345.28 628.42 366.94 640.47 387.44 652.35 380.46 644.46 367.05 651.61 352.02" fill="#a7a9ac" opacity=".31"/>
  </g>
  <g id="desk-073">
    <polygon points="628.56 394.89 640.56 387.78 627.44 367.33 603.67 367.33 603.67 381.11 619.22 381.11 628.56 394.89" fill="#a7a9ac" opacity=".31"/>
  </g>
  <g id="desk-072">
    <polygon points="602.1 381.17 602.43 367.22 578.14 367.51 565.54 387.67 577.23 394.98 585.47 381.78 602.1 381.17" fill="#a7a9ac" opacity=".31"/>
  </g>
  <g id="desk-077">
    <polygon points="628.67 336.98 640.79 343.88 652.06 322.37 640.28 301.71 628.31 308.53 636.01 322.05 628.67 336.98" fill="#a7a9ac" opacity=".31"/>
  </g>
  <g id="desk-078">
    <polygon points="603.56 351.09 603.27 365.04 627.55 364.69 640.1 344.49 628.4 337.22 620.19 350.44 603.56 351.09" fill="#a7a9ac" opacity=".31"/>
  </g>
  <g id="desk-079">
    <polygon points="577.67 337.89 565.67 345 578.78 365.44 602.56 365.44 602.56 351.67 587 351.67 577.67 337.89" fill="#a7a9ac" opacity=".31"/>
  </g>
  <g id="desk-068">
    <polygon points="652.68 411.05 640.68 418.16 653.79 438.6 677.57 438.6 677.57 424.83 662.01 424.83 652.68 411.05" fill="#a7a9ac" opacity=".31"/>
  </g>
  <g id="desk-067">
    <polygon points="677.45 453.69 677.71 439.75 653.42 440.16 640.93 460.39 652.65 467.63 660.83 454.39 677.45 453.69" fill="#a7a9ac" opacity=".31"/>
  </g>
  <g id="desk-066">
    <polygon points="651.74 468.96 639.53 462.21 628.54 483.87 640.59 504.37 652.47 497.39 644.59 483.98 651.74 468.96" fill="#a7a9ac" opacity=".31"/>
  </g>
  <g id="desk-065">
    <polygon points="628.68 511.83 640.68 504.71 627.57 484.27 603.79 484.27 603.79 498.05 619.35 498.05 628.68 511.83" fill="#a7a9ac" opacity=".31"/>
  </g>
  <g id="desk-064">
    <polygon points="602.22 498.11 602.55 484.16 578.27 484.45 565.66 504.61 577.35 511.91 585.59 498.72 602.22 498.11" fill="#a7a9ac" opacity=".31"/>
  </g>
  <g id="desk-069">
    <polygon points="628.79 453.91 640.91 460.82 652.18 439.3 640.4 418.64 628.43 425.47 636.14 438.98 628.79 453.91" fill="#a7a9ac" opacity=".31"/>
  </g>
  <g id="desk-070">
    <polygon points="603.69 468.03 603.39 481.97 627.68 481.63 640.23 461.43 628.52 454.16 620.31 467.37 603.69 468.03" fill="#a7a9ac" opacity=".31"/>
  </g>
  <g id="desk-071">
    <polygon points="577.79 454.83 565.79 461.94 578.9 482.38 602.68 482.38 602.68 468.6 587.12 468.6 577.79 454.83" fill="#a7a9ac" opacity=".31"/>
  </g>
  <g id="desk-060">
    <polygon points="652.8 527.98 640.8 535.1 653.91 555.54 677.69 555.54 677.69 541.76 662.13 541.76 652.8 527.98" fill="#a7a9ac" opacity=".31"/>
  </g>
  <g id="desk-059">
    <polygon points="677.58 570.63 677.83 556.68 653.55 557.1 641.05 577.33 652.78 584.57 660.95 571.33 677.58 570.63" fill="#a7a9ac" opacity=".31"/>
  </g>
  <g id="desk-058">
    <polygon points="651.86 585.89 639.65 579.15 628.67 600.81 640.71 621.31 652.59 614.33 644.71 600.92 651.86 585.89" fill="#a7a9ac" opacity=".31"/>
  </g>
  <g id="desk-057">
    <polygon points="628.8 628.76 640.8 621.65 627.69 601.21 603.91 601.21 603.91 614.98 619.47 614.98 628.8 628.76" fill="#a7a9ac" opacity=".31"/>
  </g>
  <g id="desk-054">
    <polygon points="615.99 666.13 608.59 677.95 629.61 690.12 650.74 679.22 644.43 666.98 630.6 674.1 615.99 666.13" fill="#a7a9ac" opacity=".31"/>
  </g>
  <g id="desk-055">
    <polygon points="658.32 691.15 651.36 679.07 630.76 691.93 630.46 715.7 644.24 715.87 644.43 700.32 658.32 691.15" fill="#a7a9ac" opacity=".31"/>
  </g>
  <g id="desk-053">
    <polygon points="614.97 715.99 628.92 716.21 628.44 691.92 608.18 679.48 600.97 691.22 614.23 699.36 614.97 715.99" fill="#a7a9ac" opacity=".31"/>
  </g>
  <g id="desk-050">
    <polygon points="571.71 649.65 557.78 648.96 557.43 673.25 577.27 686.37 584.87 674.88 571.89 666.29 571.71 649.65" fill="#a7a9ac" opacity=".31"/>
  </g>
  <g id="desk-051">
    <polygon points="570.56 698.81 577.7 686.83 556.42 675.13 535.53 686.49 542.11 698.59 555.78 691.16 570.56 698.81" fill="#a7a9ac" opacity=".31"/>
  </g>
  <g id="desk-049">
    <polygon points="527.71 673.11 534.34 685.39 555.29 673.11 556.25 649.35 542.48 648.8 541.86 664.34 527.71 673.11" fill="#a7a9ac" opacity=".31"/>
  </g>
  <g id="desk-048">
    <polygon points="499.4 673.57 492 685.39 513.04 697.54 534.16 686.63 527.84 674.39 514.02 681.53 499.4 673.57" fill="#a7a9ac" opacity=".31"/>
  </g>
  <g id="desk-052">
    <polygon points="541.75 698.55 534.78 686.47 514.19 699.35 513.91 723.12 527.69 723.28 527.87 707.73 541.75 698.55" fill="#a7a9ac" opacity=".31"/>
  </g>
  <g id="desk-047">
    <polygon points="498.42 723.42 512.37 723.63 511.87 699.35 491.6 686.92 484.4 698.67 497.66 706.8 498.42 723.42" fill="#a7a9ac" opacity=".31"/>
  </g>
  <g id="desk-056">
    <polygon points="602.35 615.04 602.67 601.1 578.39 601.38 565.79 621.55 577.47 628.85 585.71 615.66 602.35 615.04" fill="#a7a9ac" opacity=".31"/>
  </g>
  <g id="desk-061">
    <polygon points="628.91 570.85 641.03 577.75 652.3 556.24 640.53 535.58 628.56 542.4 636.26 555.92 628.91 570.85" fill="#a7a9ac" opacity=".31"/>
  </g>
  <g id="desk-062">
    <polygon points="603.81 584.96 603.52 598.91 627.8 598.56 640.35 578.37 628.65 571.1 620.44 584.31 603.81 584.96" fill="#a7a9ac" opacity=".31"/>
  </g>
  <g id="desk-063">
    <polygon points="577.91 571.76 565.91 578.87 579.02 599.32 602.8 599.32 602.8 585.54 587.25 585.54 577.91 571.76" fill="#a7a9ac" opacity=".31"/>
  </g>
  <g id="desk-046">
    <rect x="597.44" y="751" width="22.67" height="13.11" fill="#a7a9ac" opacity=".29"/>
  </g>
  <g id="desk-045">
    <rect x="573.67" y="751" width="22.44" height="13.11" fill="#a7a9ac" opacity=".31"/>
  </g>
  <g id="desk-044">
    <rect x="530.33" y="751" width="23.33" height="13.11" fill="#a7a9ac" opacity=".29"/>
  </g>
  <g id="desk-043">
    <polygon points="506.11 751 506.11 764.11 529 764.11 529 751.44 506.11 751" fill="#a7a9ac" opacity=".32"/>
  </g>
  <g id="desk-001">
    <rect x="13.22" y="508.56" width="13.11" height="23.11" fill="#a7a9ac" opacity=".29"/>
  </g>
  <g id="desk-002">
    <rect x="13.22" y="533.22" width="13.11" height="22.22" fill="#a7a9ac" opacity=".29"/>
  </g>
</svg>