<?xml version="1.0" encoding="UTF-8"?>
<svg id="Layer_2" data-name="Layer 2" xmlns="http://www.w3.org/2000/svg" viewBox="0 0 550 640">
  <g id="desk-101">
    <polygon points="300.81 37.73 311.94 37.86 311.81 60.01 300.55 60.01 300.81 37.73" fill="#a7a9ac" opacity=".3"/>
  </g>
  <g id="desk-100">
    <polygon points="300.81 59.88 311.94 60.01 311.81 82.15 300.55 82.15 300.81 59.88" fill="#a7a9ac" opacity=".3"/>
  </g>
  <g id="desk-099">
    <polygon points="301.06 82.41 312.2 82.54 312.07 104.68 300.81 104.68 301.06 82.41" fill="#a7a9ac" opacity=".3"/>
  </g>
  <g id="desk-098">
    <polygon points="300.42 104.42 311.55 104.55 311.42 126.7 300.16 126.7 300.42 104.42" fill="#a7a9ac" opacity=".3"/>
  </g>
  <g id="desk-105">
    <polygon points="147.87 36.96 159.01 37.09 158.88 59.23 147.61 59.23 147.87 36.96" fill="#a7a9ac" opacity=".3"/>
  </g>
  <g id="desk-104">
    <polygon points="147.87 59.1 159.01 59.23 158.88 81.37 147.61 81.37 147.87 59.1" fill="#a7a9ac" opacity=".3"/>
  </g>
  <g id="desk-103">
    <polygon points="148.13 81.63 159.27 81.76 159.14 103.91 147.87 103.91 148.13 81.63" fill="#a7a9ac" opacity=".3"/>
  </g>
  <g id="desk-102">
    <polygon points="147.48 103.65 158.62 103.78 158.49 125.92 147.22 125.92 147.48 103.65" fill="#a7a9ac" opacity=".3"/>
  </g>
  <g id="desk-14A">
    <polygon points="82.22 94.06 93.35 94.25 93.22 126.44 81.96 126.44 82.22 94.06" fill="#a7a9ac" opacity=".3"/>
  </g>
  <g id="desk-096">
    <polygon points="342.24 38.64 353.38 38.77 353.25 60.91 341.99 60.91 342.24 38.64" fill="#a7a9ac" opacity=".3"/>
  </g>
  <g id="desk-095">
    <polygon points="342.24 60.78 353.38 60.91 353.25 83.06 341.99 83.06 342.24 60.78" fill="#a7a9ac" opacity=".3"/>
  </g>
  <g id="desk-094">
    <polygon points="342.5 83.32 353.64 83.45 353.51 105.59 342.24 105.59 342.5 83.32" fill="#a7a9ac" opacity=".3"/>
  </g>
  <g id="desk-093">
    <polygon points="341.86 105.33 352.99 105.46 352.86 127.6 341.6 127.6 341.86 105.33" fill="#a7a9ac" opacity=".3"/>
  </g>
  <g id="desk-091">
    <polygon points="353.64 38.64 364.78 38.77 364.65 60.91 353.38 60.91 353.64 38.64" fill="#a7a9ac" opacity=".3"/>
  </g>
  <g id="desk-090">
    <polygon points="353.64 60.78 364.78 60.91 364.65 83.06 353.38 83.06 353.64 60.78" fill="#a7a9ac" opacity=".3"/>
  </g>
  <g id="desk-089">
    <polygon points="353.9 83.32 365.04 83.45 364.91 105.59 353.64 105.59 353.9 83.32" fill="#a7a9ac" opacity=".3"/>
  </g>
  <g id="desk-088">
    <polygon points="353.25 105.33 364.39 105.46 364.26 127.6 352.99 127.6 353.25 105.33" fill="#a7a9ac" opacity=".3"/>
  </g>
  <g id="desk-087">
    <polygon points="392.86 24.24 404 24.4 403.81 46.54 392.55 46.51 392.86 24.24" fill="#a7a9ac" opacity=".3"/>
  </g>
  <g id="desk-092">
    <polygon points="353.63 16.6 364.76 16.76 364.58 38.9 353.31 38.87 353.63 16.6" fill="#a7a9ac" opacity=".3"/>
  </g>
  <g id="desk-086">
    <polygon points="392.81 46.38 403.94 46.54 403.76 68.68 392.49 68.65 392.81 46.38" fill="#a7a9ac" opacity=".3"/>
  </g>
  <g id="desk-085">
    <polygon points="393.01 68.91 404.14 69.07 403.96 91.22 392.69 91.19 393.01 68.91" fill="#a7a9ac" opacity=".3"/>
  </g>
  <g id="desk-084">
    <polygon points="392.3 90.93 403.44 91.09 403.25 113.23 391.99 113.2 392.3 90.93" fill="#a7a9ac" opacity=".3"/>
  </g>
  <g id="desk-080">
    <polygon points="404.35 90.93 415.48 91.09 415.29 113.23 404.03 113.2 404.35 90.93" fill="#a7a9ac" opacity=".3"/>
  </g>
  <g id="desk-083">
    <polygon points="404.26 24.27 415.4 24.43 415.21 46.57 403.94 46.54 404.26 24.27" fill="#a7a9ac" opacity=".3"/>
  </g>
  <g id="desk-082">
    <polygon points="404.2 46.41 415.34 46.57 415.15 68.71 403.89 68.68 404.2 46.41" fill="#a7a9ac" opacity=".3"/>
  </g>
  <g id="desk-081">
    <polygon points="404.4 68.94 415.54 69.1 415.35 91.25 404.09 91.22 404.4 68.94" fill="#a7a9ac" opacity=".3"/>
  </g>
  <g id="desk-071">
    <polygon points="533.33 207.03 533.25 218.17 511.11 218.14 511.05 206.88 533.33 207.03" fill="#a7a9ac" opacity=".3"/>
  </g>
  <g id="desk-070">
    <polygon points="511.18 207.14 511.11 218.27 488.96 218.25 488.91 206.99 511.18 207.14" fill="#a7a9ac" opacity=".3"/>
  </g>
  <g id="desk-069">
    <polygon points="488.65 207.5 488.58 218.64 466.43 218.62 466.38 207.35 488.65 207.5" fill="#a7a9ac" opacity=".3"/>
  </g>
  <g id="desk-068">
    <polygon points="466.64 206.96 466.56 218.1 444.42 218.08 444.36 206.81 466.64 206.96" fill="#a7a9ac" opacity=".3"/>
  </g>
  <g id="desk-064">
    <polygon points="466.73 219.01 466.65 230.14 444.51 230.12 444.45 218.86 466.73 219.01" fill="#a7a9ac" opacity=".3"/>
  </g>
  <g id="desk-067">
    <polygon points="533.38 218.43 533.31 229.56 511.16 229.54 511.11 218.27 533.38 218.43" fill="#a7a9ac" opacity=".3"/>
  </g>
  <g id="desk-066">
    <polygon points="511.24 218.53 511.16 229.67 489.02 229.65 488.96 218.38 511.24 218.53" fill="#a7a9ac" opacity=".3"/>
  </g>
  <g id="desk-065">
    <polygon points="488.71 218.9 488.63 230.04 466.49 230.02 466.43 218.75 488.71 218.9" fill="#a7a9ac" opacity=".3"/>
  </g>
  <g id="desk-063">
    <polygon points="541.23 254.55 541.15 265.69 519.01 265.67 518.95 254.4 541.23 254.55" fill="#a7a9ac" opacity=".3"/>
  </g>
  <g id="desk-062">
    <polygon points="519.08 254.66 519.01 265.8 496.86 265.78 496.81 254.51 519.08 254.66" fill="#a7a9ac" opacity=".3"/>
  </g>
  <g id="desk-061">
    <polygon points="496.55 255.03 496.48 266.17 474.33 266.14 474.28 254.88 496.55 255.03" fill="#a7a9ac" opacity=".3"/>
  </g>
  <g id="desk-060">
    <polygon points="474.53 254.49 474.46 265.63 452.31 265.6 452.26 254.34 474.53 254.49" fill="#a7a9ac" opacity=".3"/>
  </g>
  <g id="desk-056">
    <polygon points="474.62 266.53 474.55 277.67 452.4 277.65 452.35 266.38 474.62 266.53" fill="#a7a9ac" opacity=".3"/>
  </g>
  <g id="desk-059">
    <polygon points="541.28 265.95 541.21 277.09 519.06 277.07 519.01 265.8 541.28 265.95" fill="#a7a9ac" opacity=".3"/>
  </g>
  <g id="desk-058">
    <polygon points="519.14 266.06 519.06 277.19 496.92 277.17 496.86 265.91 519.14 266.06" fill="#a7a9ac" opacity=".3"/>
  </g>
  <g id="desk-057">
    <polygon points="496.61 266.43 496.53 277.56 474.39 277.54 474.33 266.27 496.61 266.43" fill="#a7a9ac" opacity=".3"/>
  </g>
  <g id="desk-055">
    <polygon points="533.46 303.12 533.38 314.25 511.24 314.23 511.18 302.96 533.46 303.12" fill="#a7a9ac" opacity=".3"/>
  </g>
  <g id="desk-054">
    <polygon points="511.31 303.22 511.24 314.36 489.09 314.34 489.04 303.07 511.31 303.22" fill="#a7a9ac" opacity=".3"/>
  </g>
  <g id="desk-053">
    <polygon points="488.78 303.59 488.71 314.73 466.56 314.71 466.51 303.44 488.78 303.59" fill="#a7a9ac" opacity=".3"/>
  </g>
  <g id="desk-052">
    <polygon points="466.76 303.05 466.69 314.19 444.55 314.16 444.49 302.9 466.76 303.05" fill="#a7a9ac" opacity=".3"/>
  </g>
  <g id="desk-048">
    <polygon points="466.85 315.09 466.78 326.23 444.63 326.21 444.58 314.94 466.85 315.09" fill="#a7a9ac" opacity=".3"/>
  </g>
  <g id="desk-051">
    <polygon points="533.51 314.51 533.44 325.65 511.29 325.63 511.24 314.36 533.51 314.51" fill="#a7a9ac" opacity=".3"/>
  </g>
  <g id="desk-050">
    <polygon points="511.37 314.62 511.29 325.76 489.15 325.73 489.09 314.47 511.37 314.62" fill="#a7a9ac" opacity=".3"/>
  </g>
  <g id="desk-049">
    <polygon points="488.84 314.99 488.76 326.12 466.62 326.1 466.56 314.84 488.84 314.99" fill="#a7a9ac" opacity=".3"/>
  </g>
  <g id="desk-047">
    <polygon points="533.2 350.64 533.12 361.78 510.98 361.76 510.92 350.49 533.2 350.64" fill="#a7a9ac" opacity=".3"/>
  </g>
  <g id="desk-046">
    <polygon points="511.05 350.75 510.98 361.89 488.83 361.86 488.78 350.6 511.05 350.75" fill="#a7a9ac" opacity=".3"/>
  </g>
  <g id="desk-045">
    <polygon points="488.52 351.12 488.45 362.25 466.3 362.23 466.25 350.96 488.52 351.12" fill="#a7a9ac" opacity=".3"/>
  </g>
  <g id="desk-044">
    <polygon points="466.51 350.58 466.43 361.71 444.29 361.69 444.23 350.42 466.51 350.58" fill="#a7a9ac" opacity=".3"/>
  </g>
  <g id="desk-040">
    <polygon points="466.6 362.62 466.52 373.76 444.38 373.73 444.32 362.47 466.6 362.62" fill="#a7a9ac" opacity=".3"/>
  </g>
  <g id="desk-043">
    <polygon points="533.25 362.04 533.18 373.17 511.03 373.15 510.98 361.89 533.25 362.04" fill="#a7a9ac" opacity=".3"/>
  </g>
  <g id="desk-0425">
    <polygon points="511.11 362.14 511.03 373.28 488.89 373.26 488.83 361.99 511.11 362.14" fill="#a7a9ac" opacity=".3"/>
  </g>
  <g id="desk-041">
    <polygon points="488.58 362.51 488.5 373.65 466.36 373.63 466.3 362.36 488.58 362.51" fill="#a7a9ac" opacity=".3"/>
  </g>
  <g id="desk-039">
    <polygon points="542.13 398.68 542.06 409.82 519.91 409.8 519.86 398.53 542.13 398.68" fill="#a7a9ac" opacity=".3"/>
  </g>
  <g id="desk-038">
    <polygon points="519.99 398.79 519.91 409.93 497.77 409.91 497.71 398.64 519.99 398.79" fill="#a7a9ac" opacity=".3"/>
  </g>
  <g id="desk-037">
    <polygon points="497.46 399.16 497.38 410.3 475.24 410.27 475.18 399.01 497.46 399.16" fill="#a7a9ac" opacity=".3"/>
  </g>
  <g id="desk-036">
    <polygon points="475.44 398.62 475.37 409.76 453.22 409.73 453.17 398.47 475.44 398.62" fill="#a7a9ac" opacity=".3"/>
  </g>
  <g id="desk-032">
    <polygon points="475.53 410.66 475.46 421.8 453.31 421.78 453.26 410.51 475.53 410.66" fill="#a7a9ac" opacity=".3"/>
  </g>
  <g id="desk-035">
    <polygon points="542.19 410.08 542.11 421.22 519.97 421.19 519.91 409.93 542.19 410.08" fill="#a7a9ac" opacity=".3"/>
  </g>
  <g id="desk-034">
    <polygon points="520.04 410.19 519.97 421.32 497.82 421.3 497.77 410.04 520.04 410.19" fill="#a7a9ac" opacity=".3"/>
  </g>
  <g id="desk-033">
    <polygon points="497.51 410.55 497.44 421.69 475.29 421.67 475.24 410.4 497.51 410.55" fill="#a7a9ac" opacity=".3"/>
  </g>
  <g id="desk-031">
    <polygon points="530.61 447.25 530.53 458.38 508.39 458.36 508.33 447.09 530.61 447.25" fill="#a7a9ac" opacity=".3"/>
  </g>
  <g id="desk-030">
    <polygon points="508.46 447.35 508.39 458.49 486.24 458.47 486.19 447.2 508.46 447.35" fill="#a7a9ac" opacity=".3"/>
  </g>
  <g id="desk-029">
    <polygon points="485.93 447.72 485.86 458.86 463.71 458.84 463.66 447.57 485.93 447.72" fill="#a7a9ac" opacity=".3"/>
  </g>
  <g id="desk-028">
    <polygon points="463.92 447.18 463.84 458.32 441.7 458.29 441.64 447.03 463.92 447.18" fill="#a7a9ac" opacity=".3"/>
  </g>
  <g id="desk-024">
    <polygon points="464.01 459.22 463.93 470.36 441.79 470.34 441.73 459.07 464.01 459.22" fill="#a7a9ac" opacity=".3"/>
  </g>
  <g id="desk-026">
    <polygon points="508.52 458.75 508.44 469.89 486.3 469.86 486.24 458.6 508.52 458.75" fill="#a7a9ac" opacity=".3"/>
  </g>
  <g id="desk-025">
    <polygon points="485.99 459.12 485.91 470.25 463.77 470.23 463.71 458.96 485.99 459.12" fill="#a7a9ac" opacity=".3"/>
  </g>
  <g id="desk-097">
    <polygon points="328 32.42 341.34 32.55 341.73 14.04 352.86 14.29 352.73 38.12 327.87 38.25 328 32.42" fill="#a7a9ac" opacity=".3"/>
  </g>
  <g id="desk-078">
    <polygon points="511.1 158.89 511 170.02 488.85 169.95 488.82 158.69 511.1 158.89" fill="#a7a9ac" opacity=".3"/>
  </g>
  <g id="desk-077">
    <polygon points="488.95 158.95 488.85 170.08 466.71 170.01 466.68 158.74 488.95 158.95" fill="#a7a9ac" opacity=".3"/>
  </g>
  <g id="desk-078-2" data-name="desk-078">
    <polygon points="466.42 159.26 466.32 170.4 444.18 170.33 444.15 159.06 466.42 159.26" fill="#a7a9ac" opacity=".3"/>
  </g>
  <g id="desk-074">
    <polygon points="511.13 170.28 511.03 181.42 488.88 181.35 488.85 170.08 511.13 170.28" fill="#a7a9ac" opacity=".3"/>
  </g>
  <g id="desk-073">
    <polygon points="488.98 170.34 488.88 181.48 466.74 181.41 466.71 170.14 488.98 170.34" fill="#a7a9ac" opacity=".3"/>
  </g>
  <g id="desk-072">
    <polygon points="466.45 170.66 466.35 181.8 444.21 181.72 444.18 170.46 466.45 170.66" fill="#a7a9ac" opacity=".3"/>
  </g>
  <g id="desk-075">
    <polygon points="533.17 170.21 533.04 181.35 510.9 181.22 510.9 169.95 533.17 170.21" fill="#a7a9ac" opacity=".3"/>
  </g>
  <g id="desk-079">
    <polygon points="517.28 144.63 517.18 157.96 535.7 158.3 535.47 169.44 511.64 169.37 511.45 144.51 517.28 144.63" fill="#a7a9ac" opacity=".3"/>
  </g>
  <g id="desk-027">
    <polygon points="514.35 482.68 507.87 482.55 508.39 458.36 532.86 458.47 532.99 469.35 514.47 469.22 514.35 482.68" fill="#a7a9ac" opacity=".3"/>
  </g>
  <g id="desk-001">
    <polygon points="111.87 423.12 112 433.86 89.73 434.12 89.6 422.99 111.87 423.12" fill="#a7a9ac" opacity=".3"/>
  </g>
  <g id="desk-004">
    <polygon points="112.09 434.73 112.09 445.86 89.9 446.04 89.9 434.73 112.09 434.73" fill="#a7a9ac" opacity=".3"/>
  </g>
  <g id="desk-002">
    <polygon points="89.77 423.12 89.9 433.86 67.63 434.12 67.5 422.99 89.77 423.12" fill="#a7a9ac" opacity=".3"/>
  </g>
  <g id="desk-005">
    <polygon points="89.99 434.73 89.99 445.86 67.8 446.04 67.8 434.73 89.99 434.73" fill="#a7a9ac" opacity=".3"/>
  </g>
  <g id="desk-003">
    <polygon points="67.5 422.94 67.63 433.69 45.35 433.95 45.22 422.81 67.5 422.94" fill="#a7a9ac" opacity=".3"/>
  </g>
  <g id="desk-006">
    <polygon points="67.71 434.55 67.71 445.69 45.53 445.86 45.53 434.55 67.71 434.55" fill="#a7a9ac" opacity=".3"/>
  </g>
  <g id="desk-018">
    <polygon points="72.39 534.88 61.64 535.02 61.36 512.75 72.49 512.61 72.39 534.88" fill="#a7a9ac" opacity=".3"/>
  </g>
  <g id="desk-014">
    <polygon points="60.77 535.11 49.64 535.12 49.44 512.93 60.75 512.92 60.77 535.11" fill="#a7a9ac" opacity=".3"/>
  </g>
  <g id="desk-019">
    <polygon points="72.56 557.24 61.81 557.38 61.53 535.11 72.67 534.97 72.56 557.24" fill="#a7a9ac" opacity=".3"/>
  </g>
  <g id="desk-015">
    <polygon points="60.95 557.47 49.81 557.48 49.62 535.29 60.93 535.28 60.95 557.47" fill="#a7a9ac" opacity=".3"/>
  </g>
  <g id="desk-017">
    <polygon points="72.36 512.78 61.62 512.92 61.33 490.65 72.47 490.51 72.36 512.78" fill="#a7a9ac" opacity=".3"/>
  </g>
  <g id="desk-013">
    <polygon points="60.75 513.01 49.62 513.02 49.42 490.83 60.73 490.82 60.75 513.01" fill="#a7a9ac" opacity=".3"/>
  </g>
  <g id="desk-016">
    <polygon points="72.51 490.51 61.77 490.65 61.48 468.37 72.62 468.23 72.51 490.51" fill="#a7a9ac" opacity=".3"/>
  </g>
  <g id="desk-022">
    <polygon points="112.36 534.71 101.61 534.85 101.33 512.58 112.46 512.43 112.36 534.71" fill="#a7a9ac" opacity=".3"/>
  </g>
  <g id="desk-023">
    <polygon points="112.53 557.07 101.78 557.21 101.5 534.93 112.64 534.79 112.53 557.07" fill="#a7a9ac" opacity=".3"/>
  </g>
  <g id="desk-002A">
    <polygon points="92.67 587.08 81.93 587.25 81.64 559.04 92.77 558.87 92.67 587.08" fill="#a7a9ac" opacity=".3"/>
  </g>
  <g id="desk021">
    <polygon points="112.34 512.61 101.59 512.75 101.31 490.47 112.44 490.33 112.34 512.61" fill="#a7a9ac" opacity=".3"/>
  </g>
  <g id="desk-020">
    <polygon points="112.49 490.33 101.74 490.47 101.46 468.2 112.59 468.06 112.49 490.33" fill="#a7a9ac" opacity=".3"/>
  </g>
  <g id="desk-010">
    <polygon points="18.86 531.08 8.11 531.22 7.83 508.95 18.97 508.81 18.86 531.08" fill="#a7a9ac" opacity=".3"/>
  </g>
  <g id="desk-011">
    <polygon points="19.03 553.44 8.29 553.58 8 531.31 19.14 531.17 19.03 553.44" fill="#a7a9ac" opacity=".3"/>
  </g>
  <g id="desk-009">
    <polygon points="18.84 508.98 8.09 509.12 7.81 486.85 18.95 486.71 18.84 508.98" fill="#a7a9ac" opacity=".3"/>
  </g>
  <g id="desk-008">
    <polygon points="18.99 486.71 8.24 486.85 7.96 464.58 19.1 464.43 18.99 486.71" fill="#a7a9ac" opacity=".3"/>
  </g>
  <g id="desk-012">
    <polygon points="60.9 490.73 49.77 490.75 49.57 468.56 60.88 468.55 60.9 490.73" fill="#a7a9ac" opacity=".3"/>
  </g>
</svg>