<?xml version="1.0" encoding="UTF-8"?>
<svg id="Layer_2" data-name="Layer 2" xmlns="http://www.w3.org/2000/svg" viewBox="0 0 550 640">
  <g id="desk-109">
    <polygon points="185.03 71.79 196.17 71.88 196.09 93.98 184.78 94.06 185.03 71.79" fill="#bcbec0" opacity=".3"/>
  </g>
  <g id="desk-105">
    <polygon points="197.03 71.79 208.17 71.88 208.09 93.98 196.78 94.06 197.03 71.79" fill="#bcbec0" opacity=".3"/>
  </g>
  <g id="desk-104">
    <polygon points="196.94 94.67 208.09 94.76 208 116.86 196.69 116.94 196.94 94.67" fill="#bcbec0" opacity=".3"/>
  </g>
  <g id="desk-108">
    <polygon points="185.29 94.84 196.43 94.93 196.35 117.03 185.04 117.12 185.29 94.84" fill="#bcbec0" opacity=".3"/>
  </g>
  <g id="desk-111">
    <polygon points="185.29 26.47 196.43 26.55 196.35 48.65 185.04 48.74 185.29 26.47" fill="#bcbec0" opacity=".3"/>
  </g>
  <g id="desk-107">
    <polygon points="197.29 26.47 208.43 26.55 208.35 48.65 197.04 48.74 197.29 26.47" fill="#bcbec0" opacity=".3"/>
  </g>
  <g id="desk106">
    <polygon points="197.2 49.35 208.35 49.43 208.26 71.53 196.95 71.62 197.2 49.35" fill="#bcbec0" opacity=".3"/>
  </g>
  <g id="desk-110">
    <polygon points="185.55 49.52 196.69 49.6 196.61 71.71 185.29 71.79 185.55 49.52" fill="#bcbec0" opacity=".3"/>
  </g>
  <g id="desk-101">
    <polygon points="234.93 71.88 246.07 71.96 245.99 94.06 234.68 94.15 234.93 71.88" fill="#bcbec0" opacity=".3"/>
  </g>
  <g id="desk-097">
    <polygon points="246.93 71.88 258.07 71.96 257.99 94.06 246.68 94.15 246.93 71.88" fill="#bcbec0" opacity=".3"/>
  </g>
  <g id="desk-096">
    <polygon points="246.84 94.76 257.99 94.84 257.9 116.94 246.59 117.03 246.84 94.76" fill="#bcbec0" opacity=".3"/>
  </g>
  <g id="desk-100">
    <polygon points="235.19 94.93 246.33 95.01 246.25 117.12 234.94 117.2 235.19 94.93" fill="#bcbec0" opacity=".3"/>
  </g>
  <g id="desk-103">
    <polygon points="235.19 26.55 246.33 26.64 246.25 48.74 234.94 48.83 235.19 26.55" fill="#bcbec0" opacity=".3"/>
  </g>
  <g id="desk-099">
    <polygon points="247.19 26.55 258.33 26.64 258.25 48.74 246.94 48.83 247.19 26.55" fill="#bcbec0" opacity=".3"/>
  </g>
  <g id="desk-098">
    <polygon points="247.1 49.43 258.24 49.52 258.16 71.62 246.85 71.71 247.1 49.43" fill="#bcbec0" opacity=".3"/>
  </g>
  <g id="desk-102">
    <polygon points="235.45 49.6 246.59 49.69 246.51 71.79 235.19 71.88 235.45 49.6" fill="#bcbec0" opacity=".3"/>
  </g>
  <g id="desk-093">
    <polygon points="387.04 71.88 398.19 71.96 398.1 94.06 386.79 94.15 387.04 71.88" fill="#bcbec0" opacity=".3"/>
  </g>
  <g id="desk-089">
    <polygon points="399.04 71.88 410.19 71.96 410.1 94.06 398.79 94.15 399.04 71.88" fill="#bcbec0" opacity=".3"/>
  </g>
  <g id="desk-088">
    <polygon points="398.96 94.76 410.1 94.84 410.02 116.94 398.71 117.03 398.96 94.76" fill="#bcbec0" opacity=".3"/>
  </g>
  <g id="desk-092">
    <polygon points="387.3 94.93 398.45 95.01 398.36 117.12 387.05 117.2 387.3 94.93" fill="#bcbec0" opacity=".3"/>
  </g>
  <g id="desk-095">
    <polygon points="387.3 26.55 398.45 26.64 398.36 48.74 387.05 48.83 387.3 26.55" fill="#bcbec0" opacity=".3"/>
  </g>
  <g id="desk-091">
    <polygon points="399.3 26.55 410.45 26.64 410.36 48.74 399.05 48.83 399.3 26.55" fill="#bcbec0" opacity=".3"/>
  </g>
  <g id="desk-090">
    <polygon points="399.22 49.43 410.36 49.52 410.28 71.62 398.96 71.71 399.22 49.43" fill="#bcbec0" opacity=".3"/>
  </g>
  <g id="desk-094">
    <polygon points="387.56 49.6 398.71 49.69 398.62 71.79 387.31 71.88 387.56 49.6" fill="#bcbec0" opacity=".3"/>
  </g>
  <g id="desk-037">
    <polygon points="264.02 553.86 275.17 553.95 275.08 576.05 263.77 576.14 264.02 553.86" fill="#bcbec0" opacity=".3"/>
  </g>
  <g id="desk-041">
    <polygon points="276.02 553.86 287.17 553.95 287.08 576.05 275.77 576.14 276.02 553.86" fill="#bcbec0" opacity=".3"/>
  </g>
  <g id="desk-042">
    <polygon points="275.94 576.74 287.08 576.83 286.99 598.93 275.68 599.01 275.94 576.74" fill="#bcbec0" opacity=".3"/>
  </g>
  <g id="desk-038">
    <polygon points="264.28 576.91 275.42 577 275.34 599.1 264.03 599.19 264.28 576.91" fill="#bcbec0" opacity=".3"/>
  </g>
  <g id="desk-035">
    <polygon points="264.28 508.54 275.42 508.63 275.34 530.73 264.03 530.81 264.28 508.54" fill="#bcbec0" opacity=".3"/>
  </g>
  <g id="desk-038-2" data-name="desk-038">
    <polygon points="276.28 508.54 287.42 508.63 287.34 530.73 276.03 530.81 276.28 508.54" fill="#bcbec0" opacity=".3"/>
  </g>
  <g id="desk-040">
    <polygon points="276.2 531.42 287.34 531.5 287.25 553.6 275.94 553.69 276.2 531.42" fill="#bcbec0" opacity=".3"/>
  </g>
  <g id="desk-036">
    <polygon points="264.54 531.59 275.68 531.68 275.6 553.78 264.29 553.86 264.54 531.59" fill="#bcbec0" opacity=".3"/>
  </g>
  <g id="desk-029">
    <polygon points="209.38 554.38 220.52 554.47 220.43 576.57 209.12 576.65 209.38 554.38" fill="#bcbec0" opacity=".3"/>
  </g>
  <g id="desk-033">
    <polygon points="221.38 554.38 232.52 554.47 232.43 576.57 221.12 576.65 221.38 554.38" fill="#bcbec0" opacity=".3"/>
  </g>
  <g id="desk-034">
    <polygon points="221.29 577.26 232.43 577.35 232.35 599.45 221.04 599.53 221.29 577.26" fill="#bcbec0" opacity=".3"/>
  </g>
  <g id="desk-030">
    <polygon points="209.63 577.43 220.78 577.52 220.69 599.62 209.38 599.71 209.63 577.43" fill="#bcbec0" opacity=".3"/>
  </g>
  <g id="desk-027">
    <polygon points="209.63 509.06 220.78 509.14 220.69 531.24 209.38 531.33 209.63 509.06" fill="#bcbec0" opacity=".3"/>
  </g>
  <g id="desk-031">
    <polygon points="221.63 509.06 232.78 509.14 232.69 531.24 221.38 531.33 221.63 509.06" fill="#bcbec0" opacity=".3"/>
  </g>
  <g id="desk-032">
    <polygon points="221.55 531.94 232.69 532.02 232.61 554.12 221.29 554.21 221.55 531.94" fill="#bcbec0" opacity=".3"/>
  </g>
  <g id="desk-028">
    <polygon points="209.89 532.11 221.04 532.19 220.95 554.29 209.64 554.38 209.89 532.11" fill="#bcbec0" opacity=".3"/>
  </g>
  <g id="desk-021">
    <polygon points="157.8 544.8 168.94 544.88 168.86 566.99 157.55 567.07 157.8 544.8" fill="#bcbec0" opacity=".3"/>
  </g>
  <g id="desk-025">
    <polygon points="169.8 544.8 180.94 544.88 180.86 566.99 169.55 567.07 169.8 544.8" fill="#bcbec0" opacity=".3"/>
  </g>
  <g id="desk-026">
    <polygon points="169.71 567.68 180.86 567.76 180.77 589.86 169.46 589.95 169.71 567.68" fill="#bcbec0" opacity=".3"/>
  </g>
  <g id="desk-022">
    <polygon points="158.06 567.85 169.2 567.94 169.12 590.04 157.81 590.12 158.06 567.85" fill="#bcbec0" opacity=".3"/>
  </g>
  <g id="desk-019">
    <polygon points="158.06 499.47 169.2 499.56 169.12 521.66 157.81 521.75 158.06 499.47" fill="#bcbec0" opacity=".3"/>
  </g>
  <g id="desk-023">
    <polygon points="170.06 499.47 181.2 499.56 181.12 521.66 169.81 521.75 170.06 499.47" fill="#bcbec0" opacity=".3"/>
  </g>
  <g id="desk-024">
    <polygon points="169.97 522.35 181.12 522.44 181.03 544.54 169.72 544.63 169.97 522.35" fill="#bcbec0" opacity=".3"/>
  </g>
  <g id="desk-020">
    <polygon points="158.32 522.53 169.46 522.61 169.38 544.71 158.06 544.8 158.32 522.53" fill="#bcbec0" opacity=".3"/>
  </g>
  <g id="desk-013">
    <polygon points="84.56 509.77 84.77 498.63 106.87 498.95 106.83 510.26 84.56 509.77" fill="#bcbec0" opacity=".3"/>
  </g>
  <g id="desk-011">
    <polygon points="84.69 497.77 84.9 486.63 106.99 486.95 106.96 498.26 84.69 497.77" fill="#bcbec0" opacity=".3"/>
  </g>
  <g id="desk-012">
    <polygon points="107.57 498.1 107.77 486.96 129.87 487.28 129.84 498.59 107.57 498.1" fill="#bcbec0" opacity=".3"/>
  </g>
  <g id="desk-014">
    <polygon points="107.62 509.76 107.82 498.62 129.92 498.94 129.88 510.25 107.62 509.76" fill="#bcbec0" opacity=".3"/>
  </g>
  <g id="desk-005">
    <polygon points="18.05 498.4 18.12 487.26 40.22 487.3 40.32 498.61 18.05 498.4" fill="#bcbec0" opacity=".3"/>
  </g>
  <g id="desk-003">
    <polygon points="18.03 486.4 18.09 475.26 40.2 475.3 40.3 486.61 18.03 486.4" fill="#bcbec0" opacity=".3"/>
  </g>
  <g id="desk-004">
    <polygon points="40.91 486.44 40.97 475.3 63.07 475.35 63.18 486.66 40.91 486.44" fill="#bcbec0" opacity=".3"/>
  </g>
  <g id="desk-002">
    <polygon points="21.93 442.95 11.03 443.06 10.82 424.83 21.88 424.58 21.93 442.95" fill="#bcbec0" opacity=".3"/>
  </g>
  <g id="desk-001">
    <polygon points="21.67 423.4 10.77 423.5 10.56 405.27 21.62 405.02 21.67 423.4" fill="#bcbec0" opacity=".3"/>
  </g>
  <g id="desk-006">
    <polygon points="41.1 498.1 41.17 486.96 63.27 487 63.37 498.31 41.1 498.1" fill="#bcbec0" opacity=".3"/>
  </g>
  <g id="desk-009">
    <polygon points="18.57 548.9 18.63 537.76 40.73 537.8 40.84 549.12 18.57 548.9" fill="#bcbec0" opacity=".3"/>
  </g>
  <g id="desk-007">
    <polygon points="18.55 536.9 18.61 525.76 40.71 525.8 40.82 537.12 18.55 536.9" fill="#bcbec0" opacity=".3"/>
  </g>
  <g id="desk-008">
    <polygon points="41.42 536.95 41.49 525.81 63.59 525.85 63.7 537.16 41.42 536.95" fill="#bcbec0" opacity=".3"/>
  </g>
  <g id="desk-010">
    <polygon points="41.62 548.6 41.68 537.46 63.78 537.5 63.89 548.82 41.62 548.6" fill="#bcbec0" opacity=".3"/>
  </g>
  <g id="desk-084">
    <polygon points="514.22 146.55 504.63 152.17 514.73 169.09 533.99 169.26 533.99 157.78 520.69 156.91 514.22 146.55" fill="#bcbec0" opacity=".3"/>
  </g>
  <g id="desk-083">
    <polygon points="534.47 180.33 534.18 169.23 514.49 169.91 505.05 186.69 515.1 192.23 522.27 181.01 534.47 180.33" fill="#bcbec0" opacity=".3"/>
  </g>
  <g id="desk-082">
    <polygon points="514.18 192.44 504.58 186.85 494.81 203.96 504.12 220.81 514.12 215.17 508.33 203.17 514.18 192.44" fill="#bcbec0" opacity=".3"/>
  </g>
  <g id="desk-081">
    <polygon points="494.76 226.26 504.27 220.52 493.96 203.73 474.71 203.81 474.85 215.29 488.16 215.98 494.76 226.26" fill="#bcbec0" opacity=".3"/>
  </g>
  <g id="desk-080">
    <polygon points="474.98 214.98 474.79 203.87 455.09 204.38 445.5 221.07 455.51 226.7 462.78 215.54 474.98 214.98" fill="#bcbec0" opacity=".3"/>
  </g>
  <g id="desk-087">
    <polygon points="455.75 181.07 446.05 186.48 455.8 203.61 475.04 204.18 475.28 192.7 462.01 191.56 455.75 181.07" fill="#bcbec0" opacity=".3"/>
  </g>
  <g id="desk-086">
    <polygon points="474.91 192.36 474.88 203.46 494.59 203.35 504.51 186.85 494.62 181.02 487.13 192.04 474.91 192.36" fill="#bcbec0" opacity=".3"/>
  </g>
  <g id="desk-085">
    <polygon points="494.9 181.07 504.59 186.51 514.09 169.25 504.52 152.54 494.61 158.34 500.58 170.25 494.9 181.07" fill="#bcbec0" opacity=".3"/>
  </g>
  <g id="desk-076">
    <polygon points="513.96 235.65 504.37 241.26 514.47 258.18 533.73 258.35 533.73 246.87 520.43 246.01 513.96 235.65" fill="#bcbec0" opacity=".3"/>
  </g>
  <g id="desk-075">
    <polygon points="534.21 269.43 533.92 258.33 514.23 259.01 504.79 275.78 514.84 281.33 522.02 270.1 534.21 269.43" fill="#bcbec0" opacity=".3"/>
  </g>
  <g id="desk-074">
    <polygon points="513.92 281.53 504.32 275.94 494.55 293.05 503.86 309.91 513.86 304.27 508.08 292.26 513.92 281.53" fill="#bcbec0" opacity=".3"/>
  </g>
  <g id="desk-073">
    <polygon points="494.5 315.35 504.01 309.62 493.7 292.83 474.45 292.9 474.59 304.38 487.9 305.08 494.5 315.35" fill="#bcbec0" opacity=".3"/>
  </g>
  <g id="desk-072">
    <polygon points="474.72 304.07 474.53 292.97 454.83 293.47 445.24 310.17 455.25 315.8 462.52 304.63 474.72 304.07" fill="#bcbec0" opacity=".3"/>
  </g>
  <g id="desk-079">
    <polygon points="455.49 270.16 445.79 275.57 455.54 292.7 474.78 293.27 475.02 281.79 461.75 280.65 455.49 270.16" fill="#bcbec0" opacity=".3"/>
  </g>
  <g id="desk-078">
    <polygon points="474.65 281.45 474.63 292.56 494.33 292.44 504.25 275.95 494.36 270.12 486.87 281.13 474.65 281.45" fill="#bcbec0" opacity=".3"/>
  </g>
  <g id="desk-077">
    <polygon points="494.64 270.17 504.33 275.6 513.83 258.34 504.26 241.64 494.35 247.43 500.32 259.35 494.64 270.17" fill="#bcbec0" opacity=".3"/>
  </g>
  <g id="desk-068">
    <polygon points="514.22 327.72 504.63 333.33 514.73 350.25 533.99 350.42 533.99 338.94 520.69 338.08 514.22 327.72" fill="#bcbec0" opacity=".3"/>
  </g>
  <g id="desk-067">
    <polygon points="534.47 361.5 534.18 350.4 514.49 351.08 505.05 367.86 515.1 373.4 522.27 362.17 534.47 361.5" fill="#bcbec0" opacity=".3"/>
  </g>
  <g id="desk-066">
    <polygon points="514.18 373.6 504.58 368.02 494.81 385.13 504.12 401.98 514.12 396.34 508.33 384.33 514.18 373.6" fill="#bcbec0" opacity=".3"/>
  </g>
  <g id="desk-065">
    <polygon points="494.76 407.42 504.27 401.69 493.96 384.9 474.71 384.97 474.85 396.45 488.16 397.15 494.76 407.42" fill="#bcbec0" opacity=".3"/>
  </g>
  <g id="desk-064">
    <polygon points="474.98 396.14 474.79 385.04 455.09 385.55 445.5 402.24 455.51 407.87 462.78 396.71 474.98 396.14" fill="#bcbec0" opacity=".3"/>
  </g>
  <g id="desk-071">
    <polygon points="455.75 362.23 446.05 367.65 455.8 384.77 475.04 385.35 475.28 373.87 462.01 372.73 455.75 362.23" fill="#bcbec0" opacity=".3"/>
  </g>
  <g id="desk-070">
    <polygon points="474.91 373.53 474.88 384.63 494.59 384.52 504.51 368.02 494.62 362.19 487.13 373.21 474.91 373.53" fill="#bcbec0" opacity=".3"/>
  </g>
  <g id="desk-069">
    <polygon points="494.9 362.24 504.59 367.67 514.09 350.41 504.52 333.71 494.61 339.51 500.58 351.42 494.9 362.24" fill="#bcbec0" opacity=".3"/>
  </g>
  <g id="desk-060">
    <polygon points="514.09 420.57 504.5 426.18 514.6 443.1 533.86 443.27 533.86 431.79 520.56 430.93 514.09 420.57" fill="#bcbec0" opacity=".3"/>
  </g>
  <g id="desk-059">
    <polygon points="534.34 454.35 534.05 443.25 514.36 443.93 504.92 460.71 514.97 466.25 522.15 455.02 534.34 454.35" fill="#bcbec0" opacity=".3"/>
  </g>
  <g id="desk-058">
    <polygon points="514.05 466.45 504.45 460.86 494.68 477.98 503.99 494.83 513.99 489.19 508.21 477.18 514.05 466.45" fill="#bcbec0" opacity=".3"/>
  </g>
  <g id="desk-057">
    <polygon points="494.63 500.27 504.14 494.54 493.83 477.75 474.58 477.82 474.72 489.3 488.03 490 494.63 500.27" fill="#bcbec0" opacity=".3"/>
  </g>
  <g id="desk-056">
    <polygon points="474.85 488.99 474.66 477.89 454.96 478.39 445.37 495.09 455.38 500.72 462.65 489.55 474.85 488.99" fill="#bcbec0" opacity=".3"/>
  </g>
  <g id="desk-063">
    <polygon points="455.62 455.08 445.92 460.49 455.67 477.62 474.91 478.19 475.15 466.72 461.88 465.58 455.62 455.08" fill="#bcbec0" opacity=".3"/>
  </g>
  <g id="desk-062">
    <polygon points="474.78 466.37 474.75 477.48 494.46 477.37 504.38 460.87 494.49 455.04 487 466.05 474.78 466.37" fill="#bcbec0" opacity=".3"/>
  </g>
  <g id="desk-061">
    <polygon points="494.77 455.09 504.46 460.52 513.96 443.26 504.39 426.56 494.48 432.35 500.45 444.27 494.77 455.09" fill="#bcbec0" opacity=".3"/>
  </g>
  <g id="desk-054">
    <polygon points="485.25 529.46 479.44 538.92 496.31 549.1 513.38 540.2 507.98 530.07 495.84 535.56 485.25 529.46" fill="#bcbec0" opacity=".3"/>
  </g>
  <g id="desk-055">
    <polygon points="519.02 549.74 513.54 540.08 496.48 549.95 496.04 569.19 507.52 569.36 508.57 556.07 519.02 549.74" fill="#bcbec0" opacity=".3"/>
  </g>
  <g id="desk-053">
    <polygon points="484.45 569.01 495.55 569.25 495.82 549.55 479.51 539.31 473.49 549.09 484.36 556.79 484.45 569.01" fill="#bcbec0" opacity=".3"/>
  </g>
  <g id="desk-050">
    <polygon points="450.87 516.31 439.77 516.25 439.83 535.96 456.3 545.92 462.15 536.05 451.16 528.52 450.87 516.31" fill="#bcbec0" opacity=".3"/>
  </g>
  <g id="desk-051">
    <polygon points="451.07 555.7 456.48 546 439.19 536.54 422.52 546.16 428.34 556.05 440.23 550.05 451.07 555.7" fill="#bcbec0" opacity=".3"/>
  </g>
  <g id="desk-049">
    <polygon points="416.66 536.15 422.21 545.77 439.19 535.77 439.47 516.51 427.99 516.45 427.05 529.74 416.66 536.15" fill="#bcbec0" opacity=".3"/>
  </g>
  <g id="desk-048">
    <polygon points="393.83 536.27 388.13 545.8 405.14 555.76 422.09 546.64 416.56 536.58 404.49 542.23 393.83 536.27" fill="#bcbec0" opacity=".3"/>
  </g>
  <g id="desk-052">
    <polygon points="427.85 556.11 422.25 546.52 405.32 556.6 405.13 575.86 416.61 575.87 417.49 562.57 427.85 556.11" fill="#bcbec0" opacity=".3"/>
  </g>
  <g id="desk-047">
    <polygon points="393.54 575.82 404.64 575.92 404.65 556.21 388.21 546.19 382.32 556.05 393.29 563.61 393.54 575.82" fill="#bcbec0" opacity=".3"/>
  </g>
  <g id="desk-046">
    <polygon points="489.18 607.91 489.09 596.77 470.36 596.77 470.36 607.73 489.18 607.91" fill="#bcbec0" opacity=".3"/>
  </g>
  <g id="desk-045">
    <polygon points="451.54 596.68 470.1 596.68 470.1 607.65 451.37 607.91 451.54 596.68" fill="#bcbec0" opacity=".3"/>
  </g>
  <g id="desk-044">
    <polygon points="436.09 596.86 436.35 607.91 417.44 607.99 417.44 596.77 436.09 596.86" fill="#bcbec0" opacity=".3"/>
  </g>
  <g id="desk-043">
    <polygon points="398.53 596.94 417.09 596.94 417.09 607.73 398.53 608.08 398.53 596.94" fill="#bcbec0" opacity=".3"/>
  </g>
  <g id="desk-003A">
    <polygon points="55.11 376.19 44.06 376.19 44.06 404.34 71.68 403.99 71.68 393.12 55.28 392.94 55.11 376.19" fill="#bcbec0" opacity=".3"/>
  </g>
</svg>