<?xml version="1.0" encoding="UTF-8"?>
<svg id="Layer_2" data-name="Layer 2" xmlns="http://www.w3.org/2000/svg" viewBox="0 0 550 640">
  <g id="desk-112">
    <polygon points="195.5 45.03 195.59 22.58 184.19 22.58 184.32 44.99 195.5 45.03" fill="#a7a9ac" opacity=".3"/>
  </g>
  <g id="desk-108">
    <polygon points="207.48 45.09 207.57 22.65 196.43 22.65 196.56 45.05 207.48 45.09" fill="#a7a9ac" opacity=".3"/>
  </g>
  <g id="desk-111">
    <polygon points="195.57 67.95 195.65 45.5 184.26 45.5 184.39 67.91 195.57 67.95" fill="#a7a9ac" opacity=".3"/>
  </g>
  <g id="desk-107">
    <polygon points="207.55 68.01 207.63 45.57 196.5 45.57 196.62 67.97 207.55 68.01" fill="#a7a9ac" opacity=".3"/>
  </g>
  <g id="desk-110">
    <polygon points="195.5 90.74 195.59 68.29 184.26 68.29 184.39 90.7 195.5 90.74" fill="#a7a9ac" opacity=".3"/>
  </g>
  <g id="desk-106">
    <polygon points="207.42 90.81 207.5 68.36 196.17 68.36 196.3 90.76 207.42 90.81" fill="#a7a9ac" opacity=".3"/>
  </g>
  <g id="desk-109">
    <polygon points="195.63 113.79 195.72 91.35 184.39 91.35 184.52 113.75 195.63 113.79" fill="#a7a9ac" opacity=".3"/>
  </g>
  <g id="desk-105">
    <polygon points="207.55 113.86 207.63 91.41 196.3 91.41 196.43 113.81 207.55 113.86" fill="#a7a9ac" opacity=".3"/>
  </g>
  <g id="desk-104">
    <polygon points="246.4 45.22 246.48 22.78 235.09 22.78 235.22 45.18 246.4 45.22" fill="#a7a9ac" opacity=".3"/>
  </g>
  <g id="desk-100">
    <polygon points="258.38 45.29 258.46 22.84 247.32 22.84 247.45 45.24 258.38 45.29" fill="#a7a9ac" opacity=".3"/>
  </g>
  <g id="desk-103">
    <polygon points="246.46 68.14 246.55 45.7 235.15 45.7 235.28 68.1 246.46 68.14" fill="#a7a9ac" opacity=".3"/>
  </g>
  <g id="desk-099">
    <polygon points="258.44 68.21 258.53 45.76 247.39 45.76 247.52 68.17 258.44 68.21" fill="#a7a9ac" opacity=".3"/>
  </g>
  <g id="desk-102">
    <polygon points="246.4 90.94 246.48 68.49 235.15 68.49 235.28 90.89 246.4 90.94" fill="#a7a9ac" opacity=".3"/>
  </g>
  <g id="desk-098">
    <polygon points="258.31 91 258.4 68.55 247.06 68.55 247.19 90.96 258.31 91" fill="#a7a9ac" opacity=".3"/>
  </g>
  <g id="desk-101">
    <polygon points="246.53 113.99 246.61 91.54 235.28 91.54 235.41 113.94 246.53 113.99" fill="#a7a9ac" opacity=".3"/>
  </g>
  <g id="desk-097">
    <polygon points="258.44 114.05 258.53 91.6 247.19 91.6 247.32 114.01 258.44 114.05" fill="#a7a9ac" opacity=".3"/>
  </g>
  <g id="desk-096">
    <polygon points="400.32 45.14 400.41 22.69 389.01 22.69 389.14 45.09 400.32 45.14" fill="#a7a9ac" opacity=".3"/>
  </g>
  <g id="desk-092">
    <polygon points="412.3 45.2 412.39 22.76 401.25 22.76 401.38 45.16 412.3 45.2" fill="#a7a9ac" opacity=".3"/>
  </g>
  <g id="desk-095">
    <polygon points="400.39 68.06 400.47 45.61 389.08 45.61 389.21 68.01 400.39 68.06" fill="#a7a9ac" opacity=".3"/>
  </g>
  <g id="desk-091">
    <polygon points="412.37 68.12 412.45 45.68 401.32 45.68 401.44 68.08 412.37 68.12" fill="#a7a9ac" opacity=".3"/>
  </g>
  <g id="desk-094">
    <polygon points="400.32 90.85 400.41 68.4 389.08 68.4 389.21 90.81 400.32 90.85" fill="#a7a9ac" opacity=".3"/>
  </g>
  <g id="desk-090">
    <polygon points="412.24 90.91 412.32 68.47 400.99 68.47 401.12 90.87 412.24 90.91" fill="#a7a9ac" opacity=".3"/>
  </g>
  <g id="desk-093">
    <polygon points="400.45 113.9 400.54 91.45 389.21 91.45 389.34 113.86 400.45 113.9" fill="#a7a9ac" opacity=".3"/>
  </g>
  <g id="desk-089">
    <polygon points="412.37 113.96 412.45 91.52 401.12 91.52 401.25 113.92 412.37 113.96" fill="#a7a9ac" opacity=".3"/>
  </g>
  <g id="desk-036">
    <polygon points="275.41 532.62 275.5 510.18 264.1 510.18 264.23 532.58 275.41 532.62" fill="#a7a9ac" opacity=".3"/>
  </g>
  <g id="desk-040">
    <polygon points="287.39 532.69 287.47 510.24 276.34 510.24 276.46 532.65 287.39 532.69" fill="#a7a9ac" opacity=".3"/>
  </g>
  <g id="desk-037">
    <polygon points="275.47 555.54 275.56 533.1 264.16 533.1 264.3 555.5 275.47 555.54" fill="#a7a9ac" opacity=".3"/>
  </g>
  <g id="desk-041">
    <polygon points="287.45 555.61 287.54 533.16 276.4 533.16 276.53 555.57 287.45 555.61" fill="#a7a9ac" opacity=".3"/>
  </g>
  <g id="desk-038">
    <polygon points="275.41 578.34 275.5 555.89 264.16 555.89 264.29 578.29 275.41 578.34" fill="#a7a9ac" opacity=".3"/>
  </g>
  <g id="desk-042">
    <polygon points="287.32 578.4 287.41 555.95 276.08 555.95 276.21 578.36 287.32 578.4" fill="#a7a9ac" opacity=".3"/>
  </g>
  <g id="desk-039">
    <polygon points="275.54 601.39 275.63 578.94 264.29 578.94 264.42 601.34 275.54 601.39" fill="#a7a9ac" opacity=".3"/>
  </g>
  <g id="desk-043">
    <polygon points="287.45 601.45 287.54 579.01 276.21 579.01 276.34 601.41 287.45 601.45" fill="#a7a9ac" opacity=".3"/>
  </g>
  <g id="desk-028">
    <polygon points="219.38 532.45 219.47 510.01 208.07 510.01 208.2 532.41 219.38 532.45" fill="#a7a9ac" opacity=".3"/>
  </g>
  <g id="desk-032">
    <polygon points="231.36 532.52 231.45 510.07 220.31 510.07 220.44 532.47 231.36 532.52" fill="#a7a9ac" opacity=".3"/>
  </g>
  <g id="desk-029">
    <polygon points="219.44 555.37 219.53 532.93 208.14 532.93 208.27 555.33 219.44 555.37" fill="#a7a9ac" opacity=".3"/>
  </g>
  <g id="desk-033">
    <polygon points="231.42 555.44 231.51 532.99 220.37 532.99 220.5 555.39 231.42 555.44" fill="#a7a9ac" opacity=".3"/>
  </g>
  <g id="desk-030">
    <polygon points="219.38 578.16 219.47 555.72 208.14 555.72 208.27 578.12 219.38 578.16" fill="#a7a9ac" opacity=".3"/>
  </g>
  <g id="desk-034">
    <polygon points="231.29 578.23 231.38 555.78 220.05 555.78 220.18 578.18 231.29 578.23" fill="#a7a9ac" opacity=".3"/>
  </g>
  <g id="desk-031">
    <polygon points="219.51 601.21 219.6 578.77 208.27 578.77 208.4 601.17 219.51 601.21" fill="#a7a9ac" opacity=".3"/>
  </g>
  <g id="desk-035">
    <polygon points="231.42 601.28 231.51 578.83 220.18 578.83 220.31 601.24 231.42 601.28" fill="#a7a9ac" opacity=".3"/>
  </g>
  <g id="desk-020">
    <polygon points="168.44 530.98 168.53 508.54 157.14 508.54 157.27 530.94 168.44 530.98" fill="#a7a9ac" opacity=".3"/>
  </g>
  <g id="desk-024">
    <polygon points="180.42 531.05 180.51 508.6 169.37 508.6 169.5 531.01 180.42 531.05" fill="#a7a9ac" opacity=".3"/>
  </g>
  <g id="desk-021">
    <polygon points="168.51 553.9 168.6 531.46 157.2 531.46 157.33 553.86 168.51 553.9" fill="#a7a9ac" opacity=".3"/>
  </g>
  <g id="desk-025">
    <polygon points="180.49 553.97 180.57 531.52 169.44 531.52 169.57 553.93 180.49 553.97" fill="#a7a9ac" opacity=".3"/>
  </g>
  <g id="desk-017">
    <polygon points="104.88 551.35 82.43 551.36 82.48 562.76 104.88 562.53 104.88 551.35" fill="#a7a9ac" opacity=".3"/>
  </g>
  <g id="desk-015">
    <polygon points="104.89 539.37 82.44 539.38 82.49 550.52 104.89 550.29 104.89 539.37" fill="#a7a9ac" opacity=".3"/>
  </g>
  <g id="desk-018">
    <polygon points="127.8 551.18 105.35 551.19 105.4 562.59 127.8 562.36 127.8 551.18" fill="#a7a9ac" opacity=".3"/>
  </g>
  <g id="desk-016">
    <polygon points="127.81 539.2 105.36 539.22 105.41 550.35 127.81 550.13 127.81 539.2" fill="#a7a9ac" opacity=".3"/>
  </g>
  <g id="desk-013">
    <polygon points="104.96 500.33 82.52 500.34 82.57 511.73 104.97 511.51 104.96 500.33" fill="#a7a9ac" opacity=".3"/>
  </g>
  <g id="desk-011">
    <polygon points="104.97 488.35 82.53 488.36 82.58 499.5 104.98 499.27 104.97 488.35" fill="#a7a9ac" opacity=".3"/>
  </g>
  <g id="desk-014">
    <polygon points="127.88 500.16 105.44 500.17 105.49 511.57 127.89 511.34 127.88 500.16" fill="#a7a9ac" opacity=".3"/>
  </g>
  <g id="desk-012">
    <polygon points="127.89 488.18 105.45 488.19 105.5 499.33 127.9 499.1 127.89 488.18" fill="#a7a9ac" opacity=".3"/>
  </g>
  <g id="desk-005">
    <polygon points="38.05 488.07 15.61 488.08 15.66 499.48 38.06 499.25 38.05 488.07" fill="#a7a9ac" opacity=".3"/>
  </g>
  <g id="desk-003">
    <polygon points="38.07 476.09 15.62 476.1 15.67 487.24 38.07 487.01 38.07 476.09" fill="#a7a9ac" opacity=".3"/>
  </g>
  <g id="desk-006">
    <polygon points="60.98 487.9 38.53 487.91 38.58 499.31 60.98 499.08 60.98 487.9" fill="#a7a9ac" opacity=".3"/>
  </g>
  <g id="desk-004">
    <polygon points="60.99 475.92 38.54 475.94 38.59 487.07 60.99 486.85 60.99 475.92" fill="#a7a9ac" opacity=".3"/>
  </g>
  <g id="desk-009">
    <polygon points="38.31 539.87 15.87 539.88 15.92 551.27 38.32 551.04 38.31 539.87" fill="#a7a9ac" opacity=".3"/>
  </g>
  <g id="desk-007">
    <polygon points="38.33 527.89 15.88 527.9 15.93 539.04 38.33 538.81 38.33 527.89" fill="#a7a9ac" opacity=".3"/>
  </g>
  <g id="desk-010">
    <polygon points="61.23 539.7 38.79 539.71 38.84 551.11 61.24 550.88 61.23 539.7" fill="#a7a9ac" opacity=".3"/>
  </g>
  <g id="desk-008">
    <polygon points="61.25 527.72 38.8 527.73 38.85 538.87 61.25 538.64 61.25 527.72" fill="#a7a9ac" opacity=".3"/>
  </g>
  <g id="desk-022">
    <polygon points="168.45 576.7 168.53 554.25 157.2 554.25 157.33 576.65 168.45 576.7" fill="#a7a9ac" opacity=".3"/>
  </g>
  <g id="desk-026">
    <polygon points="180.36 576.76 180.45 554.31 169.11 554.31 169.24 576.72 180.36 576.76" fill="#a7a9ac" opacity=".3"/>
  </g>
  <g id="desk-027">
    <polygon points="180.49 599.81 180.57 577.36 169.24 577.36 169.37 599.77 180.49 599.81" fill="#a7a9ac" opacity=".3"/>
  </g>
  <g id="desk-088">
    <polygon points="446.36 74.47 435.4 74.47 435.4 99.24 460.69 99.42 460.6 92.68 446.62 93.03 446.36 74.47" fill="#a7a9ac" opacity=".3"/>
  </g>
  <g id="desk-114">
    <polygon points="499.45 112.8 499.45 124.11 518.27 124.11 518.36 112.63 499.45 112.8" fill="#a7a9ac" opacity=".3"/>
  </g>
  <g id="desk-113">
    <polygon points="537.44 123.94 537.53 112.8 518.79 112.97 518.79 124.02 537.44 123.94" fill="#a7a9ac" opacity=".3"/>
  </g>
  <g id="desk-084">
    <polygon points="517.06 144.14 507.74 149.66 517.76 166.67 537.09 166.76 537.09 155.36 523.88 154.32 517.06 144.14" fill="#a7a9ac" opacity=".3"/>
  </g>
  <g id="desk-083">
    <polygon points="537.13 178.17 537.04 167.33 517.3 167.44 507.51 184.12 517.36 189.85 524.89 178.95 537.13 178.17" fill="#a7a9ac" opacity=".3"/>
  </g>
  <g id="desk-082">
    <polygon points="517.18 190.12 507.72 184.83 498.02 202.02 507.64 218.79 517.5 213.08 511.78 201.13 517.18 190.12" fill="#a7a9ac" opacity=".3"/>
  </g>
  <g id="desk-086">
    <polygon points="477.67 190.53 477.73 201.36 497.46 201.31 507.3 184.66 497.47 178.91 489.9 189.79 477.67 190.53" fill="#a7a9ac" opacity=".3"/>
  </g>
  <g id="desk-087">
    <polygon points="457.23 179.19 447.91 184.73 457.94 201.72 477.28 201.79 477.27 190.4 464.06 189.37 457.23 179.19" fill="#a7a9ac" opacity=".3"/>
  </g>
  <g id="desk-080">
    <polygon points="477.46 212.84 477.49 202 457.75 201.9 447.78 218.47 457.57 224.3 465.22 213.48 477.46 212.84" fill="#a7a9ac" opacity=".3"/>
  </g>
  <g id="desk-081">
    <polygon points="497.33 224.44 506.76 219.1 497.08 201.9 477.75 201.43 477.53 212.83 490.71 214.12 497.33 224.44" fill="#a7a9ac" opacity=".3"/>
  </g>
  <g id="desk-076">
    <polygon points="516.76 234.8 507.46 240.36 517.54 257.33 536.88 257.35 536.83 245.95 523.62 244.97 516.76 234.8" fill="#a7a9ac" opacity=".3"/>
  </g>
  <g id="desk-075">
    <polygon points="537.39 268.58 537.31 257.74 517.57 257.82 507.76 274.49 517.6 280.23 525.15 269.34 537.39 268.58" fill="#a7a9ac" opacity=".3"/>
  </g>
  <g id="desk-074">
    <polygon points="517.28 280.7 507.83 275.38 498.11 292.56 507.7 309.35 517.57 303.65 511.86 291.7 517.28 280.7" fill="#a7a9ac" opacity=".3"/>
  </g>
  <g id="desk-078">
    <polygon points="477.75 280.75 477.82 291.59 497.55 291.52 507.39 274.87 497.55 269.12 489.99 280 477.75 280.75" fill="#a7a9ac" opacity=".3"/>
  </g>
  <g id="desk-073">
    <polygon points="497.9 314.77 507.27 309.31 497.38 292.23 478.04 292 477.96 303.4 491.16 304.53 497.9 314.77" fill="#a7a9ac" opacity=".3"/>
  </g>
  <g id="desk-072">
    <polygon points="477.29 303.38 477.3 292.54 457.56 292.47 447.62 309.05 457.42 314.87 465.05 304.04 477.29 303.38" fill="#a7a9ac" opacity=".3"/>
  </g>
  <g id="desk-079">
    <polygon points="457.42 269.15 448.01 274.52 457.75 291.69 477.08 292.08 477.27 280.69 464.08 279.44 457.42 269.15" fill="#a7a9ac" opacity=".3"/>
  </g>
  <g id="desk-077">
    <polygon points="498.1 269.27 507.63 274.44 517.09 257.12 507.25 240.47 497.46 246.32 503.35 258.19 498.1 269.27" fill="#a7a9ac" opacity=".3"/>
  </g>
  <g id="desk-068">
    <polygon points="516.89 327.65 507.59 333.21 517.67 350.18 537 350.2 536.96 338.8 523.75 337.81 516.89 327.65" fill="#a7a9ac" opacity=".3"/>
  </g>
  <g id="desk-067">
    <polygon points="537.52 361.42 537.44 350.59 517.7 350.67 507.89 367.33 517.73 373.07 525.28 362.19 537.52 361.42" fill="#a7a9ac" opacity=".3"/>
  </g>
  <g id="desk-066">
    <polygon points="517.41 373.54 507.96 368.23 498.24 385.41 507.83 402.2 517.7 396.5 511.99 384.54 517.41 373.54" fill="#a7a9ac" opacity=".3"/>
  </g>
  <g id="desk-070">
    <polygon points="477.88 373.6 477.95 384.44 497.68 384.37 507.51 367.72 497.68 361.97 490.12 372.85 477.88 373.6" fill="#a7a9ac" opacity=".3"/>
  </g>
  <g id="desk-065">
    <polygon points="498.03 407.61 507.4 402.16 497.51 385.08 478.17 384.85 478.09 396.24 491.29 397.38 498.03 407.61" fill="#a7a9ac" opacity=".3"/>
  </g>
  <g id="desk-064">
    <polygon points="477.42 396.23 477.43 385.39 457.69 385.32 447.75 401.9 457.55 407.72 465.18 396.89 477.42 396.23" fill="#a7a9ac" opacity=".3"/>
  </g>
  <g id="desk-071">
    <polygon points="456.25 362.13 446.84 367.5 456.59 384.67 475.92 385.06 476.1 373.66 462.91 372.42 456.25 362.13" fill="#a7a9ac" opacity=".3"/>
  </g>
  <g id="desk-069">
    <polygon points="498.23 362.11 507.76 367.28 517.22 349.97 507.38 333.32 497.59 339.16 503.48 351.04 498.23 362.11" fill="#a7a9ac" opacity=".3"/>
  </g>
  <g id="desk-060">
    <polygon points="517.28 420.89 507.98 426.45 518.06 443.42 537.39 443.44 537.35 432.04 524.14 431.05 517.28 420.89" fill="#a7a9ac" opacity=".3"/>
  </g>
  <g id="desk-059">
    <polygon points="537.9 454.66 537.83 443.82 518.09 443.91 508.28 460.57 518.12 466.31 525.67 455.42 537.9 454.66" fill="#a7a9ac" opacity=".3"/>
  </g>
  <g id="desk-058">
    <polygon points="517.79 466.78 508.35 461.47 498.63 478.65 508.22 495.44 518.09 489.74 512.38 477.78 517.79 466.78" fill="#a7a9ac" opacity=".3"/>
  </g>
  <g id="desk-062">
    <polygon points="478.27 466.84 478.33 477.67 498.07 477.61 507.9 460.96 498.07 455.21 490.51 466.09 478.27 466.84" fill="#a7a9ac" opacity=".3"/>
  </g>
  <g id="desk-057">
    <polygon points="498.42 500.85 507.78 495.4 497.9 478.32 478.56 478.09 478.47 489.48 491.68 490.62 498.42 500.85" fill="#a7a9ac" opacity=".3"/>
  </g>
  <g id="desk-056">
    <polygon points="477.81 489.47 477.82 478.63 458.08 478.56 448.14 495.14 457.93 500.96 465.57 490.13 477.81 489.47" fill="#a7a9ac" opacity=".3"/>
  </g>
  <g id="desk-063">
    <polygon points="457.94 455.23 448.53 460.61 458.27 477.77 477.6 478.17 477.78 466.77 464.59 465.53 457.94 455.23" fill="#a7a9ac" opacity=".3"/>
  </g>
  <g id="desk-061">
    <polygon points="498.62 455.35 508.14 460.52 517.61 443.2 507.76 426.56 497.98 432.4 503.87 444.27 498.62 455.35" fill="#a7a9ac" opacity=".3"/>
  </g>
  <g id="desk-054">
    <polygon points="488.08 532.07 482.65 541.45 499.7 551.39 516.61 542.01 511.04 532.07 499.01 537.62 488.08 532.07" fill="#a7a9ac" opacity=".3"/>
  </g>
  <g id="desk-055">
    <polygon points="522.51 551.58 517.18 542.14 499.97 551.8 499.48 571.13 510.87 571.37 512.18 558.19 522.51 551.58" fill="#a7a9ac" opacity=".3"/>
  </g>
  <g id="desk-053">
    <polygon points="488.5 571.26 499.34 571.15 499.2 551.42 482.51 541.65 476.8 551.5 487.71 559.02 488.5 571.26" fill="#a7a9ac" opacity=".3"/>
  </g>
  <g id="desk-050">
    <polygon points="452.35 518.13 441.52 518.25 441.69 537.99 458.39 547.73 464.09 537.86 453.17 530.36 452.35 518.13" fill="#a7a9ac" opacity=".3"/>
  </g>
  <g id="desk-051">
    <polygon points="453.18 557.69 458.57 548.29 441.47 538.43 424.61 547.9 430.23 557.81 442.23 552.2 453.18 557.69" fill="#a7a9ac" opacity=".3"/>
  </g>
  <g id="desk-049">
    <polygon points="418.89 538.53 424.52 547.79 441.41 537.58 441.27 518.24 429.88 518.37 428.99 531.59 418.89 538.53" fill="#a7a9ac" opacity=".3"/>
  </g>
  <g id="desk-048">
    <polygon points="395.54 538.7 390.11 548.08 407.16 558.01 424.07 548.63 418.49 538.69 406.47 544.25 395.54 538.7" fill="#a7a9ac" opacity=".3"/>
  </g>
  <g id="desk-052">
    <polygon points="429.97 558.19 424.64 548.76 407.43 558.42 406.95 577.75 418.34 577.99 419.65 564.8 429.97 558.19" fill="#a7a9ac" opacity=".3"/>
  </g>
  <g id="desk-047">
    <polygon points="395.97 577.89 406.81 577.77 406.66 558.04 389.97 548.28 384.26 558.14 395.17 565.65 395.97 577.89" fill="#a7a9ac" opacity=".3"/>
  </g>
  <g id="desk-085">
    <polygon points="506.88 150.18 497.47 155.88 503.42 166.41 497.47 178.32 507.22 184.11 516.81 166.93 506.88 150.18" fill="#a7a9ac" opacity=".3"/>
  </g>
  <g id="desk-046">
    <polygon points="465.4 590.17 465.4 583.95 439.88 583.82 439.88 608.55 451.54 608.55 451.67 590.42 465.4 590.17" fill="#a7a9ac" opacity=".03"/>
  </g>
  <g id="desk-045">
    <polygon points="438.33 610.37 438.33 599.23 419.42 599.1 419.29 610.5 438.33 610.37" fill="#a7a9ac" opacity=".3"/>
  </g>
  <g id="desk-044">
    <polygon points="400.39 599.23 400.39 610.37 418.52 610.24 418.65 599.1 400.39 599.23" fill="#a7a9ac" opacity=".3"/>
  </g>
  <g id="desk-023">
    <polygon points="143.42 577.6 168.12 577.86 168.12 602.47 157.24 602.64 157.15 583.73 142.82 583.73 143.42 577.6" fill="#a7a9ac" opacity=".3"/>
  </g>
  <g id="desk-001">
    <polygon points="8.23 406.24 19.45 406.24 19.54 424.97 7.88 425.14 8.23 406.24" fill="#a7a9ac" opacity=".3"/>
  </g>
  <g id="desk-002">
    <polygon points="19.45 444.22 19.28 425.49 8.06 425.4 7.88 444.14 19.45 444.22" fill="#a7a9ac" opacity=".3"/>
  </g>
  <g id="desk-003O">
    <polygon points="41.99 376.71 53.04 376.71 52.95 393.46 70.13 393.55 69.87 404.94 42.07 404.77 41.99 376.71" fill="#a7a9ac" opacity=".3"/>
  </g>
  <g id="desk-010M">
    <polygon points="392.66 172.63 403.37 172.63 403.54 194.9 392.32 195.07 392.66 172.63" fill="#a7a9ac" opacity=".3"/>
  </g>
</svg>