<?xml version="1.0" encoding="UTF-8"?>
<svg id="SVG" xmlns="http://www.w3.org/2000/svg" viewBox="0 0 640 1000">
  <g id="desk-077">
    <rect x="17.05" y="17.88" width="37.79" height="14.3" fill="#e6e7e8" opacity=".5"/>
  </g>
  <g id="desk-078">
    <rect x="54.84" y="18.13" width="38.04" height="14.3" fill="#e6e7e8" opacity=".5"/>
  </g>
  <g id="desk-076">
    <rect x="54.08" y="86.05" width="37.28" height="13.02" fill="#e6e7e8" opacity=".5"/>
  </g>
  <g id="desk-075">
    <rect x="92.88" y="85.79" width="36.77" height="12.77" fill="#e6e7e8" opacity=".5"/>
  </g>
  <g id="desk-074">
    <rect x="92.88" y="102.13" width="36.77" height="12.77" fill="#e6e7e8" opacity=".5"/>
  </g>
  <g id="desk-073">
    <rect x="54.33" y="102.13" width="36.77" height="12.77" fill="#e6e7e8" opacity=".5"/>
  </g>
  <g id="desk-072">
    <rect x="15.52" y="102.13" width="36.77" height="12.77" fill="#e6e7e8" opacity=".5"/>
  </g>
  <g id="desk-071">
    <rect x="17.56" y="178.22" width="36.77" height="12.77" fill="#e6e7e8" opacity=".5"/>
  </g>
  <g id="desk-070">
    <rect x="53.31" y="178.22" width="37.28" height="13.02" fill="#e6e7e8" opacity=".5"/>
  </g>
  <g id="desk-069">
    <rect x="92.12" y="177.96" width="36.77" height="12.77" fill="#e6e7e8" opacity=".5"/>
  </g>
  <g id="desk-068">
    <rect x="92.12" y="194.3" width="36.77" height="12.77" fill="#e6e7e8" opacity=".5"/>
  </g>
  <g id="desk-067">
    <rect x="53.56" y="194.3" width="36.77" height="12.77" fill="#e6e7e8" opacity=".5"/>
  </g>
  <g id="desk-066">
    <rect x="14.76" y="194.3" width="36.77" height="12.77" fill="#e6e7e8" opacity=".5"/>
  </g>
  <g id="desk-062">
    <rect x="18.33" y="328.09" width="36.77" height="12.77" fill="#e6e7e8" opacity=".5"/>
  </g>
  <g id="desk-056">
    <rect x="48.97" y="426.39" width="37.28" height="13.02" fill="#e6e7e8" opacity=".5"/>
  </g>
  <g id="desk-055">
    <rect x="87.78" y="426.13" width="36.77" height="12.77" fill="#e6e7e8" opacity=".5"/>
  </g>
  <g id="desk-054">
    <rect x="87.78" y="442.47" width="36.77" height="12.77" fill="#e6e7e8" opacity=".5"/>
  </g>
  <g id="desk-053">
    <rect x="49.22" y="442.47" width="36.77" height="12.77" fill="#e6e7e8" opacity=".5"/>
  </g>
  <g id="desk-052">
    <rect x="53.56" y="530.56" width="37.28" height="13.02" fill="#e6e7e8" opacity=".5"/>
  </g>
  <g id="desk-048">
    <rect x="17.56" y="545.88" width="37.28" height="13.02" fill="#e6e7e8" opacity=".5"/>
  </g>
  <g id="desk-051">
    <rect x="92.37" y="530.3" width="36.77" height="12.77" fill="#e6e7e8" opacity=".5"/>
  </g>
  <g id="desk-050">
    <rect x="92.37" y="546.64" width="36.77" height="12.77" fill="#e6e7e8" opacity=".5"/>
  </g>
  <g id="desk-049">
    <rect x="53.82" y="546.64" width="36.77" height="12.77" fill="#e6e7e8" opacity=".5"/>
  </g>
  <g id="desk-046">
    <rect x="53.56" y="628.86" width="37.28" height="13.02" fill="#e6e7e8" opacity=".5"/>
  </g>
  <g id="desk-047">
    <rect x="16.29" y="628.09" width="37.28" height="13.02" fill="#e6e7e8" opacity=".5"/>
  </g>
  <g id="desk-039">
    <rect x="17.56" y="715.92" width="37.28" height="13.02" fill="#e6e7e8" opacity=".5"/>
  </g>
  <g id="desk-045">
    <rect x="92.37" y="628.6" width="36.77" height="12.77" fill="#e6e7e8" opacity=".5"/>
  </g>
  <g id="desk-041">
    <rect x="92.37" y="716.69" width="36.77" height="12.77" fill="#e6e7e8" opacity=".5"/>
  </g>
  <g id="desk-040">
    <rect x="53.82" y="716.69" width="36.77" height="12.77" fill="#e6e7e8" opacity=".5"/>
  </g>
  <g id="desk-042">
    <rect x="17.31" y="644.43" width="37.28" height="13.02" fill="#e6e7e8" opacity=".5"/>
  </g>
  <g id="desk-044">
    <rect x="92.12" y="645.2" width="36.77" height="12.77" fill="#e6e7e8" opacity=".5"/>
  </g>
  <g id="desk-043">
    <rect x="53.56" y="645.2" width="36.77" height="12.77" fill="#e6e7e8" opacity=".5"/>
  </g>
  <g id="desk-037">
    <rect x="53.82" y="792" width="37.28" height="13.02" fill="#e6e7e8" opacity=".5"/>
  </g>
  <g id="desk-038">
    <rect x="16.54" y="791.24" width="37.28" height="13.02" fill="#e6e7e8" opacity=".5"/>
  </g>
  <g id="desk-036">
    <rect x="92.63" y="791.75" width="36.77" height="12.77" fill="#e6e7e8" opacity=".5"/>
  </g>
  <g id="desk-033">
    <rect x="17.56" y="807.58" width="37.28" height="13.02" fill="#e6e7e8" opacity=".5"/>
  </g>
  <g id="desk-035">
    <rect x="92.37" y="808.35" width="36.77" height="12.77" fill="#e6e7e8" opacity=".5"/>
  </g>
  <g id="desk-034">
    <rect x="53.82" y="808.35" width="36.77" height="12.77" fill="#e6e7e8" opacity=".5"/>
  </g>
  <g id="desk-026">
    <rect x="169.99" y="918.88" width="37.28" height="13.02" transform="translate(-737.24 1111.63) rotate(-89.85)" fill="#e6e7e8" opacity=".5"/>
  </g>
  <g id="desk-027">
    <rect x="169.13" y="956.15" width="37.28" height="13.02" transform="translate(-775.38 1147.95) rotate(-89.85)" fill="#e6e7e8" opacity=".5"/>
  </g>
  <g id="desk-025">
    <rect x="169.96" y="880.45" width="36.77" height="12.77" transform="translate(-698.97 1072.9) rotate(-89.85)" fill="#e6e7e8" opacity=".5"/>
  </g>
  <g id="desk-022">
    <rect x="185.47" y="955.17" width="37.28" height="13.02" transform="translate(-758.1 1163.32) rotate(-89.85)" fill="#e6e7e8" opacity=".5"/>
  </g>
  <g id="desk-024">
    <rect x="185.56" y="880.75" width="36.77" height="12.77" transform="translate(-683.72 1088.79) rotate(-89.85)" fill="#e6e7e8" opacity=".5"/>
  </g>
  <g id="desk-023">
    <rect x="186.46" y="919.3" width="36.77" height="12.77" transform="translate(-721.37 1128.14) rotate(-89.85)" fill="#e6e7e8" opacity=".5"/>
  </g>
  <g id="desk-020">
    <rect x="262.67" y="918.62" width="37.28" height="13.02" transform="translate(-644.55 1204.06) rotate(-89.85)" fill="#e6e7e8" opacity=".5"/>
  </g>
  <g id="desk-021">
    <rect x="261.81" y="955.9" width="37.28" height="13.02" transform="translate(-682.68 1240.38) rotate(-89.85)" fill="#e6e7e8" opacity=".5"/>
  </g>
  <g id="desk-019">
    <rect x="262.64" y="880.2" width="36.77" height="12.77" transform="translate(-606.28 1165.32) rotate(-89.85)" fill="#e6e7e8" opacity=".5"/>
  </g>
  <g id="desk-016">
    <rect x="278.15" y="954.92" width="37.28" height="13.02" transform="translate(-665.4 1255.74) rotate(-89.85)" fill="#e6e7e8" opacity=".5"/>
  </g>
  <g id="desk-018">
    <rect x="279.24" y="880.49" width="36.77" height="12.77" transform="translate(-590.02 1182.21) rotate(-89.85)" fill="#e6e7e8" opacity=".5"/>
  </g>
  <g id="desk-017">
    <rect x="279.14" y="919.05" width="36.77" height="12.77" transform="translate(-628.67 1220.57) rotate(-89.85)" fill="#e6e7e8" opacity=".5"/>
  </g>
  <g id="desk-009">
    <rect x="448.54" y="918.88" width="37.28" height="13.02" transform="translate(-459.41 1390.19) rotate(-89.85)" fill="#e6e7e8" opacity=".5"/>
  </g>
  <g id="desk-010">
    <rect x="447.68" y="956.15" width="37.28" height="13.02" transform="translate(-497.54 1426.5) rotate(-89.85)" fill="#e6e7e8" opacity=".5"/>
  </g>
  <g id="desk-008">
    <rect x="448.51" y="880.45" width="36.77" height="12.77" transform="translate(-421.14 1351.45) rotate(-89.85)" fill="#e6e7e8" opacity=".5"/>
  </g>
  <g id="desk-005">
    <rect x="464.02" y="955.17" width="37.28" height="13.02" transform="translate(-480.26 1441.87) rotate(-89.85)" fill="#e6e7e8" opacity=".5"/>
  </g>
  <g id="desk-007">
    <rect x="465.11" y="880.75" width="36.77" height="12.77" transform="translate(-404.88 1368.34) rotate(-89.85)" fill="#e6e7e8" opacity=".5"/>
  </g>
  <g id="desk-006">
    <rect x="465.01" y="919.3" width="36.77" height="12.77" transform="translate(-443.53 1406.7) rotate(-89.85)" fill="#e6e7e8" opacity=".5"/>
  </g>
  <g id="desk-119">
    <rect x="547.12" y="799.15" width="37.28" height="13.02" transform="translate(1134.08 1609.52) rotate(179.82)" fill="#e6e7e8" opacity=".5"/>
  </g>
  <g id="desk-118">
    <rect x="508.82" y="799.79" width="36.77" height="12.77" transform="translate(1056.98 1610.65) rotate(179.82)" fill="#e6e7e8" opacity=".5"/>
  </g>
  <g id="desk-115">
    <rect x="583.33" y="783.46" width="37.28" height="13.02" transform="translate(1206.45 1578.02) rotate(179.82)" fill="#e6e7e8" opacity=".5"/>
  </g>
  <g id="desk-114">
    <rect x="556.26" y="707.63" width="37.28" height="13.02" transform="translate(1152.08 1426.45) rotate(179.82)" fill="#e6e7e8" opacity=".5"/>
  </g>
  <g id="desk-113">
    <rect x="519.24" y="707.63" width="37.28" height="13.02" transform="translate(1078.03 1426.57) rotate(179.82)" fill="#e6e7e8" opacity=".5"/>
  </g>
  <g id="desk-117">
    <rect x="509.03" y="783.19" width="36.77" height="12.77" transform="translate(1057.33 1577.46) rotate(179.82)" fill="#e6e7e8" opacity=".5"/>
  </g>
  <g id="desk-116">
    <rect x="547.58" y="783.07" width="36.77" height="12.77" transform="translate(1134.44 1577.09) rotate(179.82)" fill="#e6e7e8" opacity=".5"/>
  </g>
  <g id="desk-112">
    <rect x="522.05" y="284.81" width="36.77" height="12.77" transform="translate(1081.79 580.65) rotate(179.82)" fill="#e6e7e8" opacity=".5"/>
  </g>
  <g id="desk-111">
    <rect x="560.6" y="284.68" width="36.77" height="12.77" transform="translate(1158.89 580.28) rotate(179.82)" fill="#e6e7e8" opacity=".5"/>
  </g>
  <g id="desk.107">
    <rect x="559.6" y="195.07" width="36.77" height="12.77" transform="translate(1156.61 401.05) rotate(179.82)" fill="#e6e7e8" opacity=".5"/>
  </g>
  <g id="desk-108">
    <rect x="522.05" y="195.32" width="36.77" height="12.77" transform="translate(1081.5 401.68) rotate(179.82)" fill="#e6e7e8" opacity=".5"/>
  </g>
  <g id="desk-110">
    <rect x="558.81" y="211.66" width="36.77" height="12.77" transform="translate(1155.09 434.25) rotate(179.82)" fill="#e6e7e8" opacity=".5"/>
  </g>
  <g id="desk-109">
    <rect x="521.79" y="211.13" width="36.77" height="12.77" transform="translate(1081.04 433.3) rotate(179.82)" fill="#e6e7e8" opacity=".5"/>
  </g>
  <g id="desk-103">
    <rect x="540.8" y="68.11" width="36.76" height="12.77" transform="translate(485.63 633.8) rotate(-90.1)" fill="#e6e7e8" opacity=".5"/>
  </g>
  <g id="desk-104">
    <rect x="540.86" y="105.35" width="36.77" height="12.77" transform="translate(448.45 671.17) rotate(-90.1)" fill="#e6e7e8" opacity=".5"/>
  </g>
  <g id="desk-106">
    <rect x="557.14" y="68.39" width="36.76" height="12.77" transform="translate(501.72 650.42) rotate(-90.1)" fill="#e6e7e8" opacity=".5"/>
  </g>
  <g id="desk-105">
    <rect x="557.2" y="105.63" width="36.77" height="12.77" transform="translate(464.54 687.79) rotate(-90.1)" fill="#e6e7e8" opacity=".5"/>
  </g>
  <g id="desk-098">
    <rect x="447.35" y="67.34" width="36.76" height="12.77" transform="translate(392.79 539.58) rotate(-90.1)" fill="#e6e7e8" opacity=".5"/>
  </g>
  <g id="desk-099">
    <rect x="447.41" y="104.59" width="36.77" height="12.77" transform="translate(355.61 576.95) rotate(-90.1)" fill="#e6e7e8" opacity=".5"/>
  </g>
  <g id="desk-101">
    <rect x="463.69" y="67.62" width="36.76" height="12.77" transform="translate(408.88 556.2) rotate(-90.1)" fill="#e6e7e8" opacity=".5"/>
  </g>
  <g id="desk-097">
    <rect x="446.08" y="28.79" width="36.76" height="12.77" transform="translate(430.07 499.69) rotate(-90.1)" fill="#e6e7e8" opacity=".5"/>
  </g>
  <g id="desk-102">
    <rect x="462.42" y="29.07" width="36.76" height="12.77" transform="translate(446.16 516.31) rotate(-90.1)" fill="#e6e7e8" opacity=".5"/>
  </g>
  <g id="desk-100">
    <rect x="463.75" y="104.87" width="36.77" height="12.77" transform="translate(371.7 593.57) rotate(-90.1)" fill="#e6e7e8" opacity=".5"/>
  </g>
  <g id="desk-092">
    <rect x="352.88" y="68.87" width="36.76" height="12.77" transform="translate(296.64 446.65) rotate(-90.1)" fill="#e6e7e8" opacity=".5"/>
  </g>
  <g id="desk-093">
    <rect x="352.95" y="106.12" width="36.77" height="12.77" transform="translate(259.45 484.02) rotate(-90.1)" fill="#e6e7e8" opacity=".5"/>
  </g>
  <g id="desk-095">
    <rect x="369.22" y="69.15" width="36.76" height="12.77" transform="translate(312.72 463.27) rotate(-90.1)" fill="#e6e7e8" opacity=".5"/>
  </g>
  <g id="desk-091">
    <rect x="351.61" y="30.32" width="36.76" height="12.77" transform="translate(333.91 406.75) rotate(-90.1)" fill="#e6e7e8" opacity=".5"/>
  </g>
  <g id="desk-096">
    <rect x="367.95" y="30.6" width="36.76" height="12.77" transform="translate(350 423.37) rotate(-90.1)" fill="#e6e7e8" opacity=".5"/>
  </g>
  <g id="desk-094">
    <rect x="369.29" y="106.4" width="36.77" height="12.77" transform="translate(275.54 500.64) rotate(-90.1)" fill="#e6e7e8" opacity=".5"/>
  </g>
  <g id="desk-086">
    <rect x="263.01" y="68.36" width="36.76" height="12.77" transform="translate(207.12 356.26) rotate(-90.1)" fill="#e6e7e8" opacity=".5"/>
  </g>
  <g id="desk-087">
    <rect x="263.07" y="105.61" width="36.77" height="12.77" transform="translate(169.94 393.64) rotate(-90.1)" fill="#e6e7e8" opacity=".5"/>
  </g>
  <g id="desk-089">
    <rect x="279.35" y="68.64" width="36.76" height="12.77" transform="translate(223.21 372.88) rotate(-90.1)" fill="#e6e7e8" opacity=".5"/>
  </g>
  <g id="desk-085">
    <rect x="261.74" y="29.81" width="36.76" height="12.77" transform="translate(244.4 316.37) rotate(-90.1)" fill="#e6e7e8" opacity=".5"/>
  </g>
  <g id="desk-090">
    <rect x="278.08" y="30.09" width="36.76" height="12.77" transform="translate(260.48 332.99) rotate(-90.1)" fill="#e6e7e8" opacity=".5"/>
  </g>
  <g id="desk-088">
    <rect x="279.41" y="105.89" width="36.77" height="12.77" transform="translate(186.03 410.26) rotate(-90.1)" fill="#e6e7e8" opacity=".5"/>
  </g>
  <g id="desk-080">
    <rect x="169.57" y="68.87" width="36.76" height="12.77" transform="translate(113.01 263.33) rotate(-90.1)" fill="#e6e7e8" opacity=".5"/>
  </g>
  <g id="desk-081">
    <rect x="169.63" y="106.12" width="36.77" height="12.77" transform="translate(75.82 300.7) rotate(-90.1)" fill="#e6e7e8" opacity=".5"/>
  </g>
  <g id="desk-083">
    <rect x="185.91" y="69.15" width="36.76" height="12.77" transform="translate(129.1 279.95) rotate(-90.1)" fill="#e6e7e8" opacity=".5"/>
  </g>
  <g id="desk-079">
    <rect x="168.29" y="30.32" width="36.76" height="12.77" transform="translate(150.28 223.43) rotate(-90.1)" fill="#e6e7e8" opacity=".5"/>
  </g>
  <g id="desk-084">
    <rect x="184.63" y="30.6" width="36.76" height="12.77" transform="translate(166.37 240.05) rotate(-90.1)" fill="#e6e7e8" opacity=".5"/>
  </g>
  <g id="desk-082">
    <rect x="185.97" y="106.4" width="36.77" height="12.77" transform="translate(91.91 317.32) rotate(-90.1)" fill="#e6e7e8" opacity=".5"/>
  </g>
  <g id="desk-004">
    <rect x="539.69" y="924.24" width="37.28" height="13.02" transform="translate(-373.85 1486.68) rotate(-89.85)" fill="#e6e7e8" opacity=".5"/>
  </g>
  <g id="desk-003">
    <rect x="539.66" y="885.81" width="36.77" height="12.77" transform="translate(-335.58 1447.95) rotate(-89.85)" fill="#e6e7e8" opacity=".5"/>
  </g>
  <g id="desk-002">
    <rect x="556.26" y="886.11" width="36.77" height="12.77" transform="translate(-319.33 1464.84) rotate(-89.85)" fill="#e6e7e8" opacity=".5"/>
  </g>
  <g id="desk-001">
    <rect x="556.16" y="924.66" width="36.77" height="12.77" transform="translate(-357.98 1503.19) rotate(-89.85)" fill="#e6e7e8" opacity=".5"/>
  </g>
  <g id="desk-015">
    <rect x="352.03" y="919.13" width="37.28" height="13.02" transform="translate(-555.93 1293.93) rotate(-89.85)" fill="#e6e7e8" opacity=".5"/>
  </g>
  <g id="desk.014">
    <rect x="352" y="880.71" width="36.77" height="12.77" transform="translate(-517.65 1255.19) rotate(-89.85)" fill="#e6e7e8" opacity=".5"/>
  </g>
  <g id="desk-011">
    <rect x="367.51" y="955.43" width="37.28" height="13.02" transform="translate(-576.78 1345.61) rotate(-89.85)" fill="#e6e7e8" opacity=".5"/>
  </g>
  <g id="desk-013">
    <rect x="368.6" y="881.01" width="36.77" height="12.77" transform="translate(-501.4 1272.09) rotate(-89.85)" fill="#e6e7e8" opacity=".5"/>
  </g>
  <g id="desk-012">
    <rect x="368.5" y="919.56" width="36.77" height="12.77" transform="translate(-540.05 1310.44) rotate(-89.85)" fill="#e6e7e8" opacity=".5"/>
  </g>
  <g id="desk-031">
    <rect x="54.08" y="883.92" width="37.28" height="13.02" fill="#e6e7e8" opacity=".5"/>
  </g>
  <g id="desk-032">
    <rect x="16.8" y="883.15" width="37.28" height="13.02" fill="#e6e7e8" opacity=".5"/>
  </g>
  <g id="desk-030">
    <rect x="92.88" y="883.66" width="36.77" height="12.77" fill="#e6e7e8" opacity=".5"/>
  </g>
  <g id="desk-029">
    <rect x="92.63" y="900.26" width="36.77" height="12.77" fill="#e6e7e8" opacity=".5"/>
  </g>
  <g id="desk-028">
    <rect x="54.08" y="900.26" width="36.77" height="12.77" fill="#e6e7e8" opacity=".5"/>
  </g>
  <g id="desk-057">
    <rect x="15.52" y="344.17" width="36.77" height="12.77" fill="#e6e7e8" opacity=".5"/>
  </g>
  <g id="desk-061">
    <rect x="55.86" y="327.07" width="36.77" height="12.77" fill="#e6e7e8" opacity=".5"/>
  </g>
  <g id="desk-058">
    <rect x="53.05" y="343.15" width="36.77" height="12.77" fill="#e6e7e8" opacity=".5"/>
  </g>
  <g id="desk-060">
    <rect x="94.16" y="327.58" width="36.77" height="12.77" fill="#e6e7e8" opacity=".5"/>
  </g>
  <g id="desk-059">
    <rect x="91.35" y="343.66" width="36.77" height="12.77" fill="#e6e7e8" opacity=".5"/>
  </g>
  <g id="desk-063">
    <rect x="92.63" y="270.13" width="36.77" height="12.77" fill="#e6e7e8" opacity=".5"/>
  </g>
  <g id="desk-064">
    <rect x="54.08" y="270.13" width="36.77" height="12.77" fill="#e6e7e8" opacity=".5"/>
  </g>
  <g id="desk-065">
    <rect x="15.27" y="270.13" width="36.77" height="12.77" fill="#e6e7e8" opacity=".5"/>
  </g>
</svg>