<?xml version="1.0" encoding="UTF-8"?>
<svg id="Layer_2" data-name="Layer 2" xmlns="http://www.w3.org/2000/svg" viewBox="0 0 640 1000">
  <g id="W7.064">
    <rect x="15.57" y="327.33" width="37.67" height="13.67" fill="#e6e7e8" opacity=".68"/>
  </g>
  <g id="W7.063">
    <rect x="54.24" y="327.66" width="37.67" height="13.67" fill="#e6e7e8" opacity=".68"/>
  </g>
  <g id="W7.062">
    <rect x="91.24" y="328.33" width="37.67" height="13.67" fill="#e6e7e8" opacity=".68"/>
  </g>
  <g id="W7.059">
    <rect x="14.57" y="342.66" width="37.67" height="13.67" fill="#e6e7e8" opacity=".68"/>
  </g>
  <g id="W7.060">
    <rect x="53.24" y="343" width="37.67" height="13.67" fill="#e6e7e8" opacity=".68"/>
  </g>
  <g id="W7.061">
    <rect x="90.24" y="343.66" width="37.67" height="13.67" fill="#e6e7e8" opacity=".68"/>
  </g>
  <g id="W7-047">
    <rect x="15.91" y="628.33" width="37.67" height="13.67" fill="#e6e7e8" opacity=".68"/>
  </g>
  <g id="W7-046">
    <rect x="54.57" y="628.66" width="37.67" height="13.67" fill="#e6e7e8" opacity=".68"/>
  </g>
  <g id="W7-045">
    <rect x="91.57" y="629.33" width="37.67" height="13.67" fill="#e6e7e8" opacity=".68"/>
  </g>
  <g id="W7-042">
    <rect x="14.91" y="643.66" width="37.67" height="13.67" fill="#e6e7e8" opacity=".68"/>
  </g>
  <g id="W7-043">
    <rect x="53.57" y="644" width="37.67" height="13.67" fill="#e6e7e8" opacity=".68"/>
  </g>
  <g id="W7-044">
    <rect x="90.57" y="644.66" width="37.67" height="13.67" fill="#e6e7e8" opacity=".68"/>
  </g>
  <g id="W7-038">
    <rect x="16.24" y="791" width="37.67" height="13.67" fill="#e6e7e8" opacity=".68"/>
  </g>
  <g id="W7-037">
    <rect x="54.91" y="791.33" width="37.67" height="13.67" fill="#e6e7e8" opacity=".68"/>
  </g>
  <g id="W7-036">
    <rect x="91.91" y="792" width="37.67" height="13.67" fill="#e6e7e8" opacity=".68"/>
  </g>
  <g id="W7-033">
    <rect x="15.24" y="806.33" width="37.67" height="13.67" fill="#e6e7e8" opacity=".68"/>
  </g>
  <g id="W7-034">
    <rect x="53.91" y="806.66" width="37.67" height="13.67" fill="#e6e7e8" opacity=".68"/>
  </g>
  <g id="W7-035">
    <rect x="90.91" y="807.33" width="37.67" height="13.67" fill="#e6e7e8" opacity=".68"/>
  </g>
  <g id="W7-027">
    <rect x="168.77" y="956.64" width="37.67" height="13.67" transform="translate(-772.17 1169.16) rotate(-91.08)" fill="#e6e7e8" opacity=".68"/>
  </g>
  <g id="W7-026">
    <rect x="168.38" y="917.98" width="37.67" height="13.67" transform="translate(-733.91 1129.38) rotate(-91.08)" fill="#e6e7e8" opacity=".68"/>
  </g>
  <g id="W7-025">
    <rect x="168.35" y="880.97" width="37.67" height="13.67" transform="translate(-696.94 1091.64) rotate(-91.08)" fill="#e6e7e8" opacity=".68"/>
  </g>
  <g id="W7-022">
    <rect x="184.12" y="957.36" width="37.67" height="13.67" transform="translate(-757.25 1185.23) rotate(-91.08)" fill="#e6e7e8" opacity=".68"/>
  </g>
  <g id="W7-023">
    <rect x="183.73" y="918.69" width="37.67" height="13.67" transform="translate(-718.99 1145.45) rotate(-91.08)" fill="#e6e7e8" opacity=".68"/>
  </g>
  <g id="W7-024">
    <rect x="183.7" y="881.68" width="37.67" height="13.67" transform="translate(-682.02 1107.72) rotate(-91.08)" fill="#e6e7e8" opacity=".68"/>
  </g>
  <g id="R7-004">
    <rect x="168.7" y="780.35" width="37.67" height="13.67" transform="translate(385.12 1571.91) rotate(179.27)" fill="#e6e7e8" opacity=".68"/>
  </g>
  <g id="R7-024">
    <rect x="233.04" y="807.02" width="37.67" height="13.67" transform="translate(-557.1 1080.97) rotate(-91.08)" fill="#e6e7e8" opacity=".68"/>
  </g>
  <g id="R7-023">
    <rect x="359.04" y="818.35" width="37.67" height="13.67" transform="translate(758.48 1649.11) rotate(179.81)" fill="#e6e7e8" opacity=".68"/>
  </g>
  <g id="R7-022">
    <rect x="442.04" y="818.35" width="37.67" height="13.67" transform="translate(908.65 1657.54) rotate(-179.1)" fill="#e6e7e8" opacity=".68"/>
  </g>
  <g id="W7-016">
    <rect x="351.38" y="917.65" width="37.67" height="13.67" transform="translate(-547.14 1312) rotate(-91.08)" fill="#e6e7e8" opacity=".68"/>
  </g>
  <g id="W7-015">
    <rect x="351.35" y="880.64" width="37.67" height="13.67" transform="translate(-510.17 1274.27) rotate(-91.08)" fill="#e6e7e8" opacity=".68"/>
  </g>
  <g id="W7-012">
    <rect x="367.12" y="957.02" width="37.67" height="13.67" transform="translate(-570.47 1367.86) rotate(-91.08)" fill="#e6e7e8" opacity=".68"/>
  </g>
  <g id="W7-013">
    <rect x="366.73" y="918.36" width="37.67" height="13.67" transform="translate(-532.22 1328.07) rotate(-91.08)" fill="#e6e7e8" opacity=".68"/>
  </g>
  <g id="W7-014">
    <rect x="366.7" y="881.35" width="37.67" height="13.67" transform="translate(-495.25 1290.34) rotate(-91.08)" fill="#e6e7e8" opacity=".68"/>
  </g>
  <g id="W7-003">
    <rect x="555.04" y="882.02" width="37.67" height="13.67" transform="translate(-304.04 1479.32) rotate(-91.08)" fill="#e6e7e8" opacity=".68"/>
  </g>
  <g id="W7-005">
    <rect x="539.38" y="917.31" width="37.67" height="13.67" transform="translate(-355.28 1499.63) rotate(-91.08)" fill="#e6e7e8" opacity=".68"/>
  </g>
  <g id="W7-004">
    <rect x="539.35" y="880.31" width="37.67" height="13.67" transform="translate(-318.31 1461.9) rotate(-91.08)" fill="#e6e7e8" opacity=".68"/>
  </g>
  <g id="W7-001">
    <rect x="555.12" y="956.69" width="37.67" height="13.67" transform="translate(-378.61 1555.49) rotate(-91.08)" fill="#e6e7e8" opacity=".68"/>
  </g>
  <g id="W7-002">
    <rect x="554.73" y="918.02" width="37.67" height="13.67" transform="translate(-340.35 1515.7) rotate(-91.08)" fill="#e6e7e8" opacity=".68"/>
  </g>
  <g id="W7-003-2" data-name="W7-003" opacity=".18">
    <rect x="554.7" y="881.02" width="37.67" height="13.67" transform="translate(-303.38 1477.97) rotate(-91.08)" fill="#e6e7e8" opacity=".68"/>
  </g>
  <g id="W7-128">
    <rect x="544.09" y="799.5" width="37.67" height="13.67" transform="translate(1127.99 1611.17) rotate(179.85)" fill="#e6e7e8" opacity=".68"/>
  </g>
  <g id="W7-127">
    <rect x="507.09" y="798.93" width="37.67" height="13.67" transform="translate(1053.99 1610.13) rotate(179.85)" fill="#e6e7e8" opacity=".68"/>
  </g>
  <g id="W7-124">
    <rect x="583.72" y="784.39" width="37.67" height="13.67" transform="translate(1207.2 1580.85) rotate(179.85)" fill="#e6e7e8" opacity=".68"/>
  </g>
  <g id="W7-125">
    <rect x="545.05" y="784.16" width="37.67" height="13.67" transform="translate(1129.87 1580.49) rotate(179.85)" fill="#e6e7e8" opacity=".68"/>
  </g>
  <g id="W7-126">
    <rect x="508.05" y="783.59" width="37.67" height="13.67" transform="translate(1055.86 1579.45) rotate(179.85)" fill="#e6e7e8" opacity=".68"/>
  </g>
  <g id="W7-122">
    <rect x="543.76" y="707.5" width="37.67" height="13.67" transform="translate(1127.08 1427.17) rotate(179.85)" fill="#e6e7e8" opacity=".68"/>
  </g>
  <g id="W7-121">
    <rect x="506.76" y="706.93" width="37.67" height="13.67" transform="translate(1053.07 1426.13) rotate(179.85)" fill="#e6e7e8" opacity=".68"/>
  </g>
  <g id="W7-118">
    <rect x="583.39" y="692.39" width="37.67" height="13.67" transform="translate(1206.29 1396.85) rotate(179.85)" fill="#e6e7e8" opacity=".68"/>
  </g>
  <g id="W7-123">
    <rect x="584.05" y="706.73" width="37.67" height="13.67" transform="translate(1207.66 1425.52) rotate(179.85)" fill="#e6e7e8" opacity=".68"/>
  </g>
  <g id="W7-119">
    <rect x="544.72" y="692.16" width="37.67" height="13.67" transform="translate(1128.96 1396.49) rotate(179.85)" fill="#e6e7e8" opacity=".68"/>
  </g>
  <g id="W7-120">
    <rect x="507.72" y="691.59" width="37.67" height="13.67" transform="translate(1054.95 1395.45) rotate(179.85)" fill="#e6e7e8" opacity=".68"/>
  </g>
  <g id="W7-104">
    <rect x="539.35" y="103.52" width="37.67" height="13.67" transform="translate(445.97 668.16) rotate(-89.81)" fill="#e6e7e8" opacity=".68"/>
  </g>
  <g id="W7-103">
    <rect x="540.13" y="66.52" width="37.67" height="13.67" transform="translate(483.76 632.08) rotate(-89.81)" fill="#e6e7e8" opacity=".68"/>
  </g>
  <g id="W7-105">
    <rect x="554.68" y="104.57" width="37.67" height="13.67" transform="translate(460.2 684.54) rotate(-89.81)" fill="#e6e7e8" opacity=".68"/>
  </g>
  <g id="W7-106">
    <rect x="555.46" y="67.57" width="37.67" height="13.67" transform="translate(497.99 648.45) rotate(-89.81)" fill="#e6e7e8" opacity=".68"/>
  </g>
  <g id="W7-099">
    <rect x="446.35" y="104.19" width="37.67" height="13.67" transform="translate(352.62 575.83) rotate(-89.81)" fill="#e6e7e8" opacity=".68"/>
  </g>
  <g id="W7-098">
    <rect x="447.13" y="67.19" width="37.67" height="13.67" transform="translate(390.4 539.74) rotate(-89.81)" fill="#e6e7e8" opacity=".68"/>
  </g>
  <g id="W7-100">
    <rect x="461.68" y="105.24" width="37.67" height="13.67" transform="translate(366.84 592.2) rotate(-89.81)" fill="#e6e7e8" opacity=".68"/>
  </g>
  <g id="W7-101">
    <rect x="462.46" y="68.24" width="37.67" height="13.67" transform="translate(404.63 556.12) rotate(-89.81)" fill="#e6e7e8" opacity=".68"/>
  </g>
  <g id="W7-097">
    <rect x="447.13" y="28.85" width="37.67" height="13.67" transform="translate(428.73 501.54) rotate(-89.81)" fill="#e6e7e8" opacity=".68"/>
  </g>
  <g id="W7-102">
    <rect x="462.46" y="29.91" width="37.67" height="13.67" transform="translate(442.96 517.91) rotate(-89.81)" fill="#e6e7e8" opacity=".68"/>
  </g>
  <g id="W7-093">
    <rect x="351.35" y="105.19" width="37.67" height="13.67" transform="translate(256.93 481.82) rotate(-89.81)" fill="#e6e7e8" opacity=".68"/>
  </g>
  <g id="W7-092">
    <rect x="352.13" y="68.19" width="37.67" height="13.67" transform="translate(294.72 445.74) rotate(-89.81)" fill="#e6e7e8" opacity=".68"/>
  </g>
  <g id="W7-094">
    <rect x="366.68" y="106.24" width="37.67" height="13.67" transform="translate(271.16 498.2) rotate(-89.81)" fill="#e6e7e8" opacity=".68"/>
  </g>
  <g id="W7-095">
    <rect x="367.46" y="69.24" width="37.67" height="13.67" transform="translate(308.94 462.12) rotate(-89.81)" fill="#e6e7e8" opacity=".68"/>
  </g>
  <g id="W7-091">
    <rect x="352.13" y="29.85" width="37.67" height="13.67" transform="translate(333.05 407.53) rotate(-89.81)" fill="#e6e7e8" opacity=".68"/>
  </g>
  <g id="W7-096">
    <rect x="367.46" y="30.91" width="37.67" height="13.67" transform="translate(347.28 423.91) rotate(-89.81)" fill="#e6e7e8" opacity=".68"/>
  </g>
  <g id="W7-087">
    <rect x="263.01" y="104.52" width="37.67" height="13.67" transform="translate(169.56 392.83) rotate(-89.81)" fill="#e6e7e8" opacity=".68"/>
  </g>
  <g id="W7-086">
    <rect x="263.8" y="67.52" width="37.67" height="13.67" transform="translate(207.34 356.74) rotate(-89.81)" fill="#e6e7e8" opacity=".68"/>
  </g>
  <g id="W7-088">
    <rect x="278.34" y="105.57" width="37.67" height="13.67" transform="translate(183.79 409.2) rotate(-89.81)" fill="#e6e7e8" opacity=".68"/>
  </g>
  <g id="W7-089">
    <rect x="279.13" y="68.57" width="37.67" height="13.67" transform="translate(221.57 373.12) rotate(-89.81)" fill="#e6e7e8" opacity=".68"/>
  </g>
  <g id="W7-085">
    <rect x="263.8" y="29.19" width="37.67" height="13.67" transform="translate(245.68 318.54) rotate(-89.81)" fill="#e6e7e8" opacity=".68"/>
  </g>
  <g id="W7-090">
    <rect x="279.13" y="30.24" width="37.67" height="13.67" transform="translate(259.9 334.91) rotate(-89.81)" fill="#e6e7e8" opacity=".68"/>
  </g>
  <g id="W7-081">
    <rect x="167.68" y="103.85" width="37.67" height="13.67" transform="translate(75.21 296.83) rotate(-89.81)" fill="#e6e7e8" opacity=".68"/>
  </g>
  <g id="W7-080">
    <rect x="168.47" y="66.85" width="37.67" height="13.67" transform="translate(112.99 260.74) rotate(-89.81)" fill="#e6e7e8" opacity=".68"/>
  </g>
  <g id="W7-082">
    <rect x="183.01" y="104.9" width="37.67" height="13.67" transform="translate(89.44 313.21) rotate(-89.81)" fill="#e6e7e8" opacity=".68"/>
  </g>
  <g id="R7-011">
    <rect x="216.01" y="189.24" width="37.67" height="13.67" transform="translate(37.99 430.26) rotate(-89.81)" fill="#e6e7e8" opacity=".68"/>
  </g>
  <g id="R7-014">
    <rect x="413.01" y="238.24" width="37.67" height="13.67" transform="translate(863.87 489.81) rotate(179.96)" fill="#e6e7e8" opacity=".68"/>
  </g>
  <g id="W7-083">
    <rect x="183.8" y="67.91" width="37.67" height="13.67" transform="translate(127.22 277.12) rotate(-89.81)" fill="#e6e7e8" opacity=".68"/>
  </g>
  <g id="W7-079">
    <rect x="168.47" y="28.52" width="37.67" height="13.67" transform="translate(151.33 222.54) rotate(-89.81)" fill="#e6e7e8" opacity=".68"/>
  </g>
  <g id="W7-084">
    <rect x="183.8" y="29.57" width="37.67" height="13.67" transform="translate(165.55 238.92) rotate(-89.81)" fill="#e6e7e8" opacity=".68"/>
  </g>
  <g id="W7.070">
    <rect x="89.99" y="193.59" width="37.67" height="13.67" transform="translate(218.3 400.5) rotate(179.82)" fill="#e6e7e8" opacity=".68"/>
  </g>
  <g id="W7.069">
    <rect x="52.99" y="193.05" width="37.67" height="13.67" transform="translate(144.29 399.53) rotate(179.82)" fill="#e6e7e8" opacity=".68"/>
  </g>
  <g id="W7.071">
    <rect x="90.94" y="178.26" width="37.67" height="13.67" transform="translate(220.15 369.83) rotate(179.82)" fill="#e6e7e8" opacity=".68"/>
  </g>
  <g id="W7.072">
    <rect x="53.94" y="177.71" width="37.67" height="13.67" transform="translate(146.14 368.85) rotate(179.82)" fill="#e6e7e8" opacity=".68"/>
  </g>
  <g id="W7.068">
    <rect x="14.66" y="193.3" width="37.67" height="13.67" transform="translate(67.63 400.15) rotate(179.82)" fill="#e6e7e8" opacity=".68"/>
  </g>
  <g id="W7.065">
    <rect x="90.66" y="270.26" width="37.67" height="13.67" transform="translate(219.88 553.83) rotate(179.82)" fill="#e6e7e8" opacity=".68"/>
  </g>
  <g id="W7.066">
    <rect x="53.66" y="269.71" width="37.67" height="13.67" transform="translate(145.87 552.86) rotate(179.82)" fill="#e6e7e8" opacity=".68"/>
  </g>
  <g id="W7.067">
    <rect x="15.33" y="269.96" width="37.67" height="13.67" transform="translate(69.21 553.48) rotate(179.82)" fill="#e6e7e8" opacity=".68"/>
  </g>
  <g id="W7.073">
    <rect x="15.61" y="177.96" width="37.67" height="13.67" transform="translate(69.48 369.47) rotate(179.82)" fill="#e6e7e8" opacity=".68"/>
  </g>
  <g id="W7.076">
    <rect x="90.91" y="101.97" width="37.67" height="13.67" transform="translate(218.73 218.37) rotate(-179.6)" fill="#e6e7e8" opacity=".68"/>
  </g>
  <g id="W7.075">
    <rect x="53.92" y="101.05" width="37.67" height="13.67" transform="translate(144.75 216.26) rotate(-179.6)" fill="#e6e7e8" opacity=".68"/>
  </g>
  <g id="W7.077">
    <rect x="92.02" y="86.64" width="37.67" height="13.67" transform="translate(221.05 187.72) rotate(-179.6)" fill="#e6e7e8" opacity=".68"/>
  </g>
  <g id="W_.078" data-name="W&amp;amp;.078">
    <rect x="55.02" y="85.72" width="37.67" height="13.67" transform="translate(147.07 185.62) rotate(-179.6)" fill="#e6e7e8" opacity=".68"/>
  </g>
  <g id="W7.074">
    <rect x="15.58" y="100.91" width="37.67" height="13.67" transform="translate(68.09 215.72) rotate(-179.6)" fill="#e6e7e8" opacity=".68"/>
  </g>
  <g id="W7-117">
    <rect x="584.05" y="613.39" width="37.67" height="13.67" transform="translate(1207.42 1238.85) rotate(179.85)" fill="#e6e7e8" opacity=".68"/>
  </g>
  <g id="W7-116">
    <rect x="545.39" y="613.16" width="37.67" height="13.67" transform="translate(1130.08 1238.49) rotate(179.85)" fill="#e6e7e8" opacity=".68"/>
  </g>
  <g id="W7-115">
    <rect x="508.38" y="612.59" width="37.67" height="13.67" transform="translate(1056.08 1237.45) rotate(179.85)" fill="#e6e7e8" opacity=".68"/>
  </g>
  <g id="W7-112">
    <rect x="585.05" y="286.39" width="37.67" height="13.67" transform="translate(1208.55 584.85) rotate(179.85)" fill="#e6e7e8" opacity=".68"/>
  </g>
  <g id="W7-113">
    <rect x="546.39" y="286.16" width="37.67" height="13.67" transform="translate(1131.21 584.49) rotate(179.85)" fill="#e6e7e8" opacity=".68"/>
  </g>
  <g id="W7-114">
    <rect x="509.38" y="285.59" width="37.67" height="13.67" transform="translate(1057.21 583.45) rotate(179.85)" fill="#e6e7e8" opacity=".68"/>
  </g>
  <g id="W7-111">
    <rect x="583.05" y="211.39" width="37.67" height="13.67" transform="translate(1204.35 434.85) rotate(179.85)" fill="#e6e7e8" opacity=".68"/>
  </g>
  <g id="W7-107">
    <rect x="557.72" y="194.73" width="37.67" height="13.67" transform="translate(1153.64 401.59) rotate(179.85)" fill="#e6e7e8" opacity=".68"/>
  </g>
  <g id="W7-110">
    <rect x="544.39" y="211.16" width="37.67" height="13.67" transform="translate(1127.01 434.5) rotate(179.85)" fill="#e6e7e8" opacity=".68"/>
  </g>
  <g id="W7-109">
    <rect x="507.38" y="210.59" width="37.67" height="13.67" transform="translate(1053.01 433.46) rotate(179.85)" fill="#e6e7e8" opacity=".68"/>
  </g>
  <g id="W7-108">
    <rect x="520.72" y="194.26" width="37.67" height="13.67" transform="translate(1079.63 400.75) rotate(179.85)" fill="#e6e7e8" opacity=".68"/>
  </g>
  <g id="W7-010">
    <rect x="448.38" y="917.65" width="37.67" height="13.67" transform="translate(-448.32 1408.99) rotate(-91.08)" fill="#e6e7e8" opacity=".68"/>
  </g>
  <g id="W7-009">
    <rect x="448.35" y="880.64" width="37.67" height="13.67" transform="translate(-411.35 1371.26) rotate(-91.08)" fill="#e6e7e8" opacity=".68"/>
  </g>
  <g id="W7-008">
    <rect x="464.12" y="957.02" width="37.67" height="13.67" transform="translate(-471.65 1464.84) rotate(-91.08)" fill="#e6e7e8" opacity=".68"/>
  </g>
  <g id="W7-011">
    <rect x="448.12" y="956.69" width="37.67" height="13.67" transform="translate(-487.62 1448.51) rotate(-91.08)" fill="#e6e7e8" opacity=".68"/>
  </g>
  <g id="W7-007">
    <rect x="463.73" y="918.36" width="37.67" height="13.67" transform="translate(-433.39 1425.06) rotate(-91.08)" fill="#e6e7e8" opacity=".68"/>
  </g>
  <g id="W7-008-2" data-name="W7-008">
    <rect x="463.7" y="881.35" width="37.67" height="13.67" transform="translate(-396.42 1387.33) rotate(-91.08)" fill="#e6e7e8" opacity=".68"/>
  </g>
  <g id="W7-021">
    <rect x="263.44" y="956.31" width="37.67" height="13.67" transform="translate(-675.39 1263.47) rotate(-91.08)" fill="#e6e7e8" opacity=".68"/>
  </g>
  <g id="W7-020">
    <rect x="263.05" y="917.65" width="37.67" height="13.67" transform="translate(-637.14 1223.69) rotate(-91.08)" fill="#e6e7e8" opacity=".68"/>
  </g>
  <g id="W7-019">
    <rect x="263.02" y="880.64" width="37.67" height="13.67" transform="translate(-600.17 1185.96) rotate(-91.08)" fill="#e6e7e8" opacity=".68"/>
  </g>
  <g id="W7-017">
    <rect x="278.4" y="918.36" width="37.67" height="13.67" transform="translate(-622.21 1239.76) rotate(-91.08)" fill="#e6e7e8" opacity=".68"/>
  </g>
  <g id="W7-018">
    <rect x="278.37" y="881.35" width="37.67" height="13.67" transform="translate(-585.24 1202.03) rotate(-91.08)" fill="#e6e7e8" opacity=".68"/>
  </g>
  <g id="W7-032">
    <rect x="15.57" y="883.33" width="37.67" height="13.67" fill="#e6e7e8" opacity=".68"/>
  </g>
  <g id="W7-031">
    <rect x="54.24" y="883.66" width="37.67" height="13.67" fill="#e6e7e8" opacity=".68"/>
  </g>
  <g id="W7-030">
    <rect x="91.24" y="884.33" width="37.67" height="13.67" fill="#e6e7e8" opacity=".68"/>
  </g>
  <g id="W7-028">
    <rect x="53.24" y="899" width="37.67" height="13.67" fill="#e6e7e8" opacity=".68"/>
  </g>
  <g id="W7-029">
    <rect x="90.24" y="899.66" width="37.67" height="13.67" fill="#e6e7e8" opacity=".68"/>
  </g>
  <g id="W7-039">
    <rect x="16.91" y="715.66" width="37.67" height="13.67" fill="#e6e7e8" opacity=".68"/>
  </g>
  <g id="W7-040">
    <rect x="55.57" y="716" width="37.67" height="13.67" fill="#e6e7e8" opacity=".68"/>
  </g>
  <g id="W7-041">
    <rect x="92.57" y="716.66" width="37.67" height="13.67" fill="#e6e7e8" opacity=".68"/>
  </g>
  <g id="W7-058">
    <rect x="15.51" y="426" width="32.06" height="13.67" fill="#e6e7e8" opacity=".68"/>
  </g>
  <g id="W7-057">
    <rect x="48.57" y="426.33" width="38.82" height="13.67" fill="#e6e7e8" opacity=".68"/>
  </g>
  <g id="W7-058-2" data-name="W7-058">
    <rect x="86.77" y="427" width="35.47" height="13.67" fill="#e6e7e8" opacity=".68"/>
  </g>
  <g id="W7-053">
    <rect x="14.57" y="441.33" width="33.33" height="13.67" fill="#e6e7e8" opacity=".68"/>
  </g>
  <g id="W7-054">
    <rect x="48.65" y="441" width="35.47" height="13.67" fill="#e6e7e8" opacity=".68"/>
  </g>
  <g id="W7-055">
    <rect x="85.83" y="442.33" width="35.47" height="13.67" fill="#e6e7e8" opacity=".68"/>
  </g>
  <g id="W7-052">
    <rect x="48.59" y="530.33" width="35.47" height="13.67" fill="#e6e7e8" opacity=".68"/>
  </g>
  <g id="W7-051">
    <rect x="86.77" y="529.33" width="35.47" height="13.67" fill="#e6e7e8" opacity=".68"/>
  </g>
  <g id="W7-048">
    <rect x="16.57" y="545.66" width="31" height="13.67" fill="#e6e7e8" opacity=".68"/>
  </g>
  <g id="W7-049">
    <rect x="49.32" y="546" width="35.47" height="13.67" fill="#e6e7e8" opacity=".68"/>
  </g>
  <g id="W7-050">
    <rect x="86.83" y="546.33" width="35.47" height="13.67" fill="#e6e7e8" opacity=".68"/>
  </g>
  <g id="R7-012">
    <rect x="245.24" y="177.33" width="36.67" height="12.67" fill="#e6e7e8"/>
  </g>
  <g id="R7-013">
    <rect x="373.57" y="177" width="37" height="13.33" fill="#e6e7e8"/>
  </g>
</svg>